<svg width="27" height="10" fill="none" xmlns="http://www.w3.org/2000/svg"><path d="M18.742 8.678c-.142-.544-.342-1.165-.217-1.23a14.192 14.192 0 012.516-1.101c-6.849.116-13.69.275-20.488.427-.132.023-.31-2.264-.397-2.249 7.47-.182 14.992-.33 22.466-.47-.761-.475-1.56-.905-2.323-1.383-.154-.105-.173-.976-.203-1.145-.03-.17-.044-1.04-.199-1.145l4.547 2.74c.403.233.814.51 1.216.746.257.173.638.282.785.606.173.595.28 1.206.322 1.823l.075.425c-.007-.042-.05-.035-.058-.077-.035.31-.247.394-.713.563a25.13 25.13 0 01-2.446.736c-1.473.33-2.901.833-4.257 1.497a.043.043 0 01-.036.049c-.123.065-.291.139-.415.205l-.175-1.017z" fill="#464646"/></svg>