<svg width="968" height="316" fill="none" xmlns="http://www.w3.org/2000/svg"><path d="M329.637 264.065c-189.319-37.807-493.121-133.07-193.243-218.933 78.566-30.707 252.725-58.79 336.573 66.235 4.684 6.984 9.744 13.838 15.987 19.473 74.969 67.68 132.39 41.629 158.591 12.991 5.649-6.175 9.012-13.951 12.574-21.516C687.355 64.47 770.191 3.157 924.094 152.081c164.326 159.014-321.09 158.398-594.457 111.984z" stroke="#DAEDD3" stroke-width="2"/><path d="M541.984 20.84c6.166 3.477 13.596 8.57 22.463 15.8 13.759 11.217 34.084 17.215 43.451 31.8 4.178 6.507 5.542 15.617.568 28.02-7.961 19.85-35.588 18.474-50.97 11.443-10.222-4.673-11.135-16.978-15.789-26.58-6.27-12.937-17.877-27.716-36.611-32.608-11.656-3.043-12.758-8.484-9.539-14.04 8.72-15.055 30.955-22.56 46.427-13.835z" stroke="#DAEDD3" stroke-width="2"/></svg>