<svg width="379" height="261" fill="none" xmlns="http://www.w3.org/2000/svg"><path d="M328.69 104.837c33.168-71.107-65.001-75.862-117.273-66.195-149.4 17.61-200.144 46.343-194.007 81.011 10.141 57.29 99.285 101.063 178.699 102.931 63.033 1.483 16.852-54.493 114.105-32.202 51.138 11.721 67.971-31.842 20.749-74.186-3.171-2.843-4.073-7.5-2.273-11.359z" stroke="#E5E5E5" stroke-width="1.101"/><path d="M278.022 214.355c-4.184-7.903-11.51-.489-15.176-7.619-1.553-3.021.702-6.412 4.061-6.917 5.809-.872 14.826-1.121 25.698 1.329 19.535 4.403-9.63 22.562-14.583 13.207z" stroke="#E5E5E5" stroke-width="1.101"/><path d="M328.69 104.837c33.168-71.107-65.001-75.862-117.273-66.195-149.4 17.61-200.144 46.343-194.007 81.011 10.141 57.29 99.285 101.063 178.699 102.931 63.033 1.483 16.852-54.493 114.105-32.202 51.138 11.721 67.971-31.842 20.749-74.186-3.171-2.843-4.073-7.5-2.273-11.359z" stroke="#E5E5E5" stroke-width="1.101"/><path d="M278.022 214.355c-4.184-7.903-11.51-.489-15.176-7.619-1.553-3.021.702-6.412 4.061-6.917 5.809-.872 14.826-1.121 25.698 1.329 19.535 4.403-9.63 22.562-14.583 13.207z" stroke="#E5E5E5" stroke-width="1.101"/></svg>