<svg width="22" height="22" fill="none" xmlns="http://www.w3.org/2000/svg"><path d="M21.492 11.149c-.078-.888-.074-2.086-.257-2.937-.118-.521-.424-.695-.63-.974-.323-.378-.652-.824-.976-1.202l-3.652-4.408c.124.167.138 1.57.162 1.844.024.273.038 1.676.161 1.844.612.769 1.253 1.457 1.864 2.225-6.003.23-12.042.472-18.04.77.07-.025.212 3.657.317 3.62 5.458-.247 10.951-.507 16.45-.698a10.293 10.293 0 00-2.022 1.774c-.1.106.06 1.105.174 1.98l.143 1.64c.1-.106.235-.224.334-.33 0 0 .036-.013.03-.081 1.06-1.151 2.238-1.78 3.417-2.41.657-.374 1.32-.68 1.964-1.19.375-.274.545-.405.574-.908.006.068.041.056.047.124l-.036-.41-.024-.273zM19.83 9.556l-.07.025-.013-.136.083.111z" fill="#fff"/></svg>