<svg width="332" height="229" fill="none" xmlns="http://www.w3.org/2000/svg"><path d="M17.643 177.641c62.355 37.746 66.282 6.999 41.105-16.983-23.865-18.984-79.484-4.819-41.104 16.983z" stroke="#FED5B9" stroke-width="2"/><path d="M311.599 173.047c9.324 33.786-60.04 1.578-105.491-9.35-7.986-1.92-16.241-1.815-24.414-1.002-127.04 12.635-134.73-59.687-130.653-88.882 8.027-57.477 41.021-53.706 82.401-27.381 30.098 19.147 26.499 40.63 109.064 35.944 41.267-2.343 53.563 4.689 58.544 51.736 1.417 13.375 6.97 25.97 10.549 38.935z" fill="#FB781C" fill-opacity=".31"/></svg>