<svg width="277" height="156" fill="none" xmlns="http://www.w3.org/2000/svg"><path d="M170.729 86.333c6.31-2.204 14.446-4.31 24.829-6.14 17.487-3.083 35.467-14.644 52.524-11.71 7.281 1.252 14.631 6.128 20.437 17.43 9.474 18.441-8.867 37.785-23.843 44.775-10.193 4.758-20.124-2.575-30.442-5.304-13.525-3.577-31.678-4.368-47.148 6.228-9.39 6.433-14.114 4.147-16.259-1.376-6.279-16.166 3.143-38.05 19.902-43.903z" fill="#AC73F9" fill-opacity=".24"/><path d="M68.43 40.473c77.121 4.925-37.228 90.77-47.288 33.787 1.626-57.363 31.303-87.47 47.288-33.787z" stroke="#AC73F9" stroke-opacity=".46" stroke-width="2"/></svg>