<svg width="673" height="179" fill="none" xmlns="http://www.w3.org/2000/svg"><path d="M657.798 77.4c8.044-4.463 18.554-16.01-5.399-31.63-9.764-6.366-21.959 4.89-24.808 24.79-2.85 19.9 18.951 12.852 30.207 6.84zM282.959 56.295c4.78-46.13-76.413-36.937-118.936-23.73C32.99 65.338-7.509 93.227 4.105 117.95c19.194 40.856 106.938 61.287 178.566 52.139 56.853-7.261 5.534-42.374 96.775-38.842 45.337 1.755 54.477-28.795 13.276-53.202-7.352-4.356-10.644-13.25-9.763-21.75zm154.008 63.922c-37.801-71.452-108.218 16.214-130.119-93.443-1.209-6.051 2.292-12.041 8.227-13.732C353.287 2.157 440.025-8.867 551.626 16.3c153.601 34.638-75.718 177.523-114.659 103.916z" stroke="#BEBEBE" stroke-width="2"/></svg>