<svg width="688" height="473" fill="none" xmlns="http://www.w3.org/2000/svg"><path d="M596.575 190.514C656.849 61.296 478.452 52.654 383.462 70.221 111.967 102.224 19.754 154.438 30.906 217.438c18.43 104.108 180.425 183.655 324.739 187.05 114.546 2.694 30.624-99.028 207.356-58.52 92.929 21.299 123.518-57.863 37.704-134.812-5.762-5.167-7.401-13.629-4.13-20.642z" stroke="#7DD7ED" stroke-width="2"/><path d="M504.5 389.534c-7.603-14.362-20.916-.89-27.578-13.846-2.823-5.49 1.275-11.653 7.38-12.57 10.556-1.585 26.941-2.036 46.698 2.416 35.5 8-17.5 41-26.5 24z" stroke="#7DD7ED" stroke-width="2"/></svg>