<svg width="1267" height="452" fill="none" xmlns="http://www.w3.org/2000/svg"><path d="M332.618 385.065c-189.32-37.807-493.122-202.719-193.243-288.58 78.596-30.72 377.113-58.812 467.533 66.377 4.924 6.817 9.804 13.822 16.531 18.871 95.315 71.524 326.419-32.152 347.429-63.438 45.152-67.23 146.752-86.73 268.752 87.77 131.03 187.413-633.635 225.414-907.002 179z" stroke="#B235B5" stroke-opacity=".25" stroke-width="2"/><path d="M688.244 72.84c6.166 3.477 13.597 8.57 22.463 15.8 13.759 11.217 34.085 17.215 43.451 31.801 4.178 6.506 5.542 15.616.569 28.018-7.962 19.851-35.589 18.475-50.971 11.444-10.222-4.673-11.135-16.978-15.789-26.581-6.27-12.936-17.877-27.715-36.611-32.607-11.656-3.043-12.758-8.484-9.539-14.04 8.72-15.054 30.955-22.56 46.427-13.835z" stroke="#B235B5" stroke-opacity=".25" stroke-width="2"/></svg>