<svg width="356" height="467" fill="none" xmlns="http://www.w3.org/2000/svg"><g filter="url(#filter0_d_660_1268)"><rect x="28" y="28" width="300" height="411" rx="77" fill="#CDCDCD" fill-opacity=".13" shape-rendering="crispEdges"/></g><path d="M222.366 393.554c5.491 15.005-1.79 36.387-6.366 45.446h50.5c14.618-.975 56.161-26.456 61.5-65.5v-38.375c-1.39-15.066-11.086-15.762-16.389-12.611-3.332 1.98-2.27 6.314-.963 9.963 4.577 12.778 1.239 28.736-38.325 15.143-56.822-19.521-56.822 27.178-49.957 45.934zm-76.018-211.727C101.299 147.737 64.273 143.06 28 149.415v200.949c116.363 5.822 115.675-29.878 95.06-42.901-24.815-13.023-59.632-29.34 8.781-47.113 68.412-17.773 38.558-61.286 14.507-78.523z" fill="#464CE2" fill-opacity=".13"/><path d="M240.767 65.099c-11.146 2.647-14.085-.704-21.276-5.458-13.493-8.922-32.699-2.017-13.588 23.727 15.057 20.282 44.2 14.276 61.99.152 8.99-7.137 15.434-18.814 12.182-29.822-2.914-9.866-12.322-13.448-22.22-1.607-4.713 5.637-9.939 11.31-17.088 13.008z" stroke="#464CE2" stroke-opacity=".47" stroke-dasharray="10 10"/><path d="M68.237 226.825c9.741-53.081 49.975-91.548 135.601-83.281 40.571 3.917 83.306 36.469 86.946 60.415 3.848 25.319-13.45 33.5-18.486 35.844-14.649 6.818-21.226 3.398-33.266 0-25.177-7.103-32.903 9.089-35.194 20.998-3.206 16.656 1.983 18.231 12.551 29.842 14.344 14.563 3.228 22.01-2.378 26.755-10.878 9.209-35.921 15.169-68.852 11.904-35.015-3.47-58.53-24.807-66.987-39.19-9.438-16.055-16.041-30.016-9.935-63.287z" stroke="#000" stroke-opacity=".15" stroke-width="3" stroke-linecap="round"/><path d="M172.732 315.086c-6 1.293-12.161 1.619-18.392 1.71a12.877 12.877 0 01-4.29-.68c-5.373-1.808-9.747-7.229-7.08-12.231 2.563-4.808 7.811-7.555 16.441-10.921 3.84-1.498 8.922-3.757 20.178-5.23 4.219.016 6.66.026 11.716.803 1.967.303 3.476.593 4.634.877 5.22 1.283 9.482 5.834 7.969 10.993-1.313 4.475-4.375 5.91-7.372 7.226-3.06 1.344-4.268 1.761-7.47 3.023-4.682 1.846-11.097 3.302-16.334 4.43z" stroke="#000" stroke-opacity=".15" stroke-width="3" stroke-linecap="round"/><circle cx="102.045" cy="263.25" r="16.014" transform="rotate(.22 102.045 263.25)" stroke="#000" stroke-opacity=".15" stroke-width="3"/><circle cx="108.095" cy="208.228" r="16.014" transform="rotate(.22 108.095 208.228)" stroke="#000" stroke-opacity=".15" stroke-width="3"/><circle cx="155.754" cy="176.719" r="16.014" transform="rotate(.22 155.754 176.719)" stroke="#000" stroke-opacity=".15" stroke-width="3"/><circle cx="151.435" cy="241.109" r="16.014" transform="rotate(.22 151.435 241.109)" stroke="#000" stroke-opacity=".15" stroke-width="3"/><path d="M210.817 217.818c-.034 8.844-7.231 15.987-16.076 15.952-8.844-.034-15.986-7.231-15.952-16.075.034-8.844 7.231-15.986 16.076-15.952 8.844.034 15.986 7.231 15.952 16.075z" stroke="#000" stroke-opacity=".15" stroke-width="3"/><circle cx="218.304" cy="176.96" r="16.014" transform="rotate(.22 218.304 176.96)" stroke="#000" stroke-opacity=".15" stroke-width="3"/><circle cx="259.021" cy="208.822" r="16.014" transform="rotate(.22 259.021 208.822)" stroke="#000" stroke-opacity=".15" stroke-width="3"/><defs><filter id="filter0_d_660_1268" x="0" y="0" width="356" height="467" filterUnits="userSpaceOnUse" color-interpolation-filters="sRGB"><feFlood flood-opacity="0" result="BackgroundImageFix"/><feColorMatrix in="SourceAlpha" values="0 0 0 0 0 0 0 0 0 0 0 0 0 0 0 0 0 0 127 0" result="hardAlpha"/><feMorphology radius="6" operator="dilate" in="SourceAlpha" result="effect1_dropShadow_660_1268"/><feOffset/><feGaussianBlur stdDeviation="11"/><feComposite in2="hardAlpha" operator="out"/><feColorMatrix values="0 0 0 0 0 0 0 0 0 0 0 0 0 0 0 0 0 0 0.11 0"/><feBlend in2="BackgroundImageFix" result="effect1_dropShadow_660_1268"/><feBlend in="SourceGraphic" in2="effect1_dropShadow_660_1268" result="shape"/></filter></defs></svg>