<svg width="271" height="245" fill="none" xmlns="http://www.w3.org/2000/svg"><path d="M46.307 173.621c-41.518-36.561-47.385.384-31.479 25.502 15.445 19.37 57.174-4.693 31.48-25.502z" stroke="#CAD7EF" stroke-width="2"/><path d="M259.529 125.863c5.251 15.481-42.939 15.453-75.011 20.688-8.106 1.323-15.674 4.801-22.877 8.747-81.519 44.656-108.209-2.013-114.185-23.12C35.562 90.165 59.426 82.761 95.9 88.346c26.53 4.062 30.564 19.947 86-8.308 26.34-13.425 37.218-13.08 53.427 13.526 6.998 11.485 19.881 19.562 24.202 32.299z" fill="#557DCA" fill-opacity=".31"/></svg>