<svg width="40" height="70" fill="none" xmlns="http://www.w3.org/2000/svg"><rect y="23" width="32" height="32" rx="16" fill="#5A6482"/><path d="M2.078 33.841c1.556-7.07 6.158-13.07 8.741-20.232 2.075-4.568 3.377-8.24 5.452-10.596 1.998-1.414 7.323-1.592 7.4 1.057.047 1.594-1.439 4.971-4.552 11.57-1.334 2.827-3.035 5.947-4.59 8.775-.516.937-1.003 2.474-1.273 3.895-.206 1.085.677 1.985 1.781 1.985H25.6c1.657 0 3.004-1.346 3.192-2.992.309-2.706.882-5.412.882-8.118v-.067c0-2.532 0-5.822 2.492-6.957 2.076-.943 3.813-.412 5.287 1.448 1.418 1.79.861 5.33.861 6.743 0 3.57-3.72 20.658-.012 43.349.374 2.288-.864 4.268-3.182 4.268-3.371 0-6.74-.584-7.038-5.153-.144-2.187-.52-4.514-.52-6.599V44.331c0-1.23.056-2.47.105-3.716a1.963 1.963 0 00-1.974-2.035H15.601c-4.954 0-14.56 1.388-13.523-4.739z" fill="#fff" stroke="#000" stroke-width="3" stroke-linecap="round"/></svg>