<svg width="561" height="478" fill="none" xmlns="http://www.w3.org/2000/svg"><g clip-path="url(#clip0_857_871)" stroke="#87D869" stroke-opacity=".24" stroke-width="2"><path d="M80.203 207.742c-86.214-106.4 42.431-63.939 132.153-48.287 25.24 4.403 50.962 1.559 76.271-2.423 205.73-32.37 246.349 68.153 237.431 115.605-9.747 51.866-74.352 114.659-184.712 100.097-91.173-12.031-63.192-102.812-188.873-34.704-66.988 36.301-115.02-25.594-70.734-117.806 1.927-4.013 1.267-9.023-1.536-12.482z"/><path d="M216.442 367.45c20.235 11.153-21.631 19.813-17.096 3.117 7.746-15.31 19.608-19.675 17.096-3.117zm-44.874-254.869c17.488 23.763 24.722 7.88 19.28-6.301-5.853-11.476-30.309-7.575-19.28 6.301zm288.236 278.008c7.515-8.937 28.956-26.42 54.606-24.858 25.074 7.974 6.88 34.741-5.352 47.128-25.587 18.814-1.568-10.075-35.069-2.016-33.502 8.058-23.416-10.145-14.185-20.254z"/></g><path d="M420.27 243.463c-22.35 21.163-59.607 44.514-104.503 50.865-44.759 6.332-97.366-4.187-150.768-51.139l-3.961 4.507c54.689 48.083 109.042 59.155 155.569 52.573 46.39-6.563 84.745-30.63 107.789-52.449l-4.126-4.357zM164.7 236.47c22.344-21.533 59.607-45.298 104.511-51.766 44.759-6.447 97.385 4.244 150.815 52.037l4-4.472c-54.714-48.942-109.105-60.211-155.67-53.504-46.421 6.687-84.79 31.191-107.819 53.384l4.163 4.321zm.299 6.719c-2.09-1.837-2.151-4.935-.299-6.719l-4.163-4.321c-4.529 4.365-4.065 11.532.501 15.547l3.961-4.507zm259.397 4.631c4.569-4.327 4.16-11.499-.37-15.551l-4 4.472c2.076 1.857 2.11 4.955.244 6.722l4.126 4.357z" fill="#2E2E2E"/><circle cx="293" cy="240" r="44" fill="#2E2E2E"/><defs><clipPath id="clip0_857_871"><path fill="#fff" d="M0 0h561v478H0z"/></clipPath></defs></svg>