<svg width="1191" height="1202" fill="none" xmlns="http://www.w3.org/2000/svg"><path d="M325.5 87.133l.287.41-.287-.41zm400.502 0l.438-.243-.004-.007-.434.25zM596.5 213.534l-.401.299.401-.299zm447.33 270.713l.15.478-.15-.478zm-101.849 23.668l.091.492-.091-.492zM767.18 546.892l.145.478-.145-.478zm-79.708 29.741l-.21-.454.21.454zm-91.5 52.055l.277.417.009-.006.009-.007-.295-.404zm-53.195 86.471l.497.051-.497-.051zm12.65 76.14l.442-.234-.442.234zm115.545 50.334l.219.45-.219-.45zm27.5-85l-.468.175.468-.175zm-61-29.5l-.04-.499.04.499zm-55.5 34.5l.409.288-.409-.288zm-19.825 51.065l-.485-.124.485.124zm-13.512 131.321l.486-.121-.486.121zm1.188 4.189l-.476.152.476-.152zm67.054 71.222l.231-.44-.231.44zm362.442-19.05l.1.49-.1-.49zm173.441 126.92l.5.04v-.02l-.5-.02zm-23.11 73.11l-.46.19.2.49.48-.23-.22-.45zM588.104 634.458l-.311-.392.311.392zm542.426 409.212l-.41.29.41-.29zm13.78-629.748l-.4-.301.4.301zm-18.88 775.018a.501.501 0 00-.65-.27.5.5 0 00-.27.65l.92-.38zm16.26 6.14a.5.5 0 10-.44-.9l.44.9zm-73.98-190.53l.16-.48-.16.48zM940.547 508.18l-.091-.492.091.492zm249.063-277.083l-.5.022.5-.022zm-23.54 149.175l.45.216-.45-.216zM5.77 148.807a.5.5 0 10-.47-.882l.47.882zm8.297-5.466a.5.5 0 10.455.89l-.455-.89zm9.246-3.487a.5.5 0 00-.436-.9l.436.9zm8.496-5.096a.5.5 0 10.414.91l-.414-.91zm9.484-3.058a.499.499 0 10-.387-.922l.387.922zm8.59-4.517a.5.5 0 10.355.934l-.355-.934zm9.796-2.438a.5.5 0 10-.316-.948l.316.948zm9.147-3.837a.5.5 0 10.266.964l-.266-.964zm9.76-1.35a.5.5 0 10-.204-.978l.205.978zm9.519-2.62a.499.499 0 10.125.992l-.125-.992zm9.908.243a.5.5 0 10-.023-1l.023 1zm9.907-.624a.5.5 0 00-.102.995l.102-.995zm9.514 2.693a.5.5 0 00.246-.97l-.246.97zm9.625 2.171a.5.5 0 10-.386.923l.386-.923zm8.405 5.279a.5.5 0 10.495-.869l-.495.869zm8.889 4.357a.5.5 0 10-.553.833l.553-.833zm7.628 6.346a.5.5 0 10.555-.833l-.555.833zm8.883 4.375a.5.5 0 10-.495.869l.495-.869zm8.433 5.234a.5.5 0 10.373-.927l-.373.927zm9.663 1.936a.502.502 0 00-.595.383.502.502 0 00.384.595l.211-.978zm9.676 2.236a.5.5 0 00.044-.999l-.044.999zm9.823-1.283a.5.5 0 10.097.995l-.097-.995zm9.862-.51a.5.5 0 00-.204-.979l.204.979zm9.34-3.396a.5.5 0 10.284.959l-.284-.959zm9.704-2.171a.5.5 0 00-.344-.939l.344.939zm8.672-4.504a.5.5 0 10.389.921l-.389-.921zm9.384-3.101a.501.501 0 00-.426-.905l.426.905zm8.614-5.347a.5.5 0 10.455.891l-.455-.891zm8.964-3.605a.5.5 0 10-.478-.878l.478.878zm8.242-5.761a.5.5 0 10.498.867l-.498-.867zm8.886-4.063a.5.5 0 10-.514-.858l.514.858zm8.022-6.082a.499.499 0 10.529.848l-.529-.848zm8.713-4.337a.499.499 0 10-.541-.841l.541.841zm7.975-6.402a.5.5 0 00.552.834l-.552-.834zm8.486-4.484a.5.5 0 00-.562-.828l.562.828zm7.663-6.469a.5.5 0 10.57.822l-.57-.822zm8.852-4.942a.5.5 0 10-.567-.824l.567.824zm7.528-6.312a.5.5 0 10.555.832l-.555-.832zm8.727-4.524a.5.5 0 00-.541-.84l.541.84zm7.717-6.065a.501.501 0 00.528.85l-.528-.85zm8.879-4.242a.5.5 0 00-.513-.858l.513.858zm7.903-5.794a.499.499 0 10.498.867l-.498-.867zm9.034-3.94a.5.5 0 10-.483-.876l.483.876zm8.083-5.498a.5.5 0 10.467.885l-.467-.885zm9.191-3.615a.5.5 0 10-.45-.893l.45.893zm8.298-5.193a.5.5 0 00.432.902l-.432-.902zm9.305-3.242a.5.5 0 10-.414-.91l.414.91zm8.531-4.867a.5.5 0 10.395.92l-.395-.92zm9.388-2.832a.5.5 0 00-.375-.927l.375.927zm8.765-4.506a.501.501 0 00.354.935l-.354-.935zm9.492-2.405a.5.5 0 10-.333-.943l.333.943zm8.955-4.093a.5.5 0 00.31.951l-.31-.95zm9.637-1.96a.5.5 0 00-.286-.957l.286.958zm9.088-3.624a.5.5 0 10.261.965l-.261-.965zm9.751-1.467a.5.5 0 00-.235-.972l.235.972zm9.313-3.143a.5.5 0 00.208.978l-.208-.978zm9.75-.91a.5.5 0 10-.179-.983l.179.984zm9.498-2.602a.5.5 0 00.15.989l-.15-.989zm9.831-.326a.5.5 0 10-.119-.993l.119.993zm9.605-2a.5.5 0 10.087.997l-.087-.996zm9.801.317a.5.5 0 00-.053-.998l.053.998zM555.667.54a.5.5 0 10.017 1l-.017-1zm9.778 1.01a.5.5 0 10.02-1l-.02 1zm9.797-.621a.5.5 0 10-.058.998l.058-.998zm9.648 1.756a.5.5 0 10.098-.995l-.098.995zm9.831.167a.5.5 0 10-.14.99l.14-.99zm9.498 2.562a.5.5 0 10.182-.984l-.182.984zm9.775 1.022a.5.5 0 10-.227.974l.227-.974zm9.212 3.409a.5.5 0 10.273-.963l-.273.963zm9.627 1.936a.5.5 0 10-.319.948l.319-.947zm8.831 4.293a.5.5 0 10.367-.93l-.367.93zm9.379 2.904a.5.5 0 00-.416.91l.416-.91zm8.336 5.199a.5.5 0 10.464-.886l-.464.886zm9.019 3.91a.5.5 0 00-.514.857l.514-.858zm7.705 6.098a.5.5 0 10.562-.827l-.562.827zm8.508 4.914a.5.5 0 10-.609.793l.609-.793zm6.937 6.957a.5.5 0 10.656-.756l-.656.756zm7.862 5.89a.5.5 0 00-.7.714l.7-.715zm6.049 7.739a.5.5 0 10.741-.67l-.741.67zm7.089 6.799a.5.5 0 10-.781.624l.781-.624zm-2.235 5.299a.5.5 0 00.327.945l-.327-.945zm-8.881 4.25a.5.5 0 00-.349-.936l.349.937zm-9.5 2.59a.5.5 0 10.371.929l-.371-.929zm-8.668 4.673a.5.5 0 10-.395-.919l.395.919zm-9.356 3.077a.5.5 0 10.42.907l-.42-.907zm-8.396 5.15a.5.5 0 00-.448-.895l.448.894zm-9.153 3.637a.5.5 0 10.477.88l-.477-.88zm-8.031 5.691a.5.5 0 00-.509-.86l.509.86zm-8.85 4.289a.5.5 0 10.543.84l-.543-.84zm-7.539 6.323a.5.5 0 00-.58-.814l.58.814zm-8.449 5.102a.5.5 0 10.622.783l-.622-.783zm-6.84 7.07a.5.5 0 10-.667-.745l.667.745zm-7.762 6.058a.5.5 0 00.717.697l-.717-.697zm-5.794 7.958a.499.499 0 10-.772-.635l.772.635zm-6.665 7.257a.5.5 0 00.831.557l-.831-.557zm-4.115 8.925a.499.499 0 10-.89-.455l.89.455zm-4.764 8.603a.5.5 0 00.946.325l-.946-.325zm-1.45 9.728a.5.5 0 10-.987-.163l.987.163zm-1.691 9.691a.5.5 0 001-.024l-1 .024zm2.172 9.589a.5.5 0 00-.976.217l.976-.217zm2.066 9.611a.5.5 0 10.919-.393l-.919.393zm5.48 8.177a.5.5 0 00-.842.539l.842-.539zm5.155 8.772a.5.5 0 10.789-.615l-.789.615zm7.067 7.097a.5.5 0 10-.761.648l.761-.648zm6.114 8.306a.5.5 0 00.725-.688l-.725.688zm7.909 6.433a.5.5 0 00-.68.733l.68-.733zm6.999 7.348a.501.501 0 00.622-.784l-.622.784zm8.772 5.094a.5.5 0 10-.544.839l.544-.839zm8.303 5.866a.5.5 0 00.439-.899l-.439.899zm9.764 2.832a.5.5 0 00-.297.955l.297-.955zm9.666 3.094a.5.5 0 00.115-.993l-.115.993zm10.081-.879a.5.5 0 00.096.995l-.096-.995zm10.098-1.096a.5.5 0 10-.31-.951l.31.951zm8.833-5.014a.5.5 0 10.495.869l-.495-.869zm8.897-4.949a.5.5 0 10-.636-.772l.636.772zm6.617-7.694a.5.5 0 10.738.674l-.738-.674zm7.142-7.237a.5.5 0 00-.812-.584l.812.584zm4.665-9.053a.5.5 0 00.864.503l-.864-.503zm5.6-8.509a.5.5 0 10-.903-.429l.903.429zm3.081-9.711a.5.5 0 10.933.361l-.933-.361zm4.28-9.241a.5.5 0 00-.955-.298l.955.298zm1.75-10.024a.499.499 0 10.971.238l-.971-.238zm3.096-9.694a.5.5 0 10-.984-.181l.984.181zm.55-10.164a.5.5 0 10.992.124l-.992-.124zm1.953-9.989a.5.5 0 00-.998-.066l.998.066zm-.63-10.16a.5.5 0 101 .007l-1-.007zm.76-10.151a.5.5 0 10-.998.055l.998-.055zm-1.874-10.005a.5.5 0 10.992-.12l-.992.12zm-.575-10.165a.5.5 0 10-.982.189l.982-.189zm-3.272-9.64a.5.5 0 10.964-.266l-.964.266zm-2.151-9.951a.5.5 0 00-.938.348l.938-.348zm-4.895-8.922a.5.5 0 00.899-.438l-.899.438zm-3.978-9.194a.5.5 0 00-.852.524l.852-.524zm-6.262-7.69a.5.5 0 00.818-.574l-.818.575zM562.267 801.06a.5.5 0 10-.799.601l.799-.601zm-5.301-6.035a.5.5 0 00.855-.518l-.855.518zm-3.248-8.315a.499.499 0 10-.908.418l.908-.418zm-4.573-8.692a.5.5 0 00.944-.33l-.944.33zm-1.891-9.642a.499.499 0 10-.967.253l.967-.253zm-3.114-9.319a.5.5 0 00.983-.185l-.983.185zm-.502-9.814a.501.501 0 00-.993.121l.993-.121zm-1.87-9.647a.5.5 0 10.999-.058l-.999.058zm.733-9.798a.5.5 0 00-1-.004l1 .004zm-.644-9.804a.5.5 0 00.998.069l-.998-.069zm2.01-9.473a.5.5 0 00-.989-.148l.989.148zm.83-9.512a.5.5 0 00.972.233l-.972-.233zm3.558-8.861a.5.5 0 10-.95-.313l.95.313zm2.403-9.241a.5.5 0 00.922.389l-.922-.389zm4.941-8.172a.5.5 0 00-.888-.46l.888.46zm3.822-8.75a.5.5 0 00.85.527l-.85-.527zm6.137-7.316a.5.5 0 10-.807-.59l.807.59zm5.107-8.069a.5.5 0 00.76.65l-.76-.65zm7.174-6.302a.5.5 0 00-.709-.706l.709.706zm6.277-7.196a.5.5 0 10.651.758l-.651-.758zm6.217-3.746a.5.5 0 00-.608-.795l.608.795zm3.339-3.698a.5.5 0 10.576.818l-.576-.818zm6.871-3.618a.5.5 0 10-.573-.82l.573.82zm8.18-6.724a.5.5 0 00.547.837l-.547-.837zm9.432-4.81a.5.5 0 00-.526-.85l.526.85zm8.498-6.318a.5.5 0 00.51.86l-.51-.86zm9.616-4.438a.5.5 0 00-.496-.868l.496.868zm8.705-6.03a.5.5 0 10.483.875l-.483-.875zm9.744-4.147a.5.5 0 10-.47-.882l.47.882zm8.874-5.78a.5.5 0 10.458.889l-.458-.889zm9.856-3.867a.5.5 0 10-.445-.895l.445.895zm9.044-5.508a.5.5 0 00.429.903l-.429-.903zm10.027-3.54a.501.501 0 00-.411-.912l.411.912zm9.348-5.187a.5.5 0 00.392.92l-.392-.92zm10.217-3.147a.5.5 0 00-.373-.928l.373.928zm9.548-4.806a.5.5 0 10.355.934l-.355-.934zm10.331-2.749a.5.5 0 00-.338-.941l.338.941zm9.717-4.454a.5.5 0 10.323.946l-.323-.946zm10.418-2.401a.5.5 0 00-.308-.951l.308.951zm9.846-4.162a.501.501 0 00.296.956l-.296-.956zm10.108-2.019a.5.5 0 00-.285-.958l.285.958zm9.204-3.711a.5.5 0 10.273.962l-.273-.962zm9.782-1.679a.5.5 0 10-.263-.965l.263.965zm9.284-3.506a.5.5 0 00.253.968l-.253-.968zm9.815-1.475a.5.5 0 00-.243-.97l.243.97zm9.35-3.326a.501.501 0 00.235.973l-.235-.973zm9.84-1.298a.5.5 0 00-.226-.974l.226.974zm9.405-3.17a.5.5 0 10.218.976l-.218-.976zm9.858-1.149a.499.499 0 10-.212-.977l.212.977zm9.447-3.039a.5.5 0 10.206.978l-.206-.978zm9.872-1.026a.5.5 0 00-.201-.98l.201.98zm9.48-2.936a.5.5 0 00.196.981l-.196-.981zm9.881-.93a.5.5 0 00-.191-.982l.191.982zm9.505-2.857a.5.5 0 00.188.982l-.188-.982zm9.887-.863a.5.5 0 00-.185-.983l.185.983zm9.52-2.804a.5.5 0 00.184.983l-.184-.983zm9.891-.822a.5.5 0 10-.182-.983l.182.983zm9.528-2.778a.5.5 0 10.181.983l-.181-.983zm5.395.021a.5.5 0 10-.181-.983l.181.983zm.536-1.115a.5.5 0 10.181.983l-.181-.983zm5.683-.041a.5.5 0 10-.185-.982l.185.982zm10.088-2.95a.5.5 0 00.191.982l-.191-.982zm10.456-1.062a.5.5 0 10-.199-.98l.199.98zm10.041-3.105a.5.5 0 00.207.978l-.207-.978zm10.437-1.239a.501.501 0 00-.217-.976l.217.976zm9.981-3.291a.5.5 0 10.227.974l-.227-.974zm10.412-1.456a.49.49 0 00.36-.604.491.491 0 00-.6-.367l.24.971zm9.9-3.523a.5.5 0 10.25.968l-.25-.968zm10.36-1.731a.492.492 0 00.35-.614.496.496 0 00-.61-.35l.26.964zm9.79-3.824a.498.498 0 00-.33.621c.07.265.35.416.62.338l-.29-.959zm10.26-2.132c.26-.088.4-.372.31-.634a.498.498 0 00-.63-.314l.32.948zm9.4-4.519a.5.5 0 10.37.929l-.37-.929zm9.93-3.183a.508.508 0 00.25-.663.51.51 0 00-.67-.245l.42.908zm8.87-5.493a.503.503 0 00-.21.676c.13.244.43.338.68.209l-.47-.885zm9.55-4.196a.489.489 0 00.17-.685.493.493 0 00-.68-.175l.51.86zm8.26-6.368a.503.503 0 00-.14.694c.15.23.46.292.7.14l-.56-.834zm9.08-5.136a.506.506 0 00.11-.699.501.501 0 00-.7-.106l.59.805zm7.58-7.164a.508.508 0 00-.07.704c.18.213.49.245.71.07l-.64-.774zm8.52-6.024a.5.5 0 00.03-.706.492.492 0 00-.7-.034l.67.74zm6.81-7.897a.5.5 0 00.01.707c.19.195.51.193.7-.002l-.71-.705zm7.85-6.872a.491.491 0 00-.04-.706.493.493 0 00-.7.04l.74.666zm5.94-8.575a.508.508 0 00.08.703c.22.173.53.137.7-.078l-.78-.625zm7.05-7.443a.499.499 0 00-.09-.702.498.498 0 00-.7.088l.79.614zm5.18-8.655c-.16.226-.1.538.12.697.23.158.54.103.7-.123l-.82-.574zm6.34-7.852a.498.498 0 10-.85-.521l.85.521zm4.07-9.229a.506.506 0 00.22.675c.24.128.54.033.67-.212l-.89-.463zm5.17-8.374a.504.504 0 00-.25-.661.497.497 0 00-.66.25l.91.411zm2.8-9.169a.5.5 0 10.93.369l-.93-.369zm4.26-8.59a.502.502 0 00-.95-.327l.95.327zm1.98-9.38a.5.5 0 00.33.623c.27.08.55-.07.62-.335l-.95-.288zm3.52-8.914a.497.497 0 00-.36-.609.49.49 0 00-.6.359l.96.25zm1.24-9.507c-.06.27.11.536.38.595.27.06.54-.111.6-.381l-.98-.214zm2.86-9.15a.5.5 0 10-.98-.181l.98.181zm.58-9.57c-.04.273.15.528.42.569.28.041.53-.147.57-.42l-.99-.149zm2.27-9.316a.5.5 0 00-.44-.556.495.495 0 00-.55.437l.99.119zm.01-9.587c-.03.275.17.518.45.543.27.026.52-.177.54-.452l-.99-.091zm1.74-9.428a.498.498 0 00-.47-.531.503.503 0 00-.53.466l1 .065zm-.49-9.575a.5.5 0 00.48.521.51.51 0 00.52-.479l-1-.042zm1.29-9.5a.51.51 0 00-.5-.51.493.493 0 00-.5.491l1 .019zm-.92-9.544a.5.5 0 101-.001l-1 .001zm.9-9.545a.507.507 0 00-.51-.49.495.495 0 00-.49.51l1-.02zm-1.28-9.502c.01.276.25.491.52.481a.498.498 0 00.48-.519l-1 .038zm.52-9.878a.497.497 0 00-.53-.466.506.506 0 00-.47.532l1-.066zm-1.88-10.018c.03.274.28.472.55.442a.5.5 0 00.45-.551l-1 .109zm-.32-10.189a.506.506 0 00-.57-.418.497.497 0 00-.42.57l.99-.152zm-2.76-9.814c.06.271.32.446.59.392a.496.496 0 00.39-.589l-.98.197zm-1.25-10.116a.5.5 0 00-.97.243l.97-.243zm-3.66-9.511c.08.265.36.414.62.334.27-.08.42-.359.34-.623l-.96.289zm-2.24-9.943a.5.5 0 10-.94.338l.94-.338zm-4.61-9.09c.11.254.4.374.66.267a.51.51 0 00.27-.654l-.93.387zm-3.26-9.655a.501.501 0 00-.9.437l.9-.437zm-5.56-8.539a.5.5 0 10.87-.485l-.87.485zm-4.32-9.233a.497.497 0 10-.84.535l.84-.535zm-6.49-7.854c.16.225.47.277.7.116a.504.504 0 00.11-.698l-.81.582zm-5.35-8.675a.508.508 0 00-.71-.074.507.507 0 00-.07.703l.78-.629zm-7.37-7.046a.5.5 0 10.74-.673l-.74.673zm-6.33-7.992a.492.492 0 00-.7.008.5.5 0 000 .707l.7-.715zm-8.13-6.143c.21.181.52.16.7-.049a.5.5 0 00-.05-.705l-.65.754zm-7.21-7.212a.5.5 0 10-.61.79l.61-.79zm-8.77-5.186c.23.157.54.1.7-.127a.504.504 0 00-.13-.696l-.57.823zm-7.95-6.377a.491.491 0 00-.68.164.499.499 0 00.16.688l.52-.852zm-9.26-4.223a.49.49 0 00.67-.199.493.493 0 00-.19-.678l-.48.877zm-8.55-5.53a.502.502 0 00-.44.9l.44-.9zm-9.64-3.296a.502.502 0 00.4-.92l-.4.92zm-9.03-4.71a.496.496 0 00-.64.29c-.1.259.03.547.29.645l.35-.936zm-9.89-2.435a.5.5 0 00.63-.319.508.508 0 00-.32-.631l-.31.95zm-9.42-3.944a.491.491 0 00-.61.343c-.08.265.07.542.34.618l.27-.961zm-10.09-1.652c.27.066.54-.098.61-.366a.506.506 0 00-.37-.605l-.24.971zm-9.63-3.22a.51.51 0 00-.6.388c-.05.27.12.535.39.591l.21-.978zm-10.13-.927c.27.048.53-.134.58-.406a.502.502 0 00-.41-.579l-.17.985zm-9.87-2.581a.491.491 0 00-.56.424.5.5 0 00.42.566l.14-.99zm-10.24-.303a.5.5 0 10.112-.994l-.112.994zm-9.939-1.99a.5.5 0 10-.085.996l.085-.996zm-10.179.268a.5.5 0 00.059-.998l-.059.998zm-10.145-1.474a.5.5 0 00-.034 1l.034-1zm-10.107.77a.5.5 0 10.011-1l-.011 1zm-10.135-1.017a.5.5 0 10.004 1l-.004-1zm-9.958 1.094a.5.5 0 00-.014-1l.014 1zm-9.983-.812a.5.5 0 00.024 1l-.024-1zm-9.93 1.285a.499.499 0 10-.034-.999l.034 1zm-10.001-.613a.5.5 0 00.043.999l-.043-1zm-9.914 1.486a.501.501 0 00-.054-.999l.054.999zm-10.013-.406a.5.5 0 00.065.998l-.065-.998zm-9.873 1.696a.5.5 0 10-.075-.997l.075.997zm-10.01-.189a.5.5 0 00.086.997l-.086-.997zm-9.834 1.918a.5.5 0 00-.099-.995l.099.995zm-10.025.043a.5.5 0 10.11.994l-.11-.994zm-9.784 2.15a.5.5 0 00-.122-.992l.122.992zm-10.005.287a.5.5 0 10.135.99l-.135-.99zm-9.737 2.398a.5.5 0 10-.148-.99l.148.99zm-10.004.549a.5.5 0 10.161.987l-.161-.987zm-9.651 2.657a.5.5 0 00-.175-.985l.175.985zm-9.994.83a.5.5 0 00.189.983l-.189-.982zm-9.571 2.938a.5.5 0 00-.204-.98l.204.98zm-9.961 1.132a.5.5 0 00.22.975l-.22-.975zm-9.476 3.238a.5.5 0 00-.235-.972l.235.972zm-9.916 1.46a.5.5 0 10.252.967l-.252-.968zm-9.356 3.562a.5.5 0 00-.269-.963l.269.963zm-9.86 1.82a.5.5 0 10.288.958l-.288-.958zm-9.215 3.919a.5.5 0 10-.307-.952l.307.952zM566.421 799.04a.5.5 0 10-.958-.285l.958.285zm2.61-11.385a.5.5 0 00.944.33l-.944-.33zm5.126-10.491a.5.5 0 00-.918-.396l.918.396zm4.266-10.872a.5.5 0 10.866.499l-.866-.499zm7.288-8.94a.5.5 0 00-.798-.603l.798.603zm6.489-9.337a.5.5 0 10.732.681l-.732-.681zm8.956-6.983a.5.5 0 10-.622-.783l.622.783zm8.923-7.028a.499.499 0 10.465.885l-.465-.885zm10.846-3.359a.501.501 0 00-.291-.957l.291.957zm10.84-3.388a.5.5 0 10.141.99l-.141-.99zm10.259.12a.5.5 0 10-.033-1l.033 1zm9.079-.827a.5.5 0 10-.072.997l.072-.997zm8.848 2.169a.5.5 0 10.191-.981l-.191.981zm9.018 1.347a.5.5 0 10-.321.947l.321-.947zm7.943 4.461a.5.5 0 00.462-.887l-.462.887zm8.183 4.006a.5.5 0 00-.608.795l.608-.795zm5.948 6.891a.501.501 0 00.751-.661l-.751.661zm5.997 6.85a.5.5 0 10-.881.472l.881-.472zm2.595 9.202a.5.5 0 00.951-.308l-.951.308zm3.559 9.323a.5.5 0 10-.977.212l.977-.212zm.584 9.957a.5.5 0 10.995-.101l-.995.101zm1.368 9.884a.5.5 0 00-1-.03l1 .03zm-2.02 9.764a.5.5 0 10.984.181l-.984-.181zm-1.65 9.833a.499.499 0 10-.938-.346l.938.346zm-5.183 8.511a.5.5 0 00.857.515l-.857-.515zm-5.082 8.572a.5.5 0 10-.746-.665l.746.665zm-7.913 6.066a.502.502 0 00.621.785l-.621-.785zm-7.674 6.359a.5.5 0 10-.496-.868l.496.868zm-9.431 3.348a.5.5 0 00.335.942l-.335-.942zm-9.46 3.358a.499.499 0 10-.147-.989l.147.989zm-10.044-.343a.5.5 0 00-.012 1l.012-1zm-10.051.21a.5.5 0 10.141-.99l-.141.99zm-9.617-2.934a.499.499 0 10-.247.969l.247-.969zm-9.859-1.968a.501.501 0 00.335-.943l-.335.943zm-8.905-4.68a.5.5 0 10-.413.911l.413-.911zm-9.392-3.591a.5.5 0 10.482-.876l-.482.876zm-8.061-6.013a.499.499 0 10-.548.836l.548-.836zm-8.739-4.983a.5.5 0 00.611-.792l-.611.792zm-7.027-7.188a.5.5 0 10-.673.74l.673-.74zm-7.797-6.359a.5.5 0 00.739-.675l-.739.675zm-3.953-2.196a.5.5 0 00.965.263l-.965-.263zm-.126 4.361a.501.501 0 00-.968-.252l.968.252zm-2.685 6.42a.5.5 0 10.968.25l-.968-.25zm-1.412 9.48a.5.5 0 10-.968-.249l.968.249zm-3.318 8.994a.5.5 0 10.97.243l-.97-.243zm-1.298 9.497a.5.5 0 10-.973-.232l.973.232zm-3.114 9.065a.499.499 0 10.976.216l-.976-.216zm-.983 9.535a.5.5 0 10-.98-.195l.98.195zm-2.712 9.194a.5.5 0 10.986.167l-.986-.167zm-.453 9.572a.5.5 0 00-.991-.134l.991.134zm-2.088 9.356a.5.5 0 00.996.095l-.996-.095zm.313 9.579a.5.5 0 00-.999-.048l.999.048zm-1.208 9.508a.5.5 0 001-.006l-1 .006zm1.332 9.49a.5.5 0 10-.997.066l.997-.066zm-.056 9.583a.5.5 0 00.991-.132l-.991.132zm2.584 9.228a.499.499 0 10-.979.204l.979-.204zm.359 5.933a.5.5 0 00.967-.257l-.967.257zm1.556 1.822a.499.499 0 10-.957.288l.957-.288zm1.035 6.097a.5.5 0 10.934-.357l-.934.357zm4.99 8.754a.5.5 0 00-.891.455l.891-.455zm4.137 9.189a.5.5 0 00.841-.541l-.841.541zm6.621 7.598a.499.499 0 10-.788.615l.788-.615zm5.733 8.288a.5.5 0 10.735-.678l-.735.678zm7.784 6.404a.5.5 0 00-.682.731l.682-.731zm6.911 7.336a.498.498 0 10.63-.774l-.63.774zm8.587 5.28a.497.497 0 00-.698.12c-.16.22-.108.54.117.7l.581-.82zm7.778 6.41a.498.498 0 10.532-.84l-.532.84zm9.146 4.24a.507.507 0 00-.68.2.504.504 0 00.195.68l.485-.88zm8.537 5.53c.25.11.548.01.665-.24a.506.506 0 00-.24-.67l-.425.91zm9.794 3.05a.495.495 0 00-.644.29c-.098.26.033.55.291.64l.353-.93zm9.375 4.19c.265.08.543-.07.621-.34a.502.502 0 00-.338-.62l-.283.96zm10.14 1.6a.502.502 0 00-.221.98l.221-.98zm9.801 2.96c.272.05.531-.13.577-.4a.495.495 0 00-.408-.58l-.169.98zm10.297.5a.503.503 0 00-.558.44c-.034.27.161.52.435.55l.123-.99zm10.019 2.04c.275.03.517-.18.541-.45a.495.495 0 00-.456-.54l-.085.99zm10.255-.3a.49.49 0 00-.525.47.49.49 0 00.473.52l.052-.99zm10.187 1.38a.51.51 0 00.512-.49.492.492 0 00-.488-.51l-.024 1zm10.245-.89c-.276 0-.5.23-.499.5 0 .28.224.5.5.5l-.001-1zm10.236.89a.506.506 0 00.489-.51.495.495 0 00-.51-.49l.021 1zm10.178-1.32a.504.504 0 00-.48.52c.011.28.243.49.519.48l-.039-1zm10.238.51a.494.494 0 00.472-.52.509.509 0 00-.527-.48l.055 1zm10.117-1.64a.501.501 0 00.07 1l-.07-1zm10.256.22c.275-.02.48-.26.457-.54a.502.502 0 00-.54-.46l.083 1zm10.105-1.9a.5.5 0 00-.451.54c.026.28.27.48.544.46l-.093-1zm10.322-.02a.504.504 0 00.445-.55.5.5 0 00-.549-.45l.104 1zm10.009-2.11a.503.503 0 00.114 1l-.114-1zm10.233-.2a.508.508 0 00.435-.56.51.51 0 00-.557-.44l.122 1zm10.051-2.29a.508.508 0 00-.431.57c.036.27.287.46.56.43l-.129-1zm10.266-.37a.494.494 0 00.427-.56.51.51 0 00-.563-.43l.136.99zm9.932-2.41a.5.5 0 10.143.99l-.143-.99zm10.324-.51c.273-.05.461-.3.42-.57a.49.49 0 00-.569-.42l.149.99zm9.894-2.54c-.273.04-.46.3-.417.57.043.28.298.46.571.42l-.154-.99zm10.256-.62a.502.502 0 00-.16-.99l.16.99zm9.947-2.65a.494.494 0 00-.411.57c.046.28.303.46.576.42l-.165-.99zm10.198-.72a.49.49 0 00.408-.57.5.5 0 00-.577-.41l.169.98zm9.971-2.75a.503.503 0 00.173.99l-.173-.99zm10.156-.79a.498.498 0 10-.177-.98l.177.98zm9.968-2.83a.499.499 0 10.181.98l-.181-.98zm10.135-.87c.271-.06.45-.32.399-.59a.503.503 0 00-.584-.4l.185.99zm9.943-2.91a.5.5 0 10.188.98l-.188-.98zm10.135-.94a.499.499 0 10-.191-.98l.191.98zm9.901-2.96a.497.497 0 00-.394.59c.054.27.317.44.588.39l-.194-.98zm10.161-1.01a.499.499 0 10-.197-.98l.197.98zm9.842-3.01a.498.498 0 00-.39.59c.055.27.32.44.59.39l-.2-.98zm10.774-1.102a.5.5 0 00-.171-.985l.171.985zm10.93-2.571a.5.5 0 00.112.994l-.112-.994zm11.231.082a.504.504 0 00.47-.525.495.495 0 00-.52-.473l.05.998zm11.16-1.236a.502.502 0 00-.51.496c0 .276.22.502.5.504l.01-1zm11.13 1.457c.28.02.51-.187.53-.462a.495.495 0 00-.46-.535l-.07.997zm11.23.184a.503.503 0 00-.57.426c-.04.273.15.526.43.564l.14-.99zm10.84 2.916c.27.05.53-.12.59-.39a.494.494 0 00-.38-.592l-.21.982zm11.09 1.74a.514.514 0 00-.62.34c-.08.27.08.55.34.62l.28-.96zm9.49 4.14c.26.09.54-.05.63-.31a.501.501 0 00-.3-.64l-.33.95zm9.17 2.3c-.25-.1-.54.03-.64.29-.1.26.02.55.28.65l.36-.94zm8.3 4.53c.26.12.55 0 .66-.25.12-.25 0-.55-.25-.66l-.41.91zm8.91 3.18a.502.502 0 00-.46.89l.46-.89zm7.68 5.53c.24.14.54.07.69-.16a.5.5 0 00-.16-.69l-.53.85zm8.31 4.51a.496.496 0 00-.7.09c-.16.22-.12.53.1.7l.6-.79zm6.52 6.84c.2.19.52.18.71-.02.19-.2.18-.51-.02-.7l-.69.72zm7.15 6.2a.487.487 0 00-.7-.07c-.22.17-.25.49-.07.7l.77-.63zm5.16 8.86c.15.23.46.3.7.15a.51.51 0 00.15-.69l-.85.54zm6.35 9.06a.511.511 0 00-.67-.22c-.25.13-.35.43-.22.68l.89-.46zm3.61 10.46c.1.26.39.38.65.28.26-.1.38-.39.28-.65l-.93.37zm4.54 10.09a.514.514 0 00-.62-.34c-.27.08-.42.36-.34.63l.96-.29zm1.72 10.93a.5.5 0 10.98-.2l-.98.2zm2.81 10.7a.503.503 0 00-.56-.43.5.5 0 00-.44.56l1-.13zm-.01 11.07c.02.27.25.49.53.47a.49.49 0 00.47-.53l-1 .06zm1.21 10.99c.01-.27-.21-.5-.49-.51-.28 0-.5.22-.51.5l1 .01zm-1.64 10.24c-.03.27.17.52.44.56.27.03.52-.16.56-.44l-1-.12zm-.58 9.66a.493.493 0 00-.38-.59.505.505 0 00-.6.39l.98.2zm-3.22 9.13c-.08.26.08.54.35.61.26.07.54-.08.61-.35l-.96-.26zm-1.84 9.5a.51.51 0 00-.32-.63.493.493 0 00-.63.32l.95.31zm-4.15 8.75c-.09.26.04.55.3.64.26.1.54-.03.64-.29l-.94-.35zm-2.56 9.34c.1-.26-.02-.55-.28-.66-.25-.1-.54.03-.65.28l.93.38zm-4.6 8.51c-.11.26.01.55.26.66.26.1.55-.01.66-.27l-.92-.39zm-2.85 9.26a.503.503 0 00-.26-.66.503.503 0 00-.66.26l.92.4zm-6.31-4.04c.11.26.4.38.65.27.26-.1.38-.39.27-.65l-.92.38zm3.26 5.26c-.1-.26-.4-.38-.65-.27-.26.11-.38.4-.27.65l.92-.38zm3.88 2.02c.25-.13.36-.43.23-.67a.492.492 0 00-.66-.23l.43.9zm5.48-3.79a.5.5 0 10.44.9l-.44-.9zM1.24 151.255c1.528-.834 3.038-1.65 4.53-2.448l-.47-.882a626.57 626.57 0 00-4.54 2.452l.48.878zm13.282-7.024a462.31 462.31 0 018.79-4.377l-.435-.9a462.614 462.614 0 00-8.81 4.387l.455.89zm17.7-8.563a342.673 342.673 0 019.07-3.968l-.386-.922a343.285 343.285 0 00-9.097 3.98l.414.91zm18.016-7.551a237.111 237.111 0 019.44-3.372l-.315-.948a235.023 235.023 0 00-9.48 3.386l.355.934zm18.854-6.245a154.017 154.017 0 019.495-2.314l-.205-.978a154.04 154.04 0 00-9.556 2.328l.266.964zm19.138-3.942a96.065 96.065 0 019.783-.749l-.023-1a97.124 97.124 0 00-9.885.757l.125.992zm19.588-.378c3.423.354 6.614.935 9.616 1.698l.246-.97a67.943 67.943 0 00-9.76-1.723l-.102.995zm18.855 4.792c3.098 1.295 6.005 2.771 8.791 4.356l.495-.869c-2.815-1.601-5.759-3.097-8.9-4.41l-.386.923zm17.127 9.546c2.778 1.844 5.429 3.678 8.181 5.513l.555-.833c-2.694-1.795-5.443-3.694-8.183-5.513l-.553.833zm16.569 10.757c2.842 1.618 5.791 3.102 8.928 4.365l.373-.927c-3.086-1.243-5.995-2.706-8.806-4.307l-.495.869zm18.38 7.279a59.047 59.047 0 009.887 1.258l.044-.999a57.886 57.886 0 01-9.72-1.237l-.211.978zm19.807.97a91.278 91.278 0 009.765-1.505l-.204-.979a90.488 90.488 0 01-9.658 1.489l.097.995zm19.389-3.942a155.847 155.847 0 009.42-3.13l-.344-.939a155.494 155.494 0 01-9.36 3.11l.284.959zm18.481-6.713a248.221 248.221 0 008.995-4.022l-.426-.905a246.81 246.81 0 01-8.958 4.006l.389.921zm18.064-8.478a369.995 369.995 0 008.509-4.496l-.478-.878a366.056 366.056 0 01-8.486 4.483l.455.891zm17.249-9.39a520.506 520.506 0 008.388-4.93l-.514-.858a508.39 508.39 0 01-8.372 4.921l.498.867zm16.939-10.164a667.156 667.156 0 008.184-5.185l-.541-.841a685.548 685.548 0 01-8.172 5.178l.529.848zm16.711-10.753c2.596-1.72 5.24-3.491 7.934-5.318l-.562-.828a872.873 872.873 0 01-7.924 5.312l.552.834zm16.167-10.965a1094.02 1094.02 0 004.231-2.949l-.574-.819a1070.27 1070.27 0 01-4.227 2.947l.57.821zm4.231-2.949a666.832 666.832 0 014.051-2.815l-.567-.824a639.043 639.043 0 00-4.058 2.82l.574.82zm12.134-8.295a614.214 614.214 0 018.172-5.356l-.541-.84a616.266 616.266 0 00-8.186 5.364l.555.832zm16.417-10.572c2.79-1.733 5.574-3.43 8.351-5.091l-.513-.858a582.117 582.117 0 00-8.366 5.1l.528.85zm16.752-10.018a551.664 551.664 0 018.536-4.807l-.483-.876a548.177 548.177 0 00-8.551 4.816l.498.867zm17.086-9.42a511.52 511.52 0 018.724-4.5l-.45-.893a518.033 518.033 0 00-8.741 4.508l.467.885zm17.454-8.791a484.952 484.952 0 018.873-4.144l-.414-.91a483.171 483.171 0 00-8.891 4.152l.432.902zm17.799-8.092a448.61 448.61 0 018.993-3.751l-.375-.927a453.07 453.07 0 00-9.013 3.76l.395.918zm18.112-7.322a423.152 423.152 0 019.138-3.34l-.333-.943a423.512 423.512 0 00-9.159 3.348l.354.935zm18.403-6.482a392.911 392.911 0 019.327-2.91l-.286-.958a394.472 394.472 0 00-9.351 2.917l.31.951zm18.676-5.57a364.82 364.82 0 019.49-2.432l-.235-.972a364.786 364.786 0 00-9.516 2.439l.261.965zm19.011-4.597c3.201-.68 6.382-1.31 9.542-1.887l-.179-.984c-3.171.58-6.361 1.21-9.571 1.893l.208.978zm19.19-3.501c3.25-.493 6.477-.932 9.681-1.315l-.119-.993c-3.214.385-6.452.824-9.712 1.32l.15.988zm19.373-2.318c3.264-.284 6.502-.51 9.714-.68l-.053-.998c-3.223.17-6.473.397-9.748.682l.087.996zm19.49-1.024c3.284-.057 6.538-.053 9.761.01l.02-1a265.375 265.375 0 00-9.798-.01l.017 1zm19.5.387c3.27.19 6.505.443 9.706.758l.098-.995a245.07 245.07 0 00-9.746-.761l-.058.998zm19.397 1.915c3.252.459 6.465.983 9.638 1.572l.182-.984a224.898 224.898 0 00-9.68-1.578l-.14.99zm19.186 3.568a206.58 206.58 0 019.439 2.435l.273-.963a207.147 207.147 0 00-9.485-2.446l-.227.974zm18.747 5.32a191.83 191.83 0 019.15 3.344l.367-.93a192.351 192.351 0 00-9.198-3.363l-.319.948zm18.113 7.157a179.062 179.062 0 018.752 4.29l.464-.886a180.122 180.122 0 00-8.8-4.313l-.416.91zm17.257 9.057a169.844 169.844 0 018.219 5.241l.562-.827a170.988 170.988 0 00-8.267-5.272l-.514.858zm16.118 10.948a163.147 163.147 0 017.546 6.163l.656-.755a164.45 164.45 0 00-7.593-6.2l-.609.792zM698.71 52.66a160.905 160.905 0 016.749 7.025l.741-.67a160.675 160.675 0 00-6.79-7.07l-.7.715zm13.057 14.448a164.328 164.328 0 012.985 3.856l.8-.6a163.305 163.305 0 00-3.004-3.88l-.781.624zm3.226 3.082a449.812 449.812 0 00-4.68 1.593l.327.945c1.543-.535 3.1-1.065 4.67-1.59l-.317-.948zm-13.91 4.907a408.712 408.712 0 00-9.151 3.526l.371.929a406.34 406.34 0 019.129-3.518l-.349-.938zm-18.214 7.28a352.945 352.945 0 00-8.961 3.996l.42.907a351.525 351.525 0 018.936-3.984l-.395-.919zm-17.805 8.25a297.22 297.22 0 00-8.705 4.533l.477.88a295.435 295.435 0 018.676-4.518l-.448-.894zm-17.245 9.363a243.848 243.848 0 00-8.341 5.15l.543.84a241.966 241.966 0 018.307-5.129l-.509-.86zm-16.46 10.659a188.942 188.942 0 00-7.869 5.916l.622.783a188.698 188.698 0 017.827-5.885l-.58-.814zm-15.376 12.241a141.707 141.707 0 00-7.095 6.803l.717.697a141.041 141.041 0 017.045-6.755l-.667-.745zm-13.661 14.126a100.324 100.324 0 00-5.893 7.892l.831.557a99.442 99.442 0 015.834-7.814l-.772-.635zm-10.898 16.362a69.592 69.592 0 00-3.874 9.058l.946.325a68.61 68.61 0 013.818-8.928l-.89-.455zm-6.311 18.623a52.671 52.671 0 00-.704 9.854l1-.024a51.63 51.63 0 01.691-9.667l-.987-.163zm.492 19.66a53.162 53.162 0 003.042 9.394l.919-.393a52.21 52.21 0 01-2.985-9.218l-.976.217zm7.68 18.11a67.87 67.87 0 002.814 4.062l.802-.598a66.882 66.882 0 01-2.774-4.003l-.842.539zm2.814 4.062a255.765 255.765 0 003.183 4.171l.789-.615a253.684 253.684 0 01-3.17-4.154l-.802.598zm9.489 11.916a194.245 194.245 0 006.875 7.658l.725-.688a193.807 193.807 0 01-6.839-7.618l-.761.648zm14.104 14.824c2.585 2.4 5.145 4.603 7.679 6.615l.622-.784a130.208 130.208 0 01-7.621-6.564l-.68.733zm15.907 12.548a84.182 84.182 0 008.847 5.027l.439-.899a83.142 83.142 0 01-8.742-4.967l-.544.839zm18.314 8.814c3.392 1.056 6.714 1.761 9.963 2.139l.115-.993c-3.184-.371-6.446-1.063-9.781-2.101l-.297.955zm20.14 2.255a46.587 46.587 0 0010.002-2.091l-.31-.951a45.583 45.583 0 01-9.788 2.047l.096.995zm19.33-6.236c2.915-1.657 5.718-3.607 8.402-5.818l-.636-.772c-2.642 2.177-5.398 4.094-8.261 5.721l.495.869zm15.757-12.838a87.579 87.579 0 006.404-7.911l-.812-.584a86.643 86.643 0 01-6.33 7.821l.738.674zm11.933-16.461a121.64 121.64 0 004.736-9.012l-.903-.429a120.939 120.939 0 01-4.697 8.938l.864.503zm8.75-18.362a152.607 152.607 0 003.347-9.602l-.955-.298a151.022 151.022 0 01-3.325 9.539l.933.361zm6.068-19.388a171.475 171.475 0 002.125-9.932l-.984-.181c-.61 3.33-1.315 6.626-2.112 9.875l.971.238zm3.667-19.972c.417-3.356.738-6.732.961-10.113l-.998-.066a175.77 175.77 0 01-.955 10.055l.992.124zm1.331-20.266c.024-3.397-.055-6.788-.24-10.158l-.998.055c.183 3.349.261 6.719.238 10.096l1 .007zm-1.122-20.283a143.293 143.293 0 00-1.567-10.045l-.982.189c.633 3.28 1.151 6.609 1.557 9.976l.992-.12zm-3.875-19.951a117.259 117.259 0 00-3.115-9.685l-.938.348a116.047 116.047 0 013.089 9.603l.964-.266zm-7.111-19.045a94.574 94.574 0 00-2.341-4.498l-.875.486a92.41 92.41 0 012.317 4.45l.899-.438zm-2.345-4.505a163.01 163.01 0 00-2.532-4.251l-.852.524a161.214 161.214 0 012.517 4.226l.867-.499zm-7.976-12.515c-.95-1.351-1.92-2.686-2.908-4.004l-.8.6c.982 1.31 1.946 2.636 2.89 3.979l.818-.575zM564.72 804.174a90.603 90.603 0 01-2.453-3.114l-.799.601a90.66 90.66 0 002.48 3.148l.772-.635zm-6.899-9.667a68.79 68.79 0 01-1.952-3.442l-.884.468a69.569 69.569 0 001.981 3.492l.855-.518zm-1.952-3.442a88.154 88.154 0 01-2.151-4.355l-.908.418a88.84 88.84 0 002.175 4.405l.884-.468zm-5.78-13.377a121.857 121.857 0 01-2.835-9.312l-.967.253a122.66 122.66 0 002.858 9.389l.944-.33zm-4.966-18.816a149.62 149.62 0 01-1.485-9.629l-.993.121a151.02 151.02 0 001.495 9.693l.983-.185zm-2.356-19.334c-.19-3.247-.279-6.501-.266-9.74l-1-.004c-.013 3.26.076 6.535.267 9.802l.999-.058zm.088-19.475c.113-1.628.252-3.246.419-4.853l-.995-.103a144.243 144.243 0 00-.422 4.887l.998.069zm.419-4.853c.163-1.567.361-3.131.593-4.689l-.989-.148a108.891 108.891 0 00-.599 4.734l.995.103zm2.395-13.968a113.38 113.38 0 012.586-9.094l-.95-.313a114.422 114.422 0 00-2.608 9.174l.972.233zm5.911-17.946a120.276 120.276 0 014.019-8.561l-.888-.46a121.427 121.427 0 00-4.053 8.632l.922.389zm8.691-16.784a124.78 124.78 0 015.287-7.843l-.807-.59a125.494 125.494 0 00-5.33 7.906l.85.527zm11.154-15.262c2.05-2.4 4.191-4.72 6.414-6.952l-.709-.706a125.364 125.364 0 00-6.465 7.008l.76.65zm13.342-13.39a118.83 118.83 0 013.648-3.01l-.622-.784a120.796 120.796 0 00-3.677 3.036l.651.758zm3.648-3.01a130.12 130.12 0 011.918-1.494l-.608-.795c-.629.482-1.274.983-1.932 1.505l.622.784zm5.833-4.374a86.509 86.509 0 012.001-1.371l-.554-.833c-.631.42-1.308.883-2.023 1.386l.576.818zm2.019-1.384a259.657 259.657 0 014.276-3.052l-.573-.82a266.095 266.095 0 00-4.293 3.064l.59.808zm13.003-8.939a442.368 442.368 0 018.885-5.647l-.526-.85a442.84 442.84 0 00-8.906 5.66l.547.837zm17.893-11.105a635.91 635.91 0 019.106-5.298l-.496-.868a624.703 624.703 0 00-9.12 5.306l.51.86zm18.294-10.453a749.449 749.449 0 019.261-5.022l-.47-.882a731.46 731.46 0 00-9.274 5.029l.483.875zm18.593-9.913a705.622 705.622 0 019.398-4.756l-.445-.895a707.43 707.43 0 00-9.411 4.762l.458.889zm18.871-9.361a516.178 516.178 0 014.761-2.235l-.42-.907a505.98 505.98 0 00-4.77 2.239l.429.903zm4.761-2.235c1.618-.749 3.23-1.485 4.837-2.208l-.411-.912a532.792 532.792 0 00-4.846 2.213l.42.907zm14.577-6.475a522.318 522.318 0 019.825-4.067l-.373-.928a524.35 524.35 0 00-9.844 4.075l.392.92zm19.728-7.939a586.527 586.527 0 019.976-3.683l-.338-.941c-3.32 1.192-6.65 2.42-9.993 3.69l.355.934zm20.016-7.191a717.762 717.762 0 0110.095-3.347l-.308-.951a702.918 702.918 0 00-10.11 3.352l.323.946zm20.237-6.553c1.694-.524 3.389-1.043 5.085-1.558l-.29-.957c-1.698.515-3.395 1.035-5.091 1.559l.296.956zm5.085-1.558c1.574-.477 3.15-.949 4.727-1.417l-.285-.958a884.6 884.6 0 00-4.732 1.418l.29.957zm14.204-4.166a898.528 898.528 0 019.509-2.641l-.263-.965a907.15 907.15 0 00-9.519 2.644l.273.962zm19.046-5.179c3.183-.83 6.37-1.644 9.562-2.443l-.243-.97c-3.195.8-6.385 1.614-9.572 2.445l.253.968zm19.147-4.796c3.198-.771 6.4-1.527 9.605-2.271l-.226-.974c-3.208.744-6.412 1.501-9.614 2.272l.235.973zm19.228-4.465c3.211-.72 6.424-1.427 9.64-2.125l-.212-.977c-3.218.698-6.434 1.406-9.646 2.126l.218.976zm19.293-4.186c3.22-.677 6.442-1.345 9.666-2.004l-.201-.98c-3.225.66-6.449 1.328-9.671 2.006l.206.978zm19.342-3.959c3.227-.644 6.455-1.281 9.685-1.911l-.191-.982c-3.231.631-6.461 1.268-9.69 1.912l.196.981zm19.378-3.786c3.232-.62 6.465-1.234 9.699-1.845l-.185-.983c-3.235.611-6.469 1.226-9.702 1.846l.188.982zm19.403-3.666c3.235-.604 6.471-1.206 9.707-1.805l-.182-.983c-3.237.599-6.473 1.201-9.709 1.805l.184.983zm19.416-3.6l4.855-.896-.181-.983-4.855.896.181.983zm4.855-.896l.359-.066-.181-.983-.359.066.181.983zm1.076-.198l.359-.066-.181-.984-.359.067.181.983zm.359-.066c1.708-.315 3.423-.634 5.143-.958l-.185-.982c-1.719.322-3.432.641-5.139.956l.181.984zm15.422-2.926c3.412-.666 6.836-1.347 10.265-2.044l-.199-.98c-3.426.696-6.848 1.377-10.257 2.042l.191.982zm20.513-4.171c3.416-.724 6.828-1.463 10.23-2.217l-.217-.976c-3.398.753-6.808 1.492-10.22 2.215l.207.978zm20.438-4.534a922.325 922.325 0 0010.185-2.43l-.24-.971c-3.37.824-6.76 1.633-10.172 2.427l.227.974zm20.335-4.985c3.41-.884 6.79-1.783 10.11-2.699l-.26-.964c-3.32.914-6.69 1.813-10.1 2.695l.25.968zm20.19-5.564c1.68-.496 3.35-.997 5.01-1.502l-.29-.956c-1.65.504-3.32 1.004-5.01 1.499l.29.959zm5.01-1.502a181.89 181.89 0 004.96-1.589l-.32-.948c-1.64.551-3.28 1.078-4.93 1.581l.29.956zm14.73-5.179c3.22-1.282 6.4-2.654 9.56-4.112l-.42-.908a193.703 193.703 0 01-9.51 4.091l.37.929zm18.9-8.72c3.06-1.614 6.09-3.309 9.08-5.081l-.51-.86c-2.97 1.763-5.99 3.45-9.04 5.056l.47.885zm17.9-10.615c2.89-1.918 5.73-3.91 8.52-5.97l-.59-.805a205.148 205.148 0 01-8.49 5.941l.56.834zm16.74-12.36c2.68-2.201 5.31-4.469 7.88-6.798l-.67-.74a204.206 204.206 0 01-7.85 6.764l.64.774zm15.4-13.99a192.18 192.18 0 007.14-7.577l-.74-.666c-2.3 2.569-4.67 5.083-7.11 7.538l.71.705zm13.86-15.527c1.09-1.357 2.15-2.728 3.2-4.111l-.8-.602c-1.04 1.375-2.1 2.738-3.18 4.088l.78.625zm3.2-4.111c.81-1.078 1.85-2.389 3.07-3.957l-.79-.614c-1.21 1.558-2.26 2.883-3.08 3.969l.8.602zm9.07-12.038c1.75-2.495 3.62-5.3 5.52-8.426l-.85-.521c-1.9 3.106-3.75 5.893-5.49 8.373l.82.574zm10.48-17.192c.76-1.45 1.51-2.951 2.26-4.505l-.9-.433a131.3 131.3 0 01-2.25 4.475l.89.463zm2.26-4.505c.69-1.436 1.36-2.88 2.02-4.332l-.91-.411c-.65 1.444-1.32 2.881-2.01 4.31l.9.433zm5.75-13.132a234.44 234.44 0 003.33-8.959l-.95-.327a216.55 216.55 0 01-3.31 8.917l.93.369zm6.26-18.051c.92-3.047 1.78-6.115 2.57-9.202l-.96-.25c-.8 3.074-1.65 6.13-2.56 9.164l.95.288zm4.79-18.495c.68-3.106 1.31-6.229 1.88-9.364l-.98-.181c-.57 3.125-1.2 6.236-1.88 9.331l.98.214zm3.45-18.785c.48-3.145.9-6.301 1.28-9.465l-.99-.119c-.38 3.154-.8 6.3-1.28 9.435l.99.149zm2.28-18.961c.29-3.168.54-6.342.75-9.519l-1-.065c-.21 3.168-.46 6.334-.74 9.493l.99.091zm1.26-19.052c.13-3.181.22-6.362.29-9.542l-1-.019c-.07 3.172-.16 6.346-.29 9.519l1 .042zm.37-19.087c0-3.186-.04-6.368-.1-9.544l-1 .02c.06 3.17.1 6.345.1 9.525l1-.001zm-.38-19.084c-.06-1.591-.12-3.181-.19-4.767l-1 .045c.07 1.584.13 3.171.19 4.76l1-.038zm-.19-4.767c-.08-1.691-.18-3.382-.29-5.073l-1 .066c.12 1.684.21 3.368.29 5.052l1-.045zm-1.17-15.2c-.37-3.367-.81-6.728-1.32-10.08l-.99.152c.51 3.337.95 6.684 1.31 10.037l1-.109zm-3.1-20.091c-.66-3.322-1.4-6.629-2.23-9.919l-.97.243c.82 3.274 1.56 6.566 2.22 9.873l.98-.197zm-4.93-19.719c-.99-3.242-2.05-6.461-3.2-9.654l-.94.338c1.14 3.177 2.2 6.38 3.18 9.605l.96-.289zm-6.88-19.131a190.27 190.27 0 00-4.19-9.268l-.9.437a179.1 179.1 0 014.16 9.218l.93-.387zm-8.88-18.292a177.256 177.256 0 00-5.19-8.748l-.84.535a175.69 175.69 0 015.16 8.698l.87-.485zm-10.87-17.184a174.41 174.41 0 00-6.16-8.093l-.78.629a180.33 180.33 0 016.13 8.046l.81-.582zm-12.79-15.812c-2.27-2.489-4.62-4.93-7.07-7.32l-.7.716a166.09 166.09 0 017.03 7.277l.74-.673zm-14.55-14.216a176.155 176.155 0 00-7.86-6.458l-.61.79c2.69 2.088 5.3 4.23 7.82 6.422l.65-.754zm-16.06-12.467a188.292 188.292 0 00-8.52-5.554l-.52.852a186.99 186.99 0 018.47 5.525l.57-.823zm-17.3-10.654a216.146 216.146 0 00-9.03-4.653l-.44.9c3.07 1.49 6.07 3.034 8.99 4.63l.48-.877zm-18.27-8.868c-3.07-1.316-6.22-2.58-9.43-3.792l-.35.936c3.2 1.206 6.33 2.465 9.38 3.775l.4-.92zm-19.01-7.176a257.996 257.996 0 00-9.73-2.994l-.27.961c3.29.944 6.52 1.939 9.69 2.983l.31-.95zm-19.58-5.617c-3.23-.796-6.52-1.546-9.87-2.248l-.21.978c3.34.7 6.62 1.448 9.84 2.241l.24-.97zm-19.83-4.16c-3.29-.577-6.64-1.11-10.04-1.597l-.14.99c3.39.485 6.73 1.016 10.01 1.591l.17-.985zm-20.168-2.894c-3.3-.373-6.65-.706-10.051-.996l-.085.996c3.391.29 6.732.622 10.024.994l.112-.994zm-20.171-1.726a413.123 413.123 0 00-10.204-.476l-.034 1c3.44.118 6.833.276 10.179.474l.059-.998zm-20.3-.705c-1.705-.02-3.42-.03-5.147-.03v1c1.723 0 3.435.01 5.136.03l.011-1zm-5.147-.03c-1.672 0-3.338.005-4.999.012l.004 1c1.66-.007 3.325-.011 4.995-.011v-1zm-14.971.106c-3.345.047-6.668.11-9.969.188l.024 1c3.298-.078 6.618-.141 9.959-.188l-.014-1zm-19.933.474c-3.346.113-6.668.241-9.967.386l.043.999c3.296-.145 6.615-.273 9.958-.386l-.034-.999zm-19.935.873a941.15 941.15 0 00-9.959.593l.065.998c3.291-.214 6.607-.411 9.948-.592l-.054-.999zm-19.907 1.292c-3.338.253-6.65.523-9.935.808l.086.997c3.282-.286 6.59-.555 9.924-.808l-.075-.997zm-19.868 1.73c-3.337.33-6.646.676-9.926 1.04l.11.993c3.276-.362 6.581-.708 9.915-1.037l-.099-.995zm-19.832 2.197c-3.325.409-6.619.835-9.883 1.279l.135.99a811.54 811.54 0 019.87-1.277l-.122-.992zm-19.768 2.688a739.416 739.416 0 00-9.856 1.538l.161.987c3.248-.53 6.529-1.042 9.843-1.536l-.148-.99zm-19.682 3.21a685.403 685.403 0 00-9.819 1.816l.189.982a684.839 684.839 0 019.805-1.813l-.175-.985zm-19.594 3.773a634.16 634.16 0 00-9.757 2.112l.22.975a629.53 629.53 0 019.741-2.107l-.204-.98zm-19.468 4.378a574.505 574.505 0 00-9.681 2.431l.252.968a574.413 574.413 0 019.664-2.427l-.235-.972zm-19.306 5.031a519.461 519.461 0 00-9.591 2.783l.288.958a521.217 521.217 0 019.572-2.778l-.269-.963zm-19.113 5.75a477.545 477.545 0 00-4.734 1.556l.317.948c1.561-.522 3.136-1.04 4.724-1.552l-.307-.952zM564.815 804.626a339.495 339.495 0 011.606-5.585l-.958-.285a325.413 325.413 0 00-1.611 5.602l.963.268zm5.16-16.64c1.324-3.791 2.715-7.416 4.182-10.821l-.918-.396c-1.478 3.431-2.878 7.079-4.208 10.887l.944.33zm9.314-21.194a64.17 64.17 0 013.092-4.871l-.818-.576a65.313 65.313 0 00-3.14 4.948l.866.499zm3.092-4.871a159.326 159.326 0 013.33-4.568l-.798-.603a162.115 162.115 0 00-3.35 4.595l.818.576zm10.551-13.224c2.642-2.837 5.363-5.391 8.224-7.664l-.622-.783c-2.905 2.308-5.662 4.897-8.334 7.766l.732.681zm17.612-13.807a59.495 59.495 0 0110.381-4.244l-.291-.957a60.493 60.493 0 00-10.555 4.316l.465.885zm21.362-6.642a91.532 91.532 0 015.606-.617l-.08-.997a92.91 92.91 0 00-5.667.624l.141.99zm5.606-.617a94.737 94.737 0 014.512-.253l-.033-1a96.803 96.803 0 00-4.559.256l.08.997zm13.519-.083c3.118.226 6.092.624 8.92 1.172l.191-.981a76.416 76.416 0 00-9.039-1.188l-.072.997zm17.617 3.466a58.625 58.625 0 018.264 3.514l.462-.887a59.586 59.586 0 00-8.405-3.574l-.321.947zm15.839 8.315a45.557 45.557 0 016.556 6.096l.751-.661a46.72 46.72 0 00-6.699-6.23l-.608.795zm11.672 13.418a33.684 33.684 0 011.845 4.061l.936-.351a34.632 34.632 0 00-1.9-4.182l-.881.472zm1.845 4.061a108.117 108.117 0 011.631 4.669l.951-.308c-.51-1.578-1.06-3.149-1.646-4.712l-.936.351zm4.213 14.204a87.452 87.452 0 011.561 9.745l.995-.101a88.33 88.33 0 00-1.579-9.856l-.977.212zm1.929 19.599a64.8 64.8 0 01-1.02 9.794l.984.181a65.977 65.977 0 001.036-9.945l-1-.03zm-3.608 19.281a52.589 52.589 0 01-4.245 8.857l.857.515a53.556 53.556 0 004.326-9.026l-.938-.346zm-10.073 16.764a56.668 56.668 0 01-7.167 6.731l.621.785a57.669 57.669 0 007.292-6.851l-.746-.665zm-15.337 12.222a74.527 74.527 0 01-4.375 2.305l.438.9a75.943 75.943 0 004.433-2.337l-.496-.868zm-4.375 2.305a44.99 44.99 0 01-4.56 1.911l.335.942a45.966 45.966 0 004.663-1.953l-.438-.9zm-14.167 4.28c-3.207.477-6.516.685-9.897.646l-.012 1c3.43.04 6.793-.172 10.056-.657l-.147-.989zm-19.807-.134a92.643 92.643 0 01-9.758-1.944l-.247.969c3.303.84 6.599 1.5 9.864 1.965l.141-.99zm-19.282-4.855a119.664 119.664 0 01-9.24-3.737l-.413.911a121.042 121.042 0 009.318 3.769l.335-.943zm-18.15-8.204a131.613 131.613 0 01-8.543-5.137l-.548.836a132.04 132.04 0 008.609 5.177l.482-.876zm-16.671-10.912a121.107 121.107 0 01-7.638-6.396l-.673.74a122.395 122.395 0 007.7 6.448l.611-.792zm-14.696-13.43a96.548 96.548 0 01-3.26-3.754l-.772.635a98.676 98.676 0 003.293 3.794l.739-.675zm-4.128-3.57a503.54 503.54 0 00-.564 2.049l.965.263c.186-.684.374-1.365.562-2.044l-.963-.268zm-1.658 6.158c-.179.684-.356 1.37-.532 2.058l.969.247c.176-.685.352-1.37.531-2.053l-.968-.252zm-.532 2.058c-.392 1.534-.788 3.073-1.185 4.614l.968.25c.397-1.542.793-3.081 1.186-4.617l-.969-.247zm-3.565 13.845c-.789 3.07-1.576 6.152-2.35 9.243l.97.243c.774-3.088 1.559-6.168 2.348-9.237l-.968-.249zm-4.621 18.508a576.622 576.622 0 00-2.141 9.297l.976.216a579.602 579.602 0 012.138-9.281l-.973-.232zm-4.104 18.637a343.613 343.613 0 00-1.732 9.389l.986.167a346.11 346.11 0 011.726-9.361l-.98-.195zm-3.176 18.827a240.139 240.139 0 00-1.097 9.49l.996.095c.298-3.148.666-6.299 1.092-9.451l-.991-.134zm-1.783 19.021c-.153 3.19-.226 6.376-.209 9.556l1-.006c-.017-3.16.056-6.328.208-9.502l-.999-.048zm.126 19.112c.209 3.181.519 6.355.941 9.517l.991-.132a142.43 142.43 0 01-.935-9.451l-.997.066zm2.546 18.949c.325 1.559.679 3.114 1.065 4.666l.971-.241a123.152 123.152 0 01-1.057-4.629l-.979.204zm1.065 4.666c.088.354.179.708.273 1.063l.967-.257c-.093-.35-.183-.698-.269-1.047l-.971.241zm.872 3.173c.105.349.213.698.325 1.048l.953-.304a75.82 75.82 0 01-.321-1.032l-.957.288zm.325 1.048a88.992 88.992 0 001.667 4.761l.934-.357a88.196 88.196 0 01-1.648-4.708l-.953.304zm5.766 13.97a101.196 101.196 0 005.028 8.734l.841-.541a100.174 100.174 0 01-4.978-8.648l-.891.455zm10.861 16.947a121.785 121.785 0 006.521 7.673l.735-.678a120.98 120.98 0 01-6.468-7.61l-.788.615zm13.623 14.808a145.77 145.77 0 007.593 6.605l.63-.774a146.623 146.623 0 01-7.541-6.562l-.682.731zm15.599 12.705c2.733 1.95 5.524 3.81 8.359 5.59l.532-.84a168.52 168.52 0 01-8.31-5.57l-.581.82zm17.02 10.71c1.471.81 2.948 1.61 4.431 2.38l.461-.89c-1.475-.77-2.945-1.56-4.407-2.37l-.485.88zm4.431 2.38c1.489.77 3.017 1.53 4.591 2.27l.425-.91c-1.561-.73-3.077-1.48-4.555-2.25l-.461.89zm14.032 6.25c3.066 1.16 6.299 2.25 9.728 3.26l.283-.96a144.775 144.775 0 01-9.658-3.23l-.353.93zm19.647 5.84c3.18.72 6.515 1.39 10.022 1.98l.169-.98c-3.491-.6-6.808-1.26-9.97-1.98l-.221.98zm20.196 3.47c3.243.41 6.621.76 10.142 1.05l.085-.99c-3.51-.3-6.874-.65-10.104-1.05l-.123.99zm20.345 1.74c3.295.18 6.706.3 10.239.39l.024-1c-3.525-.09-6.926-.21-10.211-.38l-.052.99zm20.485.5c3.311 0 6.721-.04 10.235-.11l-.021-1c-3.508.07-6.911.11-10.215.11l.001 1zm20.452-.43c3.313-.13 6.711-.29 10.199-.49l-.055-1c-3.483.2-6.876.36-10.183.49l.039 1zm20.386-1.13a724.8 724.8 0 0010.186-.78l-.083-1c-3.469.29-6.859.55-10.173.78l.07 1zm20.384-1.68c3.341-.32 6.75-.66 10.229-1.02l-.104-1c-3.476.37-6.882.7-10.218 1.02l.093 1zm20.352-2.13c3.311-.38 6.684-.78 10.119-1.2l-.122-1c-3.432.43-6.802.83-10.111 1.2l.114 1zm20.299-2.49c3.324-.44 6.702-.89 10.137-1.37l-.136-.99c-3.433.48-6.809.93-10.13 1.36l.129 1zm20.212-2.79c3.342-.48 6.735-.99 10.181-1.5l-.149-.99c-3.444.52-6.835 1.02-10.175 1.5l.143.99zm20.229-3.05c3.32-.52 6.687-1.06 10.102-1.61l-.16-.99c-3.413.56-6.778 1.09-10.096 1.61l.154.99zm20.214-3.27c3.301-.56 6.645-1.12 10.033-1.71l-.169-.98c-3.386.58-6.729 1.15-10.029 1.7l.165.99zm20.177-3.47c3.288-.58 6.616-1.17 9.983-1.78l-.177-.98c-3.367.6-6.693 1.2-9.979 1.77l.173.99zm20.132-3.63c3.281-.61 6.599-1.22 9.954-1.85l-.185-.99c-3.354.63-6.67 1.25-9.95 1.86l.181.98zm20.085-3.78c3.281-.63 6.597-1.27 9.947-1.92l-.191-.98c-3.349.65-6.664 1.29-9.944 1.92l.188.98zm20.042-3.9c3.29-.65 6.612-1.32 9.967-1.99l-.197-.98c-3.354.67-6.676 1.34-9.964 1.99l.194.98zm20.009-4.02c1.69-.35 3.388-.69 5.094-1.04l-.201-.984c-1.706.354-3.403.694-5.093 1.044l.2.98zm5.094-1.04c1.816-.38 3.644-.72 5.48-1.042l-.171-.985c-1.847.321-3.684.668-5.51 1.043l.201.984zm16.522-2.619c3.685-.414 7.399-.719 11.119-.912l-.05-.998c-3.75.193-7.476.5-11.181.916l.112.994zm22.269-1.148c3.72.036 7.43.187 11.14.457l.07-.997c-3.72-.272-7.46-.424-11.2-.46l-.01 1zm22.23 1.631c3.69.516 7.35 1.155 10.98 1.926l.21-.982a161.05 161.05 0 00-11.05-1.934l-.14.99zm21.79 4.626c1.79.52 3.56 1.08 5.32 1.66l.32-.95c-1.77-.59-3.56-1.14-5.36-1.67l-.28.96zm5.32 1.66c1.48.5 2.97 1 4.45 1.52l.33-.95c-1.49-.51-2.98-1.02-4.46-1.52l-.32.95zm13.26 4.76c2.92 1.13 5.82 2.33 8.66 3.59l.41-.91c-2.86-1.27-5.77-2.48-8.71-3.62l-.36.94zm17.11 7.66c2.78 1.45 5.5 2.99 8.14 4.64l.53-.85c-2.66-1.66-5.4-3.22-8.21-4.68l-.46.89zm15.85 9.94c2.48 1.89 4.86 3.9 7.12 6.05l.69-.72c-2.29-2.18-4.7-4.21-7.21-6.12l-.6.79zm13.5 12.88c.98 1.2 1.93 2.43 2.85 3.7l.81-.59c-.93-1.28-1.89-2.53-2.89-3.74l-.77.63zm2.85 3.7a91.93 91.93 0 013.08 4.53l.85-.54c-1.02-1.59-2.06-3.11-3.12-4.58l-.81.59zm8.54 14.05c1.6 3.15 3.11 6.48 4.5 10l.93-.37c-1.4-3.55-2.93-6.91-4.54-10.09l-.89.46zm8.08 20.38c1.01 3.4 1.91 6.95 2.68 10.64l.98-.2c-.77-3.72-1.68-7.3-2.7-10.73l-.96.29zm4.49 21.47c.46 3.53.79 7.18.99 10.94l1-.06c-.2-3.78-.54-7.45-.99-11.01l-1 .13zm1.2 21.92c-.02 1.81-.08 3.64-.17 5.5l1 .04c.09-1.86.15-3.71.17-5.53l-1-.01zm-.17 5.48c-.12 1.59-.27 3.18-.47 4.77l1 .12c.19-1.6.35-3.21.47-4.81l-1-.08zm-2.03 14.23c-.64 3.11-1.39 6.22-2.24 9.33l.96.26c.86-3.12 1.62-6.25 2.26-9.39l-.98-.2zm-5.03 18.52c-1 3.03-2.08 6.06-3.2 9.06l.94.35c1.12-3.01 2.2-6.05 3.21-9.1l-.95-.31zm-6.69 18.02c-1.2 2.99-2.44 5.96-3.67 8.89l.92.39c1.24-2.94 2.47-5.91 3.68-8.9l-.93-.38zm-7.44 17.75c-.63 1.49-1.26 2.97-1.88 4.44l.92.39c.62-1.47 1.25-2.95 1.88-4.43l-.92-.4zm-6.56-6.46l1.17 2.82.92-.38-1.17-2.82-.92.38zm3.51 8.46l1.17 2.82.92-.38-1.17-2.82-.92.38zm1.85 3.08l2.95-1.44-.43-.9-2.96 1.44.44.9zm8.87-4.33l2.95-1.45-.44-.9-2.95 1.45.44.9z" fill="#B6EFA1"/></svg>