<svg width="968" height="316" viewBox="0 0 968 316" fill="none" xmlns="http://www.w3.org/2000/svg">
<path d="M329.637 264.065C140.318 226.258 -163.484 130.995 136.394 45.1325C214.96 14.4246 389.119 -13.6576 472.967 111.367C477.651 118.351 482.711 125.205 488.954 130.84C563.923 198.52 621.344 172.469 647.545 143.831C653.194 137.656 656.557 129.88 660.119 122.315C687.355 64.4702 770.191 3.15667 924.094 152.081C1088.42 311.095 603.004 310.479 329.637 264.065Z" stroke="#DAEDD3" stroke-width="2"/>
<path d="M541.984 20.8398C548.15 24.3167 555.58 29.4103 564.447 36.6391C578.206 47.8571 598.531 53.8548 607.898 68.4409C612.076 74.9468 613.44 84.0572 608.466 96.4592C600.505 116.31 572.878 114.934 557.496 107.903C547.274 103.23 546.361 90.9246 541.707 81.3223C535.437 68.3857 523.83 53.6067 505.096 48.7152C493.44 45.6718 492.338 40.231 495.557 34.675C504.277 19.6204 526.512 12.1156 541.984 20.8398Z" stroke="#DAEDD3" stroke-width="2"/>
</svg>
