<svg width="1267" height="452" viewBox="0 0 1267 452" fill="none" xmlns="http://www.w3.org/2000/svg">
<path d="M332.618 385.065C143.298 347.258 -160.504 182.346 139.375 96.4842C217.971 65.7645 516.488 37.6726 606.908 162.862C611.832 169.679 616.712 176.684 623.439 181.733C718.754 253.257 949.858 149.581 970.868 118.295C1016.02 51.0647 1117.62 31.5647 1239.62 206.065C1370.65 393.478 605.985 431.479 332.618 385.065Z" stroke="#B235B5" stroke-opacity="0.25" stroke-width="2"/>
<path d="M688.244 72.8399C694.41 76.3168 701.841 81.4103 710.707 88.6392C724.466 99.8571 744.792 105.855 754.158 120.441C758.336 126.947 759.7 136.057 754.727 148.459C746.765 168.31 719.138 166.934 703.756 159.903C693.534 155.23 692.621 142.925 687.967 133.322C681.697 120.386 670.09 105.607 651.356 100.715C639.7 97.6718 638.598 92.231 641.817 86.6751C650.537 71.6205 672.772 64.1156 688.244 72.8399Z" stroke="#B235B5" stroke-opacity="0.25" stroke-width="2"/>
</svg>
