<svg width="332" height="319" viewBox="0 0 332 319" fill="none" xmlns="http://www.w3.org/2000/svg">
<path d="M17.6435 221.641C79.9976 259.387 83.9247 228.64 58.7476 204.658C34.8828 185.674 -20.7356 199.838 17.6435 221.641Z" stroke="#AC73F9" stroke-opacity="0.46" stroke-width="2"/>
<path d="M311.599 217.047C320.923 250.833 251.559 218.625 206.108 207.697C198.122 205.777 189.867 205.882 181.694 206.695C54.6534 219.33 46.9638 147.008 51.041 117.813C59.0676 60.3364 92.062 64.1074 133.442 90.4317C163.54 109.579 159.941 131.063 242.506 126.376C283.773 124.033 296.069 131.065 301.05 178.112C302.467 191.487 308.02 204.082 311.599 217.047Z" fill="#AC73F9" fill-opacity="0.24"/>
</svg>
