<svg width="673" height="179" viewBox="0 0 673 179" fill="none" xmlns="http://www.w3.org/2000/svg">
<path d="M657.798 77.3999C665.842 72.9374 676.352 61.3898 652.399 45.7707C642.635 39.4038 630.44 50.6609 627.591 70.5609C624.741 90.4609 646.542 83.4119 657.798 77.3999Z" stroke="#BEBEBE" stroke-width="2"/>
<path d="M282.959 56.2951C287.739 10.1651 206.546 19.3582 164.023 32.5658C32.9898 65.3367 -7.50946 93.2263 4.1053 117.95C23.299 158.806 111.043 179.237 182.671 170.089C239.524 162.828 188.205 127.715 279.446 131.247C324.783 133.002 333.923 102.452 292.722 78.0447C285.37 73.6892 282.078 64.7953 282.959 56.2951Z" stroke="#BEBEBE" stroke-width="2"/>
<path d="M436.967 120.217C399.166 48.7652 328.749 136.431 306.848 26.7744C305.639 20.7226 309.14 14.7326 315.075 13.0419C353.287 2.15655 440.025 -8.8667 551.626 16.3007C705.227 50.9394 475.908 193.824 436.967 120.217Z" stroke="#BEBEBE" stroke-width="2"/>
</svg>
