<svg width="277" height="156" viewBox="0 0 277 156" fill="none" xmlns="http://www.w3.org/2000/svg">
<path d="M170.729 86.3326C177.039 84.129 185.175 82.0235 195.558 80.193C213.045 77.1103 231.025 65.5489 248.082 68.4828C255.363 69.7351 262.713 74.6109 268.519 85.9122C277.993 104.354 259.652 123.698 244.676 130.688C234.483 135.446 224.552 128.113 214.234 125.384C200.709 121.807 182.556 121.016 167.086 131.612C157.696 138.045 152.972 135.759 150.827 130.236C144.548 114.07 153.97 92.1854 170.729 86.3326Z" fill="#AC73F9" fill-opacity="0.24"/>
<path d="M68.4305 40.4729C145.551 45.3982 31.2017 131.243 21.1417 74.2595C22.7677 16.8967 52.4446 -13.2085 68.4305 40.4729Z" stroke="#AC73F9" stroke-opacity="0.46" stroke-width="2"/>
</svg>
