<svg width="332" height="229" viewBox="0 0 332 229" fill="none" xmlns="http://www.w3.org/2000/svg">
<path d="M17.6435 177.641C79.9976 215.387 83.9247 184.64 58.7476 160.658C34.8828 141.674 -20.7356 155.839 17.6435 177.641Z" stroke="#FED5B9" stroke-width="2"/>
<path d="M311.599 173.047C320.923 206.833 251.559 174.625 206.108 163.697C198.122 161.777 189.867 161.882 181.694 162.695C54.6534 175.33 46.9638 103.008 51.041 73.8126C59.0676 16.3364 92.062 20.1075 133.442 46.4317C163.54 65.5789 159.941 87.0628 242.506 82.3756C283.773 80.033 296.069 87.0648 301.05 134.112C302.467 147.487 308.02 160.082 311.599 173.047Z" fill="#FB781C" fill-opacity="0.31"/>
</svg>
