<svg width="271" height="245" viewBox="0 0 271 245" fill="none" xmlns="http://www.w3.org/2000/svg">
<path d="M46.3072 173.621C4.78894 137.06 -1.07795 174.005 14.828 199.123C30.2728 218.493 72.0022 194.43 46.3072 173.621Z" stroke="#CAD7EF" stroke-width="2"/>
<path d="M259.529 125.863C264.78 141.344 216.59 141.316 184.518 146.551C176.412 147.874 168.844 151.352 161.641 155.298C80.1221 199.954 53.4323 153.285 47.4564 132.178C35.5617 90.1654 59.4256 82.7611 95.9 88.3457C122.43 92.4078 126.464 108.293 181.9 80.0383C208.24 66.6132 219.118 66.9587 235.327 93.5635C242.325 105.049 255.208 113.126 259.529 125.863Z" fill="#557DCA" fill-opacity="0.31"/>
</svg>
