<svg width="688" height="473" viewBox="0 0 688 473" fill="none" xmlns="http://www.w3.org/2000/svg">
<path d="M596.575 190.514C656.849 61.2962 478.452 52.654 383.462 70.2213C111.967 102.224 19.7536 154.438 30.906 217.438C49.3356 321.546 211.331 401.093 355.645 404.488C470.191 407.182 386.269 305.46 563.001 345.968C655.93 367.267 686.519 288.105 600.705 211.156C594.943 205.989 593.304 197.527 596.575 190.514Z" stroke="#7DD7ED" stroke-width="2"/>
<path d="M504.5 389.534C496.897 375.172 483.584 388.644 476.922 375.688C474.099 370.198 478.197 364.035 484.302 363.118C494.858 361.533 511.243 361.082 531 365.534C566.5 373.534 513.5 406.534 504.5 389.534Z" stroke="#7DD7ED" stroke-width="2"/>
</svg>
