<svg width="40" height="70" viewBox="0 0 40 70" fill="none" xmlns="http://www.w3.org/2000/svg">
<rect y="23" width="32" height="32" rx="16" fill="#5A6482"/>
<path d="M2.07772 33.8411C3.63404 26.7715 8.23562 20.7716 10.8191 13.6088C12.8942 9.04106 14.1963 5.36951 16.2714 3.01314C18.2688 1.59926 23.5938 1.42132 23.6714 4.06973C23.7182 5.664 22.2321 9.04106 19.1195 15.6394C17.7855 18.4672 16.0845 21.5871 14.5282 24.415C14.0126 25.3518 13.5256 26.8894 13.2557 28.3102C13.0496 29.3954 13.9326 30.2953 15.0371 30.2953H25.6003C27.2572 30.2953 28.6041 28.9493 28.7919 27.3031C29.1006 24.597 29.6738 21.8908 29.6738 19.1847L29.6738 19.1175C29.6736 16.5856 29.6733 13.2964 32.1665 12.1609C34.2416 11.2183 35.9787 11.7489 37.4526 13.6088C38.8708 15.3984 38.3141 18.9385 38.3141 20.3524C38.3141 23.9221 34.5941 41.0102 38.3019 63.7005C38.6757 65.9885 37.4384 67.9689 35.1201 67.9689C31.7488 67.9689 28.3807 67.3848 28.0815 62.8156C27.9384 60.6292 27.5628 58.3025 27.5628 56.2173L27.5629 44.3313C27.5629 43.1018 27.6184 41.8602 27.6667 40.6146C27.7101 39.4971 26.8119 38.58 25.6935 38.58H15.6012C10.6469 38.58 1.0402 39.9681 2.07772 33.8411Z" fill="white" stroke="black" stroke-width="3" stroke-linecap="round"/>
</svg>
