<svg width="561" height="478" viewBox="0 0 561 478" fill="none" xmlns="http://www.w3.org/2000/svg">
<g clip-path="url(#clip0_857_871)">
<path d="M80.2026 207.742C-6.01093 101.342 122.634 143.803 212.356 159.455C237.596 163.858 263.318 161.014 288.627 157.032C494.357 124.662 534.976 225.185 526.058 272.637C516.311 324.503 451.706 387.296 341.346 372.734C250.173 360.703 278.154 269.922 152.473 338.03C85.4847 374.331 37.4536 312.436 81.7389 220.224C83.6664 216.211 83.0056 211.201 80.2026 207.742Z" stroke="#87D869" stroke-opacity="0.24" stroke-width="2"/>
<path d="M216.442 367.45C236.677 378.603 194.811 387.263 199.346 370.567C207.092 355.257 218.954 350.892 216.442 367.45Z" stroke="#87D869" stroke-opacity="0.24" stroke-width="2"/>
<path d="M171.568 112.581C189.056 136.344 196.29 120.461 190.848 106.28C184.995 94.8039 160.539 98.705 171.568 112.581Z" stroke="#87D869" stroke-opacity="0.24" stroke-width="2"/>
<path d="M459.804 390.589C467.319 381.652 488.76 364.169 514.41 365.731C539.484 373.705 521.29 400.472 509.058 412.859C483.471 431.673 507.49 402.784 473.989 410.843C440.487 418.901 450.573 400.698 459.804 390.589Z" stroke="#87D869" stroke-opacity="0.24" stroke-width="2"/>
</g>
<path d="M420.27 243.463C397.92 264.626 360.663 287.977 315.767 294.328C271.008 300.66 218.401 290.141 164.999 243.189L161.038 247.696C215.727 295.779 270.08 306.851 316.607 300.269C362.997 293.706 401.352 269.639 424.396 247.82L420.27 243.463ZM164.7 236.47C187.044 214.937 224.307 191.172 269.211 184.704C313.97 178.257 366.596 188.948 420.026 236.741L424.026 232.269C369.312 183.327 314.921 172.058 268.356 178.765C221.935 185.452 183.566 209.956 160.537 232.149L164.7 236.47ZM164.999 243.189C162.909 241.352 162.848 238.254 164.7 236.47L160.537 232.149C156.008 236.514 156.472 243.681 161.038 247.696L164.999 243.189ZM424.396 247.82C428.965 243.493 428.556 236.321 424.026 232.269L420.026 236.741C422.102 238.598 422.136 241.696 420.27 243.463L424.396 247.82Z" fill="#2E2E2E"/>
<circle cx="293" cy="240" r="44" fill="#2E2E2E"/>
<defs>
<clipPath id="clip0_857_871">
<rect width="561" height="478" fill="white"/>
</clipPath>
</defs>
</svg>
