<svg width="1191" height="1202" viewBox="0 0 1191 1202" fill="none" xmlns="http://www.w3.org/2000/svg">
<path d="M325.5 87.1328L325.787 87.5423L325.5 87.1328ZM726.002 87.1328L726.44 86.89L726.436 86.8834L726.002 87.1328ZM596.5 213.534L596.099 213.833L596.5 213.534ZM1043.83 484.247L1043.98 484.725L1043.83 484.247ZM941.981 507.915L942.072 508.407L941.981 507.915ZM767.18 546.892L767.325 547.37L767.18 546.892ZM687.472 576.633L687.262 576.179L687.472 576.633ZM595.972 628.688L596.249 629.105L596.258 629.099L596.267 629.092L595.972 628.688ZM542.777 715.159L543.274 715.21L542.777 715.159ZM555.427 791.299L555.869 791.065L555.427 791.299ZM670.972 841.633L671.191 842.083L670.972 841.633ZM698.472 756.633L698.004 756.808L698.472 756.633ZM637.472 727.133L637.432 726.634L637.472 727.133ZM581.972 761.633L582.381 761.921L581.972 761.633ZM562.147 812.698L561.662 812.574L562.147 812.698ZM548.635 944.019L549.121 943.898L548.635 944.019ZM549.823 948.208L549.347 948.36L549.823 948.208ZM616.877 1019.43L617.108 1018.99L616.877 1019.43ZM979.319 1000.38L979.419 1000.87L979.319 1000.38ZM1152.76 1127.3L1153.26 1127.34L1153.26 1127.32L1152.76 1127.3ZM1129.65 1200.41L1129.19 1200.6L1129.39 1201.09L1129.87 1200.86L1129.65 1200.41ZM588.104 634.458L587.793 634.066L588.104 634.458ZM1130.53 1043.67L1130.12 1043.96L1130.53 1043.67ZM1144.31 413.922L1143.91 413.621L1144.31 413.922ZM1125.43 1188.94C1125.33 1188.69 1125.04 1188.57 1124.78 1188.67C1124.53 1188.78 1124.4 1189.07 1124.51 1189.32L1125.43 1188.94ZM1141.69 1195.08C1141.94 1194.96 1142.04 1194.66 1141.92 1194.41C1141.8 1194.17 1141.5 1194.06 1141.25 1194.18L1141.69 1195.08ZM1067.71 1004.55L1067.87 1004.07L1067.71 1004.55ZM940.547 508.18L940.456 507.688L940.547 508.18ZM1189.61 231.097L1189.11 231.119L1189.61 231.097ZM1166.07 380.272L1166.52 380.488L1166.07 380.272ZM5.77089 148.807C6.01443 148.677 6.10633 148.374 5.97617 148.131C5.846 147.887 5.54305 147.795 5.29952 147.925L5.77089 148.807ZM14.0671 143.341C13.8212 143.466 13.7237 143.768 13.8493 144.013C13.9749 144.259 14.2761 144.357 14.522 144.231L14.0671 143.341ZM23.3127 139.854C23.5612 139.733 23.665 139.434 23.5446 139.186C23.4242 138.937 23.1252 138.833 22.8766 138.954L23.3127 139.854ZM31.8091 134.758C31.5577 134.872 31.4465 135.168 31.5608 135.42C31.675 135.671 31.9714 135.782 32.2228 135.668L31.8091 134.758ZM41.2927 131.7C41.5473 131.594 41.6671 131.301 41.5602 131.046C41.4534 130.791 41.1603 130.671 40.9057 130.778L41.2927 131.7ZM49.8828 127.183C49.6247 127.281 49.4951 127.57 49.5933 127.828C49.6915 128.086 49.9804 128.215 50.2384 128.117L49.8828 127.183ZM59.6786 124.745C59.9406 124.658 60.0824 124.375 59.9952 124.113C59.9081 123.851 59.625 123.709 59.363 123.797L59.6786 124.745ZM68.826 120.908C68.5599 120.981 68.4037 121.257 68.4773 121.523C68.5508 121.789 68.8262 121.945 69.0924 121.872L68.826 120.908ZM78.5866 119.558C78.8569 119.502 79.0303 119.237 78.9738 118.967C78.9173 118.696 78.6524 118.523 78.3821 118.58L78.5866 119.558ZM88.1047 116.938C87.8308 116.972 87.6367 117.222 87.6713 117.496C87.7058 117.77 87.9559 117.964 88.2299 117.93L88.1047 116.938ZM98.0129 117.181C98.289 117.175 98.5076 116.946 98.5011 116.67C98.4947 116.394 98.2656 116.175 97.9896 116.181L98.0129 117.181ZM107.92 116.557C107.646 116.529 107.4 116.729 107.372 117.003C107.343 117.278 107.543 117.524 107.818 117.552L107.92 116.557ZM117.434 119.25C117.702 119.317 117.974 119.156 118.042 118.888C118.11 118.62 117.948 118.348 117.68 118.28L117.434 119.25ZM127.059 121.421C126.804 121.315 126.511 121.435 126.404 121.69C126.298 121.945 126.418 122.238 126.673 122.344L127.059 121.421ZM135.464 126.7C135.704 126.837 136.009 126.753 136.146 126.513C136.283 126.273 136.199 125.968 135.959 125.831L135.464 126.7ZM144.353 131.057C144.123 130.904 143.813 130.967 143.66 131.197C143.508 131.427 143.57 131.737 143.8 131.89L144.353 131.057ZM151.981 137.403C152.211 137.556 152.521 137.494 152.674 137.264C152.828 137.034 152.765 136.724 152.536 136.57L151.981 137.403ZM160.864 141.778C160.624 141.641 160.319 141.725 160.182 141.965C160.046 142.205 160.129 142.51 160.369 142.647L160.864 141.778ZM169.297 147.012C169.553 147.115 169.844 146.991 169.947 146.735C170.05 146.479 169.926 146.188 169.67 146.085L169.297 147.012ZM178.96 148.948C178.69 148.89 178.424 149.062 178.365 149.331C178.307 149.601 178.479 149.867 178.749 149.926L178.96 148.948ZM188.636 151.184C188.912 151.196 189.145 150.982 189.157 150.706C189.169 150.43 188.956 150.197 188.68 150.185L188.636 151.184ZM198.459 149.901C198.184 149.928 197.983 150.172 198.01 150.447C198.036 150.722 198.281 150.923 198.556 150.896L198.459 149.901ZM208.321 149.391C208.591 149.335 208.765 149.07 208.709 148.799C208.653 148.529 208.388 148.355 208.117 148.412L208.321 149.391ZM217.661 145.995C217.396 146.073 217.245 146.351 217.323 146.616C217.402 146.881 217.68 147.032 217.945 146.954L217.661 145.995ZM227.365 143.824C227.624 143.729 227.757 143.442 227.662 143.183C227.567 142.924 227.28 142.79 227.021 142.885L227.365 143.824ZM236.037 139.32C235.782 139.428 235.663 139.721 235.771 139.976C235.879 140.23 236.172 140.349 236.426 140.241L236.037 139.32ZM245.421 136.219C245.671 136.101 245.778 135.803 245.661 135.553C245.543 135.304 245.245 135.196 244.995 135.314L245.421 136.219ZM254.035 130.872C253.789 130.998 253.691 131.299 253.817 131.545C253.943 131.791 254.244 131.889 254.49 131.763L254.035 130.872ZM262.999 127.267C263.242 127.135 263.331 126.831 263.199 126.589C263.067 126.346 262.763 126.257 262.521 126.389L262.999 127.267ZM271.241 121.506C271.001 121.643 270.919 121.949 271.056 122.188C271.194 122.428 271.5 122.51 271.739 122.373L271.241 121.506ZM280.127 117.443C280.364 117.301 280.441 116.994 280.299 116.757C280.156 116.52 279.849 116.443 279.613 116.585L280.127 117.443ZM288.149 111.361C287.915 111.507 287.843 111.815 287.99 112.049C288.136 112.284 288.444 112.355 288.678 112.209L288.149 111.361ZM296.862 107.024C297.095 106.874 297.162 106.565 297.012 106.333C296.863 106.1 296.553 106.033 296.321 106.183L296.862 107.024ZM304.837 100.622C304.607 100.774 304.544 101.085 304.696 101.315C304.849 101.545 305.159 101.608 305.389 101.456L304.837 100.622ZM313.323 96.1378C313.551 95.9828 313.611 95.6719 313.456 95.4433C313.301 95.2148 312.99 95.1552 312.761 95.3101L313.323 96.1378ZM320.986 89.6695C320.759 89.8268 320.702 90.1383 320.86 90.3653C321.017 90.5922 321.329 90.6486 321.556 90.4913L320.986 89.6695ZM329.838 84.7269C330.066 84.5702 330.123 84.2588 329.966 84.0314C329.81 83.8041 329.498 83.7468 329.271 83.9035L329.838 84.7269ZM337.366 78.4152C337.136 78.5684 337.074 78.8788 337.227 79.1086C337.381 79.3383 337.691 79.4004 337.921 79.2472L337.366 78.4152ZM346.093 73.8913C346.325 73.7418 346.392 73.4324 346.243 73.2002C346.093 72.9681 345.784 72.9011 345.552 73.0506L346.093 73.8913ZM353.81 67.8261C353.576 67.9718 353.504 68.28 353.649 68.5146C353.795 68.7492 354.103 68.8212 354.338 68.6755L353.81 67.8261ZM362.689 63.584C362.926 63.4423 363.003 63.1353 362.862 62.8983C362.72 62.6613 362.413 62.5841 362.176 62.7258L362.689 63.584ZM370.592 57.7897C370.352 57.9273 370.27 58.233 370.408 58.4723C370.545 58.7117 370.851 58.7942 371.09 58.6566L370.592 57.7897ZM379.626 53.8495C379.868 53.7162 379.956 53.412 379.823 53.1702C379.689 52.9284 379.385 52.8405 379.143 52.9738L379.626 53.8495ZM387.709 48.3522C387.465 48.4811 387.371 48.7836 387.5 49.0278C387.629 49.272 387.931 49.3655 388.176 49.2366L387.709 48.3522ZM396.9 44.7372C397.147 44.6129 397.246 44.3123 397.122 44.0657C396.998 43.8191 396.697 43.7198 396.45 43.844L396.9 44.7372ZM405.198 39.5443C404.949 39.6637 404.844 39.9623 404.963 40.2113C405.083 40.4603 405.381 40.5654 405.63 40.446L405.198 39.5443ZM414.503 36.3016C414.754 36.1873 414.866 35.8909 414.751 35.6395C414.637 35.3881 414.34 35.277 414.089 35.3913L414.503 36.3016ZM423.034 31.4353C422.78 31.5443 422.663 31.8384 422.772 32.0921C422.881 32.3458 423.175 32.4631 423.429 32.3541L423.034 31.4353ZM432.422 28.6029C432.678 28.4994 432.801 28.2079 432.698 27.9519C432.594 27.6959 432.303 27.5723 432.047 27.6759L432.422 28.6029ZM441.187 24.097C440.929 24.1948 440.799 24.4834 440.896 24.7416C440.994 24.9999 441.283 25.13 441.541 25.0322L441.187 24.097ZM450.679 21.6918C450.939 21.6001 451.076 21.3145 450.984 21.0541C450.892 20.7936 450.607 20.6569 450.346 20.7487L450.679 21.6918ZM459.634 17.5993C459.372 17.6848 459.228 17.967 459.314 18.2295C459.399 18.4921 459.682 18.6356 459.944 18.5501L459.634 17.5993ZM469.271 15.6399C469.535 15.561 469.686 15.2824 469.607 15.0178C469.528 14.7532 469.249 14.6027 468.985 14.6816L469.271 15.6399ZM478.359 12.0147C478.092 12.0868 477.935 12.3613 478.007 12.6279C478.079 12.8945 478.353 13.0521 478.62 12.9799L478.359 12.0147ZM488.11 10.5476C488.378 10.4827 488.543 10.2124 488.478 9.94404C488.413 9.67565 488.143 9.51071 487.875 9.57565L488.11 10.5476ZM497.423 7.40469C497.153 7.46213 496.981 7.72766 497.038 7.99777C497.095 8.26787 497.361 8.44026 497.631 8.38281L497.423 7.40469ZM507.173 6.49573C507.445 6.44609 507.625 6.18564 507.575 5.91399C507.526 5.64235 507.265 5.46238 506.994 5.51201L507.173 6.49573ZM516.671 3.89311C516.398 3.93454 516.21 4.18944 516.251 4.46246C516.293 4.73548 516.548 4.92322 516.821 4.88179L516.671 3.89311ZM526.502 3.56657C526.776 3.53372 526.972 3.28482 526.939 3.01064C526.906 2.73646 526.657 2.54082 526.383 2.57367L526.502 3.56657ZM536.107 1.56779C535.832 1.5917 535.628 1.8341 535.652 2.10921C535.676 2.38431 535.919 2.58795 536.194 2.56404L536.107 1.56779ZM545.908 1.88427C546.184 1.8697 546.395 1.63434 546.381 1.35858C546.366 1.08282 546.131 0.871089 545.855 0.885663L545.908 1.88427ZM555.667 0.540352C555.39 0.545133 555.17 0.772833 555.175 1.04893C555.18 1.32503 555.408 1.54498 555.684 1.5402L555.667 0.540352ZM565.445 1.55015C565.721 1.55556 565.95 1.33613 565.955 1.06005C565.96 0.783956 565.741 0.555753 565.465 0.550338L565.445 1.55015ZM575.242 0.928852C574.966 0.912831 574.73 1.12332 574.714 1.399C574.698 1.67468 574.908 1.91115 575.184 1.92717L575.242 0.928852ZM584.89 2.68504C585.165 2.71208 585.409 2.51122 585.436 2.2364C585.463 1.96159 585.262 1.71688 584.988 1.68984L584.89 2.68504ZM594.721 2.85225C594.447 2.81373 594.194 3.00418 594.156 3.27762C594.117 3.55107 594.308 3.80396 594.581 3.84247L594.721 2.85225ZM604.219 5.41354C604.49 5.46395 604.751 5.28471 604.801 5.01321C604.852 4.74171 604.673 4.48075 604.401 4.43034L604.219 5.41354ZM613.994 6.43606C613.725 6.37338 613.456 6.54059 613.394 6.80953C613.331 7.07846 613.498 7.34729 613.767 7.40996L613.994 6.43606ZM623.206 9.84454C623.472 9.91983 623.749 9.7655 623.824 9.49982C623.899 9.23414 623.745 8.95773 623.479 8.88243L623.206 9.84454ZM632.833 11.7815C632.572 11.6933 632.288 11.8339 632.2 12.0955C632.112 12.3572 632.252 12.6409 632.514 12.7291L632.833 11.7815ZM641.664 16.0739C641.92 16.1753 642.211 16.0493 642.312 15.7925C642.414 15.5356 642.288 15.2452 642.031 15.1438L641.664 16.0739ZM651.043 18.9777C650.792 18.8629 650.495 18.9734 650.38 19.2246C650.266 19.4757 650.376 19.7724 650.627 19.8872L651.043 18.9777ZM659.379 24.1766C659.623 24.3049 659.926 24.2106 660.054 23.9661C660.182 23.7215 660.088 23.4193 659.843 23.291L659.379 24.1766ZM668.398 28.0862C668.161 27.9445 667.854 28.0217 667.712 28.2587C667.57 28.4956 667.647 28.8027 667.884 28.9444L668.398 28.0862ZM676.103 34.185C676.331 34.3401 676.642 34.2807 676.797 34.0522C676.953 33.8237 676.893 33.5128 676.665 33.3577L676.103 34.185ZM684.611 39.0993C684.392 38.931 684.078 38.9722 683.91 39.1911C683.742 39.4101 683.783 39.724 684.002 39.8922L684.611 39.0993ZM691.548 46.0555C691.757 46.2365 692.073 46.2142 692.253 46.0056C692.434 45.797 692.412 45.4813 692.204 45.3003L691.548 46.0555ZM699.41 51.9453C699.213 51.7521 698.896 51.7553 698.703 51.9526C698.51 52.1498 698.513 52.4664 698.71 52.6597L699.41 51.9453ZM705.459 59.685C705.644 59.8899 705.96 59.9059 706.165 59.7207C706.37 59.5356 706.386 59.2194 706.2 59.0145L705.459 59.685ZM712.548 66.4837C712.376 66.2679 712.061 66.2327 711.845 66.405C711.63 66.5774 711.594 66.892 711.767 67.1077L712.548 66.4837ZM710.313 71.783C710.052 71.8734 709.914 72.1582 710.004 72.4191C710.095 72.6801 710.38 72.8183 710.64 72.7279L710.313 71.783ZM701.432 76.0338C701.69 75.9376 701.822 75.6497 701.726 75.3909C701.63 75.1321 701.342 75.0003 701.083 75.0965L701.432 76.0338ZM691.932 78.6234C691.675 78.7258 691.551 79.0167 691.653 79.2732C691.755 79.5296 692.046 79.6545 692.303 79.552L691.932 78.6234ZM683.264 83.296C683.518 83.187 683.635 82.8929 683.526 82.6392C683.417 82.3855 683.123 82.2682 682.869 82.3772L683.264 83.296ZM673.908 86.3731C673.657 86.4891 673.548 86.7862 673.664 87.0368C673.78 87.2874 674.077 87.3965 674.328 87.2805L673.908 86.3731ZM665.512 91.5223C665.758 91.3987 665.859 91.0984 665.735 90.8514C665.612 90.6044 665.311 90.5044 665.064 90.6279L665.512 91.5223ZM656.359 95.1602C656.116 95.2918 656.026 95.5953 656.158 95.8381C656.29 96.0808 656.593 96.1709 656.836 96.0393L656.359 95.1602ZM648.328 100.851C648.565 100.711 648.644 100.405 648.504 100.167C648.364 99.9289 648.057 99.85 647.819 99.9903L648.328 100.851ZM639.478 105.14C639.247 105.29 639.18 105.6 639.33 105.832C639.48 106.064 639.789 106.13 640.021 105.98L639.478 105.14ZM631.939 111.463C632.164 111.303 632.216 110.99 632.056 110.766C631.896 110.541 631.584 110.488 631.359 110.649L631.939 111.463ZM623.49 116.565C623.273 116.737 623.237 117.051 623.409 117.267C623.581 117.484 623.895 117.52 624.112 117.348L623.49 116.565ZM616.65 123.635C616.856 123.451 616.873 123.135 616.689 122.929C616.504 122.723 616.188 122.706 615.983 122.89L616.65 123.635ZM608.888 129.693C608.696 129.891 608.7 130.208 608.898 130.4C609.096 130.593 609.413 130.588 609.605 130.39L608.888 129.693ZM603.094 137.651C603.269 137.438 603.239 137.123 603.025 136.948C602.812 136.772 602.497 136.803 602.322 137.016L603.094 137.651ZM596.429 144.908C596.275 145.137 596.337 145.447 596.566 145.601C596.795 145.755 597.106 145.694 597.26 145.465L596.429 144.908ZM592.314 153.833C592.44 153.588 592.343 153.286 592.097 153.161C591.851 153.035 591.55 153.132 591.424 153.378L592.314 153.833ZM587.55 162.436C587.461 162.697 587.6 162.982 587.861 163.072C588.122 163.161 588.406 163.022 588.496 162.761L587.55 162.436ZM586.1 172.164C586.145 171.891 585.961 171.634 585.688 171.589C585.416 171.544 585.158 171.728 585.113 172.001L586.1 172.164ZM584.409 181.855C584.416 182.131 584.645 182.35 584.921 182.343C585.197 182.337 585.415 182.108 585.409 181.831L584.409 181.855ZM586.581 191.444C586.521 191.175 586.254 191.005 585.985 191.065C585.715 191.125 585.545 191.392 585.605 191.661L586.581 191.444ZM588.647 201.055C588.756 201.309 589.05 201.427 589.303 201.318C589.557 201.209 589.675 200.915 589.566 200.662L588.647 201.055ZM594.127 209.232C593.978 208.999 593.669 208.932 593.436 209.08C593.204 209.229 593.136 209.538 593.285 209.771L594.127 209.232ZM599.282 218.004C599.452 218.222 599.766 218.261 599.984 218.091C600.201 217.921 600.24 217.607 600.071 217.389L599.282 218.004ZM606.349 225.101C606.17 224.89 605.855 224.865 605.644 225.044C605.434 225.223 605.409 225.539 605.588 225.749L606.349 225.101ZM612.463 233.407C612.653 233.607 612.969 233.615 613.17 233.425C613.37 233.235 613.378 232.919 613.188 232.719L612.463 233.407ZM620.372 239.84C620.17 239.653 619.853 239.664 619.665 239.867C619.478 240.069 619.489 240.385 619.692 240.573L620.372 239.84ZM627.371 247.188C627.588 247.359 627.902 247.323 628.074 247.107C628.246 246.891 628.209 246.576 627.993 246.404L627.371 247.188ZM636.143 252.282C635.911 252.131 635.602 252.198 635.451 252.429C635.301 252.661 635.367 252.971 635.599 253.121L636.143 252.282ZM644.446 258.148C644.694 258.269 644.994 258.166 645.115 257.918C645.236 257.67 645.133 257.37 644.885 257.249L644.446 258.148ZM654.21 260.98C653.947 260.898 653.666 261.046 653.584 261.309C653.502 261.573 653.649 261.853 653.913 261.935L654.21 260.98ZM663.876 264.074C664.15 264.106 664.398 263.909 664.43 263.635C664.462 263.361 664.266 263.113 663.991 263.081L663.876 264.074ZM673.957 263.195C673.682 263.221 673.481 263.466 673.507 263.741C673.534 264.016 673.778 264.217 674.053 264.19L673.957 263.195ZM684.055 262.099C684.318 262.014 684.461 261.731 684.376 261.469C684.29 261.206 684.008 261.063 683.745 261.148L684.055 262.099ZM692.888 257.085C692.648 257.222 692.564 257.527 692.701 257.767C692.837 258.007 693.143 258.091 693.383 257.954L692.888 257.085ZM701.785 252.136C701.998 251.96 702.029 251.645 701.853 251.432C701.677 251.219 701.362 251.189 701.149 251.364L701.785 252.136ZM708.402 244.442C708.216 244.646 708.23 244.962 708.434 245.148C708.638 245.334 708.954 245.32 709.14 245.116L708.402 244.442ZM715.544 237.205C715.705 236.981 715.654 236.669 715.43 236.507C715.206 236.346 714.894 236.397 714.732 236.621L715.544 237.205ZM720.209 228.152C720.07 228.391 720.151 228.697 720.39 228.836C720.628 228.975 720.934 228.893 721.073 228.655L720.209 228.152ZM725.809 219.643C725.928 219.393 725.821 219.095 725.572 218.977C725.322 218.858 725.024 218.965 724.906 219.214L725.809 219.643ZM728.89 209.932C728.79 210.189 728.918 210.479 729.176 210.579C729.433 210.678 729.723 210.55 729.823 210.293L728.89 209.932ZM733.17 200.691C733.252 200.428 733.105 200.147 732.842 200.065C732.578 199.983 732.298 200.13 732.215 200.393L733.17 200.691ZM734.92 190.667C734.854 190.935 735.018 191.206 735.286 191.271C735.555 191.337 735.825 191.173 735.891 190.905L734.92 190.667ZM738.016 180.973C738.066 180.701 737.886 180.44 737.614 180.391C737.343 180.341 737.082 180.521 737.032 180.792L738.016 180.973ZM738.566 170.809C738.532 171.083 738.726 171.333 739 171.367C739.274 171.401 739.524 171.207 739.558 170.933L738.566 170.809ZM740.519 160.82C740.537 160.544 740.328 160.306 740.053 160.288C739.777 160.27 739.539 160.479 739.521 160.754L740.519 160.82ZM739.889 150.66C739.887 150.937 740.11 151.162 740.386 151.164C740.662 151.166 740.887 150.943 740.889 150.667L739.889 150.66ZM740.649 140.509C740.634 140.233 740.399 140.022 740.123 140.037C739.847 140.052 739.636 140.288 739.651 140.564L740.649 140.509ZM738.775 130.504C738.808 130.778 739.057 130.973 739.331 130.94C739.605 130.907 739.8 130.658 739.767 130.384L738.775 130.504ZM738.2 120.339C738.148 120.067 737.886 119.89 737.614 119.942C737.343 119.995 737.166 120.257 737.218 120.528L738.2 120.339ZM734.928 110.699C735.001 110.965 735.276 111.121 735.543 111.048C735.809 110.975 735.965 110.7 735.892 110.433L734.928 110.699ZM732.777 100.748C732.681 100.489 732.393 100.357 732.134 100.453C731.875 100.549 731.743 100.837 731.839 101.096L732.777 100.748ZM727.882 91.8265C728.003 92.0748 728.303 92.1779 728.551 92.0569C728.799 91.936 728.902 91.6367 728.781 91.3884L727.882 91.8265ZM723.904 82.6318C723.759 82.3967 723.451 82.3235 723.216 82.4684C722.981 82.6132 722.908 82.9212 723.052 83.1563L723.904 82.6318ZM717.642 74.9429C717.801 75.1688 718.113 75.2231 718.339 75.0643C718.564 74.9054 718.619 74.5936 718.46 74.3677L717.642 74.9429ZM562.267 801.06C562.101 800.839 561.788 800.795 561.567 800.961C561.346 801.127 561.302 801.44 561.468 801.661L562.267 801.06ZM556.966 795.025C557.109 795.261 557.416 795.336 557.653 795.193C557.889 795.05 557.964 794.743 557.821 794.507L556.966 795.025ZM553.718 786.71C553.603 786.459 553.306 786.349 553.055 786.465C552.804 786.58 552.694 786.877 552.81 787.128L553.718 786.71ZM549.145 778.018C549.236 778.279 549.522 778.416 549.782 778.325C550.043 778.234 550.18 777.948 550.089 777.688L549.145 778.018ZM547.254 768.376C547.184 768.108 546.911 767.949 546.644 768.019C546.376 768.089 546.217 768.362 546.287 768.629L547.254 768.376ZM544.14 759.057C544.191 759.328 544.453 759.507 544.724 759.456C544.995 759.405 545.174 759.143 545.123 758.872L544.14 759.057ZM543.638 749.243C543.604 748.969 543.355 748.774 543.081 748.807C542.807 748.84 542.612 749.09 542.645 749.364L543.638 749.243ZM541.768 739.596C541.784 739.872 542.021 740.083 542.297 740.066C542.572 740.05 542.783 739.814 542.767 739.538L541.768 739.596ZM542.501 729.798C542.502 729.522 542.279 729.297 542.003 729.296C541.727 729.295 541.502 729.518 541.501 729.794L542.501 729.798ZM541.857 719.994C541.838 720.269 542.046 720.508 542.321 720.527C542.597 720.546 542.836 720.338 542.855 720.063L541.857 719.994ZM543.867 710.521C543.908 710.248 543.72 709.993 543.447 709.953C543.174 709.912 542.919 710.1 542.878 710.373L543.867 710.521ZM544.697 701.009C544.633 701.278 544.798 701.547 545.067 701.612C545.335 701.676 545.605 701.51 545.669 701.242L544.697 701.009ZM548.255 692.148C548.342 691.886 548.199 691.603 547.937 691.516C547.675 691.43 547.392 691.572 547.305 691.835L548.255 692.148ZM550.658 682.907C550.551 683.161 550.67 683.455 550.924 683.562C551.179 683.669 551.472 683.55 551.58 683.296L550.658 682.907ZM555.599 674.735C555.726 674.49 555.63 674.188 555.385 674.061C555.14 673.934 554.838 674.03 554.711 674.275L555.599 674.735ZM559.421 665.985C559.276 666.22 559.348 666.528 559.583 666.673C559.817 666.819 560.126 666.747 560.271 666.512L559.421 665.985ZM565.558 658.669C565.721 658.446 565.673 658.133 565.45 657.97C565.227 657.807 564.914 657.856 564.751 658.079L565.558 658.669ZM570.665 650.6C570.486 650.81 570.51 651.126 570.72 651.305C570.93 651.485 571.246 651.46 571.425 651.25L570.665 650.6ZM577.839 644.298C578.034 644.102 578.033 643.786 577.838 643.591C577.642 643.396 577.325 643.397 577.13 643.592L577.839 644.298ZM584.116 637.102C583.906 637.281 583.882 637.597 584.062 637.807C584.242 638.016 584.558 638.04 584.767 637.86L584.116 637.102ZM590.333 633.356C590.552 633.188 590.594 632.874 590.426 632.655C590.258 632.435 589.944 632.394 589.725 632.561L590.333 633.356ZM593.672 629.658C593.446 629.817 593.392 630.129 593.551 630.355C593.71 630.581 594.022 630.635 594.248 630.476L593.672 629.658ZM600.543 626.04C600.77 625.881 600.825 625.57 600.667 625.343C600.508 625.117 600.197 625.062 599.97 625.22L600.543 626.04ZM608.723 619.316C608.492 619.467 608.427 619.777 608.578 620.008C608.729 620.239 609.039 620.304 609.27 620.153L608.723 619.316ZM618.155 614.506C618.39 614.361 618.462 614.052 618.317 613.818C618.172 613.583 617.863 613.51 617.629 613.656L618.155 614.506ZM626.653 608.188C626.416 608.329 626.337 608.635 626.478 608.873C626.619 609.11 626.926 609.189 627.163 609.048L626.653 608.188ZM636.269 603.75C636.508 603.613 636.592 603.308 636.455 603.068C636.318 602.828 636.013 602.745 635.773 602.882L636.269 603.75ZM644.974 597.72C644.732 597.853 644.644 598.157 644.777 598.399C644.911 598.641 645.215 598.729 645.457 598.595L644.974 597.72ZM654.718 593.573C654.962 593.443 655.054 593.141 654.924 592.897C654.794 592.653 654.492 592.561 654.248 592.691L654.718 593.573ZM663.592 587.793C663.346 587.919 663.25 588.221 663.376 588.466C663.503 588.712 663.804 588.808 664.05 588.682L663.592 587.793ZM673.448 583.926C673.695 583.804 673.796 583.504 673.674 583.256C673.551 583.009 673.251 582.908 673.003 583.031L673.448 583.926ZM682.492 578.418C682.242 578.536 682.136 578.834 682.255 579.084C682.373 579.333 682.671 579.439 682.921 579.321L682.492 578.418ZM692.519 574.878C692.771 574.764 692.883 574.468 692.77 574.216C692.656 573.965 692.36 573.852 692.108 573.966L692.519 574.878ZM701.867 569.691C701.613 569.799 701.495 570.093 701.603 570.347C701.711 570.601 702.005 570.719 702.259 570.611L701.867 569.691ZM712.084 566.544C712.34 566.441 712.464 566.15 712.361 565.893C712.258 565.637 711.967 565.513 711.711 565.616L712.084 566.544ZM721.632 561.738C721.374 561.836 721.244 562.124 721.342 562.383C721.44 562.641 721.729 562.771 721.987 562.672L721.632 561.738ZM731.963 558.989C732.223 558.896 732.358 558.609 732.265 558.349C732.171 558.09 731.885 557.955 731.625 558.048L731.963 558.989ZM741.68 554.535C741.419 554.624 741.279 554.908 741.368 555.169C741.457 555.431 741.741 555.57 742.003 555.481L741.68 554.535ZM752.098 552.134C752.36 552.049 752.504 551.767 752.419 551.505C752.334 551.242 752.053 551.098 751.79 551.183L752.098 552.134ZM761.944 547.972C761.68 548.054 761.533 548.334 761.614 548.598C761.696 548.862 761.976 549.009 762.24 548.928L761.944 547.972ZM772.052 545.953C772.316 545.875 772.467 545.596 772.389 545.332C772.31 545.067 772.032 544.916 771.767 544.995L772.052 545.953ZM781.256 542.242C780.99 542.318 780.836 542.594 780.912 542.86C780.987 543.125 781.263 543.28 781.529 543.204L781.256 542.242ZM791.038 540.563C791.304 540.491 791.462 540.216 791.389 539.95C791.317 539.683 791.042 539.526 790.775 539.598L791.038 540.563ZM800.322 537.057C800.055 537.127 799.895 537.4 799.965 537.667C800.034 537.934 800.307 538.094 800.575 538.025L800.322 537.057ZM810.137 535.582C810.405 535.515 810.567 535.243 810.5 534.975C810.433 534.708 810.162 534.545 809.894 534.612L810.137 535.582ZM819.487 532.256C819.219 532.321 819.054 532.591 819.118 532.859C819.183 533.128 819.453 533.293 819.722 533.229L819.487 532.256ZM829.327 530.958C829.596 530.896 829.763 530.627 829.701 530.358C829.638 530.089 829.37 529.921 829.101 529.984L829.327 530.958ZM838.732 527.788C838.462 527.848 838.293 528.116 838.353 528.385C838.413 528.655 838.681 528.824 838.95 528.764L838.732 527.788ZM848.59 526.639C848.859 526.581 849.031 526.315 848.972 526.045C848.914 525.775 848.648 525.604 848.378 525.662L848.59 526.639ZM858.037 523.6C857.767 523.656 857.594 523.922 857.651 524.192C857.708 524.462 857.973 524.635 858.243 524.578L858.037 523.6ZM867.909 522.574C868.179 522.518 868.354 522.254 868.298 521.984C868.243 521.713 867.979 521.539 867.708 521.594L867.909 522.574ZM877.389 519.638C877.119 519.692 876.943 519.956 876.997 520.226C877.051 520.497 877.314 520.673 877.585 520.619L877.389 519.638ZM887.27 518.708C887.541 518.655 887.718 518.392 887.665 518.121C887.612 517.85 887.35 517.673 887.079 517.726L887.27 518.708ZM896.775 515.851C896.504 515.903 896.326 516.165 896.378 516.436C896.43 516.707 896.692 516.885 896.963 516.833L896.775 515.851ZM906.662 514.988C906.933 514.937 907.112 514.675 907.061 514.404C907.009 514.133 906.748 513.954 906.477 514.005L906.662 514.988ZM916.182 512.184C915.911 512.234 915.732 512.496 915.782 512.767C915.833 513.038 916.094 513.217 916.366 513.167L916.182 512.184ZM926.073 511.362C926.344 511.312 926.524 511.051 926.473 510.779C926.423 510.508 926.162 510.328 925.891 510.379L926.073 511.362ZM935.601 508.584C935.329 508.634 935.15 508.895 935.2 509.166C935.25 509.438 935.511 509.617 935.782 509.567L935.601 508.584ZM940.996 508.605C941.268 508.555 941.447 508.294 941.397 508.023C941.347 507.751 941.086 507.572 940.815 507.622L940.996 508.605ZM941.532 507.49C941.26 507.54 941.081 507.8 941.131 508.072C941.181 508.344 941.442 508.523 941.713 508.473L941.532 507.49ZM947.215 507.449C947.486 507.398 947.665 507.137 947.614 506.866C947.563 506.594 947.301 506.416 947.03 506.467L947.215 507.449ZM957.303 504.499C957.032 504.552 956.855 504.815 956.908 505.086C956.961 505.357 957.223 505.534 957.494 505.481L957.303 504.499ZM967.759 503.437C968.03 503.382 968.205 503.118 968.15 502.847C968.095 502.577 967.831 502.402 967.56 502.457L967.759 503.437ZM977.8 500.332C977.53 500.389 977.357 500.655 977.414 500.925C977.472 501.195 977.737 501.368 978.007 501.31L977.8 500.332ZM988.237 499.093C988.506 499.033 988.676 498.766 988.617 498.497C988.557 498.227 988.29 498.057 988.02 498.117L988.237 499.093ZM998.218 495.802C997.949 495.864 997.782 496.133 997.844 496.402C997.907 496.671 998.176 496.838 998.445 496.776L998.218 495.802ZM1008.63 494.346C1008.9 494.28 1009.06 494.01 1008.99 493.742C1008.93 493.473 1008.66 493.309 1008.39 493.375L1008.63 494.346ZM1018.53 490.823C1018.26 490.892 1018.1 491.165 1018.17 491.432C1018.24 491.699 1018.51 491.86 1018.78 491.791L1018.53 490.823ZM1028.89 489.092C1029.16 489.019 1029.32 488.744 1029.24 488.478C1029.17 488.211 1028.89 488.055 1028.63 488.128L1028.89 489.092ZM1038.68 485.268C1038.42 485.346 1038.27 485.624 1038.35 485.889C1038.42 486.154 1038.7 486.305 1038.97 486.227L1038.68 485.268ZM1048.94 483.136C1049.2 483.048 1049.34 482.764 1049.25 482.502C1049.16 482.241 1048.88 482.1 1048.62 482.188L1048.94 483.136ZM1058.34 478.617C1058.08 478.719 1057.96 479.01 1058.06 479.267C1058.16 479.523 1058.45 479.648 1058.71 479.546L1058.34 478.617ZM1068.27 475.434C1068.52 475.318 1068.63 475.021 1068.52 474.771C1068.4 474.52 1068.1 474.411 1067.85 474.526L1068.27 475.434ZM1077.14 469.941C1076.9 470.07 1076.8 470.372 1076.93 470.617C1077.06 470.861 1077.36 470.955 1077.61 470.826L1077.14 469.941ZM1086.69 465.745C1086.93 465.604 1087.01 465.297 1086.86 465.06C1086.72 464.822 1086.42 464.744 1086.18 464.885L1086.69 465.745ZM1094.95 459.377C1094.72 459.53 1094.66 459.84 1094.81 460.071C1094.96 460.301 1095.27 460.363 1095.51 460.211L1094.95 459.377ZM1104.03 454.241C1104.25 454.077 1104.3 453.764 1104.14 453.542C1103.97 453.319 1103.66 453.272 1103.44 453.436L1104.03 454.241ZM1111.61 447.077C1111.4 447.252 1111.37 447.567 1111.54 447.781C1111.72 447.994 1112.03 448.026 1112.25 447.851L1111.61 447.077ZM1120.13 441.053C1120.33 440.867 1120.35 440.551 1120.16 440.347C1119.98 440.142 1119.66 440.127 1119.46 440.313L1120.13 441.053ZM1126.94 433.156C1126.75 433.352 1126.75 433.668 1126.95 433.863C1127.14 434.058 1127.46 434.056 1127.65 433.861L1126.94 433.156ZM1134.79 426.284C1134.98 426.078 1134.96 425.762 1134.75 425.578C1134.55 425.394 1134.23 425.412 1134.05 425.618L1134.79 426.284ZM1140.73 417.709C1140.56 417.925 1140.6 418.24 1140.81 418.412C1141.03 418.585 1141.34 418.549 1141.51 418.334L1140.73 417.709ZM1147.78 410.266C1147.95 410.048 1147.91 409.734 1147.69 409.564C1147.47 409.395 1147.16 409.434 1146.99 409.652L1147.78 410.266ZM1152.96 401.611C1152.8 401.837 1152.86 402.149 1153.08 402.308C1153.31 402.466 1153.62 402.411 1153.78 402.185L1152.96 401.611ZM1159.3 393.759C1159.45 393.524 1159.37 393.216 1159.14 393.072C1158.9 392.928 1158.59 393.003 1158.45 393.238L1159.3 393.759ZM1163.37 384.53C1163.25 384.775 1163.34 385.077 1163.59 385.205C1163.83 385.333 1164.13 385.238 1164.26 384.993L1163.37 384.53ZM1168.54 376.156C1168.65 375.905 1168.54 375.609 1168.29 375.495C1168.04 375.381 1167.74 375.493 1167.63 375.745L1168.54 376.156ZM1171.34 366.987C1171.24 367.244 1171.36 367.535 1171.62 367.637C1171.88 367.738 1172.17 367.613 1172.27 367.356L1171.34 366.987ZM1175.6 358.397C1175.69 358.137 1175.55 357.852 1175.29 357.761C1175.03 357.671 1174.74 357.809 1174.65 358.07L1175.6 358.397ZM1177.58 349.017C1177.5 349.282 1177.65 349.561 1177.91 349.64C1178.18 349.72 1178.46 349.57 1178.53 349.305L1177.58 349.017ZM1181.1 340.103C1181.17 339.835 1181.01 339.563 1180.74 339.494C1180.48 339.425 1180.2 339.585 1180.14 339.853L1181.1 340.103ZM1182.34 330.596C1182.28 330.866 1182.45 331.132 1182.72 331.191C1182.99 331.251 1183.26 331.08 1183.32 330.81L1182.34 330.596ZM1185.2 321.446C1185.25 321.174 1185.07 320.913 1184.8 320.864C1184.53 320.814 1184.27 320.994 1184.22 321.265L1185.2 321.446ZM1185.78 311.876C1185.74 312.149 1185.93 312.404 1186.2 312.445C1186.48 312.486 1186.73 312.298 1186.77 312.025L1185.78 311.876ZM1188.05 302.56C1188.08 302.286 1187.89 302.037 1187.61 302.004C1187.34 301.971 1187.09 302.167 1187.06 302.441L1188.05 302.56ZM1188.06 292.973C1188.03 293.248 1188.23 293.491 1188.51 293.516C1188.78 293.542 1189.03 293.339 1189.05 293.064L1188.06 292.973ZM1189.8 283.545C1189.82 283.27 1189.61 283.032 1189.33 283.014C1189.06 282.996 1188.82 283.204 1188.8 283.48L1189.8 283.545ZM1189.31 273.97C1189.3 274.246 1189.51 274.479 1189.79 274.491C1190.06 274.502 1190.29 274.288 1190.31 274.012L1189.31 273.97ZM1190.6 264.47C1190.6 264.194 1190.38 263.966 1190.1 263.96C1189.83 263.955 1189.6 264.175 1189.6 264.451L1190.6 264.47ZM1189.68 254.926C1189.68 255.202 1189.9 255.426 1190.18 255.426C1190.46 255.425 1190.68 255.201 1190.68 254.925L1189.68 254.926ZM1190.58 245.381C1190.57 245.105 1190.34 244.886 1190.07 244.891C1189.79 244.897 1189.57 245.125 1189.58 245.401L1190.58 245.381ZM1189.3 235.879C1189.31 236.155 1189.55 236.37 1189.82 236.36C1190.1 236.349 1190.31 236.117 1190.3 235.841L1189.3 235.879ZM1189.82 226.001C1189.8 225.726 1189.57 225.517 1189.29 225.535C1189.01 225.553 1188.81 225.792 1188.82 226.067L1189.82 226.001ZM1187.94 215.983C1187.97 216.257 1188.22 216.455 1188.49 216.425C1188.77 216.396 1188.97 216.149 1188.94 215.874L1187.94 215.983ZM1187.62 205.794C1187.57 205.522 1187.32 205.334 1187.05 205.376C1186.77 205.418 1186.59 205.673 1186.63 205.946L1187.62 205.794ZM1184.86 195.98C1184.92 196.251 1185.18 196.426 1185.45 196.372C1185.72 196.317 1185.9 196.054 1185.84 195.783L1184.86 195.98ZM1183.61 185.864C1183.55 185.596 1183.27 185.433 1183.01 185.5C1182.74 185.567 1182.57 185.839 1182.64 186.107L1183.61 185.864ZM1179.95 176.353C1180.03 176.618 1180.31 176.767 1180.57 176.687C1180.84 176.607 1180.99 176.328 1180.91 176.064L1179.95 176.353ZM1177.71 166.41C1177.62 166.15 1177.33 166.015 1177.07 166.108C1176.81 166.201 1176.68 166.488 1176.77 166.748L1177.71 166.41ZM1173.1 157.32C1173.21 157.574 1173.5 157.694 1173.76 157.587C1174.01 157.48 1174.13 157.187 1174.03 156.933L1173.1 157.32ZM1169.84 147.665C1169.72 147.417 1169.42 147.313 1169.17 147.434C1168.92 147.554 1168.82 147.853 1168.94 148.102L1169.84 147.665ZM1164.28 139.126C1164.41 139.368 1164.72 139.455 1164.96 139.321C1165.2 139.187 1165.29 138.882 1165.15 138.641L1164.28 139.126ZM1159.96 129.893C1159.82 129.66 1159.51 129.59 1159.27 129.738C1159.04 129.886 1158.97 130.195 1159.12 130.428L1159.96 129.893ZM1153.47 122.039C1153.63 122.264 1153.94 122.316 1154.17 122.155C1154.39 121.994 1154.44 121.681 1154.28 121.457L1153.47 122.039ZM1148.12 113.364C1147.94 113.149 1147.63 113.116 1147.41 113.29C1147.2 113.464 1147.17 113.778 1147.34 113.993L1148.12 113.364ZM1140.75 106.318C1140.94 106.522 1141.25 106.537 1141.46 106.351C1141.66 106.165 1141.68 105.849 1141.49 105.645L1140.75 106.318ZM1134.42 98.3258C1134.23 98.1328 1133.91 98.1365 1133.72 98.334C1133.52 98.5315 1133.53 98.8481 1133.72 99.0411L1134.42 98.3258ZM1126.29 92.1832C1126.5 92.3645 1126.81 92.3426 1126.99 92.1343C1127.17 91.926 1127.15 91.6102 1126.94 91.4289L1126.29 92.1832ZM1119.08 84.9707C1118.87 84.8015 1118.55 84.8411 1118.38 85.0593C1118.21 85.2775 1118.25 85.5916 1118.47 85.7609L1119.08 84.9707ZM1110.31 79.7848C1110.54 79.9418 1110.85 79.8849 1111.01 79.6578C1111.16 79.4306 1111.11 79.1191 1110.88 78.9622L1110.31 79.7848ZM1102.36 73.4081C1102.13 73.2634 1101.82 73.3368 1101.68 73.5719C1101.53 73.8071 1101.61 74.1151 1101.84 74.2598L1102.36 73.4081ZM1093.1 69.1851C1093.34 69.3176 1093.64 69.2286 1093.77 68.9863C1093.91 68.744 1093.82 68.4402 1093.58 68.3077L1093.1 69.1851ZM1084.55 63.655C1084.3 63.5346 1084 63.6383 1083.88 63.8868C1083.76 64.1353 1083.86 64.4344 1084.11 64.5548L1084.55 63.655ZM1074.91 60.3589C1075.17 60.4677 1075.46 60.3501 1075.57 60.0963C1075.68 59.8424 1075.56 59.5485 1075.31 59.4397L1074.91 60.3589ZM1065.88 55.6481C1065.62 55.5506 1065.34 55.6811 1065.24 55.9395C1065.14 56.1978 1065.27 56.4863 1065.53 56.5837L1065.88 55.6481ZM1055.99 53.2135C1056.25 53.3 1056.53 53.1576 1056.62 52.8954C1056.7 52.6331 1056.56 52.3504 1056.3 52.2639L1055.99 53.2135ZM1046.57 49.2696C1046.31 49.1936 1046.03 49.3471 1045.96 49.6126C1045.88 49.878 1046.03 50.1549 1046.3 50.231L1046.57 49.2696ZM1036.48 47.6182C1036.75 47.6843 1037.02 47.5205 1037.09 47.2524C1037.15 46.9842 1036.99 46.7133 1036.72 46.6473L1036.48 47.6182ZM1026.85 44.3987C1026.58 44.3421 1026.31 44.5153 1026.25 44.7856C1026.2 45.0558 1026.37 45.3208 1026.64 45.3775L1026.85 44.3987ZM1016.72 43.4713C1016.99 43.519 1017.25 43.3371 1017.3 43.0651C1017.35 42.7931 1017.16 42.534 1016.89 42.4863L1016.72 43.4713ZM1006.85 40.8899C1006.58 40.8507 1006.32 41.0406 1006.29 41.314C1006.25 41.5873 1006.44 41.8406 1006.71 41.8798L1006.85 40.8899ZM996.61 40.587C996.884 40.6181 997.132 40.4208 997.163 40.1464C997.194 39.872 996.996 39.6244 996.722 39.5934L996.61 40.587ZM986.671 38.5972C986.396 38.5737 986.154 38.7777 986.131 39.0528C986.107 39.3279 986.311 39.57 986.586 39.5935L986.671 38.5972ZM976.492 38.8653C976.768 38.8817 977.004 38.6714 977.021 38.3958C977.037 38.1201 976.827 37.8834 976.551 37.8671L976.492 38.8653ZM966.347 37.391C966.071 37.3815 965.84 37.5976 965.83 37.8735C965.821 38.1495 966.037 38.3809 966.313 38.3904L966.347 37.391ZM956.24 38.1616C956.516 38.1647 956.742 37.9434 956.745 37.6672C956.749 37.3911 956.527 37.1647 956.251 37.1616L956.24 38.1616ZM946.105 37.1444C945.828 37.1456 945.606 37.3705 945.607 37.6467C945.608 37.9228 945.833 38.1456 946.109 38.1444L946.105 37.1444ZM936.147 38.2376C936.423 38.2337 936.644 38.0067 936.64 37.7306C936.636 37.4545 936.409 37.2338 936.133 37.2377L936.147 38.2376ZM926.164 37.4263C925.888 37.4328 925.67 37.6619 925.676 37.938C925.683 38.2141 925.912 38.4325 926.188 38.426L926.164 37.4263ZM916.234 38.7115C916.51 38.7022 916.726 38.4709 916.716 38.1949C916.707 37.919 916.476 37.7028 916.2 37.712L916.234 38.7115ZM906.233 38.0976C905.957 38.1097 905.743 38.3431 905.755 38.619C905.767 38.8949 906.001 39.1087 906.276 39.0966L906.233 38.0976ZM896.319 39.584C896.595 39.569 896.806 39.3334 896.792 39.0577C896.777 38.7819 896.541 38.5705 896.265 38.5854L896.319 39.584ZM886.306 39.1777C886.031 39.1956 885.822 39.4334 885.84 39.709C885.857 39.9846 886.095 40.1935 886.371 40.1756L886.306 39.1777ZM876.433 40.874C876.709 40.8531 876.915 40.613 876.894 40.3376C876.873 40.0623 876.633 39.856 876.358 39.8769L876.433 40.874ZM866.423 40.6855C866.148 40.7094 865.944 40.9519 865.968 41.227C865.992 41.5021 866.234 41.7057 866.509 41.6817L866.423 40.6855ZM856.589 42.6027C856.863 42.5756 857.064 42.3309 857.037 42.056C857.01 41.7812 856.765 41.5804 856.49 41.6076L856.589 42.6027ZM846.564 42.6463C846.289 42.6767 846.091 42.9238 846.122 43.1983C846.152 43.4728 846.399 43.6706 846.674 43.6403L846.564 42.6463ZM836.78 44.7963C837.054 44.7625 837.249 44.513 837.215 44.2389C837.181 43.9649 836.932 43.77 836.658 43.8038L836.78 44.7963ZM826.775 45.083C826.501 45.1202 826.31 45.3721 826.347 45.6457C826.384 45.9194 826.636 46.111 826.91 46.0739L826.775 45.083ZM817.038 47.4807C817.311 47.44 817.499 47.1855 817.458 46.9124C817.418 46.6393 817.163 46.4509 816.89 46.4917L817.038 47.4807ZM807.034 48.03C806.761 48.0745 806.576 48.3314 806.621 48.604C806.665 48.8765 806.922 49.0614 807.195 49.017L807.034 48.03ZM797.383 50.6868C797.655 50.6385 797.836 50.379 797.788 50.1071C797.74 49.8352 797.48 49.6539 797.208 49.7022L797.383 50.6868ZM787.389 51.5178C787.118 51.57 786.94 51.8321 786.992 52.1033C787.045 52.3745 787.307 52.552 787.578 52.4998L787.389 51.5178ZM777.818 54.4545C778.088 54.3983 778.261 54.1335 778.205 53.8631C778.149 53.5928 777.884 53.4193 777.614 53.4755L777.818 54.4545ZM767.857 55.5867C767.588 55.6473 767.419 55.9148 767.479 56.1842C767.54 56.4536 767.807 56.6229 768.077 56.5624L767.857 55.5867ZM758.381 58.8247C758.649 58.7597 758.814 58.4895 758.749 58.2211C758.684 57.9527 758.414 57.7878 758.146 57.8528L758.381 58.8247ZM748.465 60.2845C748.197 60.3541 748.037 60.6271 748.107 60.8944C748.176 61.1616 748.45 61.3218 748.717 61.2522L748.465 60.2845ZM739.109 63.847C739.375 63.7726 739.53 63.4967 739.456 63.2308C739.381 62.9649 739.106 62.8096 738.84 62.8841L739.109 63.847ZM729.249 65.667C728.984 65.7465 728.834 66.0254 728.914 66.2898C728.993 66.5543 729.272 66.7042 729.537 66.6247L729.249 65.667ZM720.034 69.5856C720.297 69.5007 720.441 69.2189 720.356 68.9562C720.272 68.6934 719.99 68.5491 719.727 68.6339L720.034 69.5856ZM566.421 799.041C566.5 798.776 566.349 798.498 566.084 798.419C565.82 798.34 565.541 798.491 565.463 798.756L566.421 799.041ZM569.031 787.656C568.94 787.917 569.078 788.202 569.338 788.293C569.599 788.384 569.884 788.246 569.975 787.986L569.031 787.656ZM574.157 777.165C574.266 776.911 574.149 776.617 573.896 776.508C573.642 776.398 573.348 776.516 573.239 776.769L574.157 777.165ZM578.423 766.293C578.285 766.532 578.367 766.838 578.607 766.976C578.846 767.114 579.151 767.031 579.289 766.792L578.423 766.293ZM585.711 757.353C585.877 757.133 585.834 756.82 585.614 756.653C585.394 756.486 585.08 756.529 584.913 756.75L585.711 757.353ZM592.2 748.016C592.012 748.218 592.023 748.534 592.225 748.722C592.427 748.911 592.744 748.899 592.932 748.697L592.2 748.016ZM601.156 741.033C601.372 740.861 601.409 740.547 601.237 740.331C601.065 740.114 600.751 740.078 600.534 740.25L601.156 741.033ZM610.079 734.005C609.834 734.133 609.74 734.436 609.869 734.68C609.997 734.925 610.299 735.019 610.544 734.89L610.079 734.005ZM620.925 730.646C621.189 730.565 621.338 730.286 621.258 730.022C621.177 729.758 620.898 729.609 620.634 729.689L620.925 730.646ZM631.765 727.258C631.492 727.296 631.302 727.55 631.341 727.823C631.379 728.096 631.633 728.286 631.906 728.248L631.765 727.258ZM642.024 727.378C642.3 727.369 642.516 727.138 642.507 726.862C642.498 726.586 642.267 726.369 641.991 726.378L642.024 727.378ZM651.103 726.551C650.828 726.531 650.588 726.738 650.568 727.013C650.549 727.289 650.756 727.528 651.031 727.548L651.103 726.551ZM659.951 728.72C660.223 728.773 660.485 728.596 660.538 728.325C660.59 728.054 660.413 727.791 660.142 727.739L659.951 728.72ZM668.969 730.067C668.708 729.978 668.424 730.118 668.335 730.38C668.246 730.641 668.387 730.925 668.648 731.014L668.969 730.067ZM676.912 734.528C677.157 734.655 677.459 734.56 677.586 734.315C677.714 734.07 677.619 733.768 677.374 733.641L676.912 734.528ZM685.095 738.534C684.876 738.367 684.562 738.408 684.394 738.628C684.226 738.847 684.268 739.161 684.487 739.329L685.095 738.534ZM691.043 745.425C691.226 745.632 691.541 745.652 691.749 745.47C691.956 745.288 691.977 744.972 691.794 744.764L691.043 745.425ZM697.04 752.275C696.91 752.032 696.607 751.94 696.364 752.07C696.12 752.201 696.029 752.504 696.159 752.747L697.04 752.275ZM699.635 761.477C699.72 761.739 700.002 761.883 700.264 761.798C700.527 761.713 700.671 761.431 700.586 761.169L699.635 761.477ZM703.194 770.8C703.136 770.53 702.869 770.358 702.6 770.417C702.33 770.476 702.159 770.742 702.217 771.012L703.194 770.8ZM703.778 780.757C703.806 781.032 704.051 781.232 704.326 781.204C704.601 781.176 704.801 780.931 704.773 780.656L703.778 780.757ZM705.146 790.641C705.154 790.365 704.937 790.134 704.661 790.126C704.385 790.118 704.154 790.335 704.146 790.611L705.146 790.641ZM703.126 800.405C703.076 800.677 703.256 800.938 703.527 800.987C703.799 801.037 704.06 800.857 704.11 800.586L703.126 800.405ZM701.476 810.238C701.572 809.979 701.44 809.692 701.18 809.596C700.922 809.5 700.634 809.633 700.538 809.892L701.476 810.238ZM696.293 818.749C696.151 818.986 696.228 819.293 696.464 819.435C696.701 819.578 697.008 819.501 697.15 819.264L696.293 818.749ZM691.211 827.321C691.395 827.115 691.377 826.799 691.171 826.615C690.965 826.431 690.649 826.45 690.465 826.656L691.211 827.321ZM683.298 833.387C683.082 833.559 683.045 833.873 683.216 834.09C683.387 834.306 683.702 834.343 683.919 834.172L683.298 833.387ZM675.624 839.746C675.864 839.609 675.947 839.304 675.811 839.064C675.674 838.824 675.368 838.741 675.128 838.878L675.624 839.746ZM666.193 843.094C665.932 843.187 665.797 843.473 665.889 843.733C665.982 843.993 666.268 844.129 666.528 844.036L666.193 843.094ZM656.733 846.452C657.006 846.412 657.195 846.158 657.154 845.884C657.114 845.611 656.859 845.423 656.586 845.463L656.733 846.452ZM646.689 846.109C646.413 846.106 646.186 846.327 646.183 846.603C646.18 846.879 646.401 847.105 646.677 847.109L646.689 846.109ZM636.638 846.319C636.912 846.357 637.165 846.167 637.204 845.894C637.243 845.621 637.052 845.367 636.779 845.329L636.638 846.319ZM627.021 843.385C626.753 843.316 626.481 843.478 626.413 843.746C626.345 844.013 626.507 844.286 626.774 844.354L627.021 843.385ZM617.162 841.417C617.422 841.509 617.708 841.373 617.801 841.113C617.893 840.853 617.757 840.567 617.497 840.474L617.162 841.417ZM608.257 836.737C608.006 836.623 607.709 836.734 607.595 836.986C607.481 837.237 607.593 837.534 607.844 837.648L608.257 836.737ZM598.865 833.146C599.107 833.279 599.411 833.191 599.544 832.949C599.677 832.707 599.589 832.403 599.347 832.27L598.865 833.146ZM590.804 827.133C590.573 826.981 590.263 827.046 590.112 827.277C589.96 827.508 590.025 827.818 590.256 827.969L590.804 827.133ZM582.065 822.15C582.284 822.319 582.598 822.278 582.767 822.059C582.935 821.841 582.894 821.527 582.676 821.358L582.065 822.15ZM575.038 814.962C574.834 814.776 574.518 814.791 574.332 814.995C574.146 815.199 574.16 815.516 574.365 815.702L575.038 814.962ZM567.241 808.603C567.428 808.807 567.744 808.821 567.948 808.635C568.152 808.448 568.166 808.132 567.98 807.928L567.241 808.603ZM563.288 806.407C563.216 806.674 563.373 806.949 563.639 807.021C563.906 807.094 564.181 806.936 564.253 806.67L563.288 806.407ZM563.162 810.768C563.231 810.501 563.071 810.228 562.804 810.158C562.537 810.088 562.264 810.248 562.194 810.516L563.162 810.768ZM560.477 817.188C560.408 817.456 560.569 817.728 560.836 817.797C561.104 817.866 561.376 817.705 561.445 817.438L560.477 817.188ZM559.065 826.668C559.134 826.401 558.973 826.128 558.705 826.059C558.438 825.991 558.165 826.152 558.097 826.419L559.065 826.668ZM555.747 835.662C555.68 835.929 555.842 836.201 556.11 836.268C556.378 836.335 556.65 836.172 556.717 835.905L555.747 835.662ZM554.449 845.159C554.513 844.89 554.347 844.62 554.079 844.556C553.81 844.492 553.541 844.658 553.476 844.927L554.449 845.159ZM551.335 854.224C551.275 854.494 551.445 854.761 551.715 854.82C551.984 854.88 552.251 854.71 552.311 854.44L551.335 854.224ZM550.352 863.759C550.406 863.488 550.23 863.225 549.959 863.171C549.688 863.117 549.425 863.294 549.372 863.564L550.352 863.759ZM547.64 872.953C547.594 873.225 547.777 873.483 548.049 873.529C548.322 873.575 548.58 873.392 548.626 873.12L547.64 872.953ZM547.187 882.525C547.224 882.252 547.032 882 546.759 881.963C546.485 881.926 546.233 882.118 546.196 882.391L547.187 882.525ZM545.099 891.881C545.073 892.156 545.275 892.4 545.55 892.426C545.825 892.453 546.069 892.251 546.095 891.976L545.099 891.881ZM545.412 901.46C545.425 901.185 545.213 900.95 544.937 900.937C544.661 900.924 544.427 901.137 544.413 901.412L545.412 901.46ZM544.204 910.968C544.206 911.244 544.431 911.467 544.707 911.465C544.983 911.464 545.206 911.239 545.204 910.962L544.204 910.968ZM545.536 920.458C545.518 920.182 545.28 919.974 545.005 919.992C544.729 920.01 544.52 920.248 544.539 920.524L545.536 920.458ZM545.48 930.041C545.517 930.315 545.768 930.507 546.042 930.471C546.316 930.434 546.508 930.183 546.471 929.909L545.48 930.041ZM548.064 939.269C548.008 938.999 547.743 938.825 547.473 938.882C547.202 938.938 547.029 939.203 547.085 939.473L548.064 939.269ZM548.423 945.202C548.494 945.469 548.768 945.627 549.035 945.556C549.302 945.485 549.461 945.212 549.39 944.945L548.423 945.202ZM549.979 947.024C549.9 946.76 549.621 946.61 549.357 946.69C549.092 946.769 548.942 947.048 549.022 947.312L549.979 947.024ZM551.014 953.121C551.112 953.379 551.401 953.508 551.659 953.41C551.917 953.311 552.047 953.022 551.948 952.764L551.014 953.121ZM556.004 961.875C555.879 961.629 555.577 961.532 555.331 961.657C555.085 961.783 554.988 962.084 555.113 962.33L556.004 961.875ZM560.141 971.064C560.29 971.296 560.599 971.363 560.832 971.214C561.064 971.065 561.131 970.755 560.982 970.523L560.141 971.064ZM566.762 978.662C566.593 978.444 566.278 978.405 566.061 978.575C565.843 978.745 565.804 979.059 565.974 979.277L566.762 978.662ZM572.495 986.95C572.682 987.153 572.998 987.166 573.201 986.979C573.404 986.792 573.417 986.475 573.23 986.272L572.495 986.95ZM580.279 993.354C580.078 993.166 579.761 993.177 579.573 993.379C579.384 993.581 579.395 993.897 579.597 994.085L580.279 993.354ZM587.19 1000.69C587.404 1000.87 587.719 1000.83 587.893 1000.62C588.067 1000.41 588.035 1000.09 587.82 999.916L587.19 1000.69ZM595.777 1005.97C595.552 1005.81 595.24 1005.86 595.079 1006.09C594.919 1006.31 594.971 1006.63 595.196 1006.79L595.777 1005.97ZM603.555 1012.38C603.789 1012.53 604.097 1012.46 604.244 1012.23C604.391 1011.99 604.321 1011.68 604.087 1011.54L603.555 1012.38ZM612.701 1016.62C612.46 1016.49 612.155 1016.58 612.021 1016.82C611.888 1017.06 611.975 1017.36 612.216 1017.5L612.701 1016.62ZM621.238 1022.15C621.488 1022.26 621.786 1022.16 621.903 1021.91C622.021 1021.66 621.913 1021.36 621.663 1021.24L621.238 1022.15ZM631.032 1025.2C630.773 1025.1 630.485 1025.23 630.388 1025.49C630.29 1025.75 630.421 1026.04 630.679 1026.13L631.032 1025.2ZM640.407 1029.39C640.672 1029.47 640.95 1029.32 641.028 1029.05C641.106 1028.79 640.955 1028.51 640.69 1028.43L640.407 1029.39ZM650.547 1030.99C650.278 1030.93 650.01 1031.1 649.949 1031.37C649.888 1031.64 650.056 1031.91 650.326 1031.97L650.547 1030.99ZM660.348 1033.95C660.62 1034 660.879 1033.82 660.925 1033.55C660.972 1033.27 660.789 1033.01 660.517 1032.97L660.348 1033.95ZM670.645 1034.45C670.371 1034.42 670.121 1034.61 670.087 1034.89C670.053 1035.16 670.248 1035.41 670.522 1035.44L670.645 1034.45ZM680.664 1036.49C680.939 1036.52 681.181 1036.31 681.205 1036.04C681.228 1035.76 681.024 1035.52 680.749 1035.5L680.664 1036.49ZM690.919 1036.19C690.643 1036.17 690.408 1036.38 690.394 1036.66C690.38 1036.94 690.592 1037.17 690.867 1037.18L690.919 1036.19ZM701.106 1037.57C701.382 1037.57 701.611 1037.35 701.618 1037.08C701.624 1036.8 701.406 1036.57 701.13 1036.57L701.106 1037.57ZM711.351 1036.68C711.075 1036.68 710.851 1036.91 710.852 1037.18C710.852 1037.46 711.076 1037.68 711.352 1037.68L711.351 1036.68ZM721.587 1037.57C721.863 1037.56 722.082 1037.33 722.076 1037.06C722.07 1036.78 721.842 1036.56 721.566 1036.57L721.587 1037.57ZM731.765 1036.25C731.489 1036.26 731.274 1036.5 731.285 1036.77C731.296 1037.05 731.528 1037.26 731.804 1037.25L731.765 1036.25ZM742.003 1036.76C742.279 1036.75 742.49 1036.51 742.475 1036.24C742.459 1035.96 742.223 1035.75 741.948 1035.76L742.003 1036.76ZM752.12 1035.12C751.845 1035.14 751.637 1035.38 751.656 1035.66C751.676 1035.93 751.915 1036.14 752.19 1036.12L752.12 1035.12ZM762.376 1035.34C762.651 1035.32 762.856 1035.08 762.833 1034.8C762.81 1034.52 762.568 1034.32 762.293 1034.34L762.376 1035.34ZM772.481 1033.44C772.206 1033.47 772.004 1033.71 772.03 1033.98C772.056 1034.26 772.3 1034.46 772.574 1034.44L772.481 1033.44ZM782.803 1033.42C783.077 1033.39 783.277 1033.14 783.248 1032.87C783.219 1032.59 782.973 1032.39 782.699 1032.42L782.803 1033.42ZM792.812 1031.31C792.538 1031.34 792.341 1031.59 792.372 1031.87C792.403 1032.14 792.651 1032.34 792.926 1032.31L792.812 1031.31ZM803.045 1031.11C803.319 1031.07 803.514 1030.82 803.48 1030.55C803.446 1030.28 803.197 1030.08 802.923 1030.11L803.045 1031.11ZM813.096 1028.82C812.822 1028.86 812.629 1029.11 812.665 1029.39C812.701 1029.66 812.952 1029.85 813.225 1029.82L813.096 1028.82ZM823.362 1028.45C823.636 1028.42 823.827 1028.16 823.789 1027.89C823.752 1027.62 823.499 1027.43 823.226 1027.46L823.362 1028.45ZM833.294 1026.04C833.021 1026.08 832.831 1026.33 832.871 1026.61C832.91 1026.88 833.164 1027.07 833.437 1027.03L833.294 1026.04ZM843.618 1025.53C843.891 1025.48 844.079 1025.23 844.038 1024.96C843.996 1024.68 843.742 1024.49 843.469 1024.54L843.618 1025.53ZM853.512 1022.99C853.239 1023.03 853.052 1023.29 853.095 1023.56C853.138 1023.84 853.393 1024.02 853.666 1023.98L853.512 1022.99ZM863.768 1022.37C864.04 1022.33 864.225 1022.07 864.181 1021.8C864.137 1021.52 863.88 1021.34 863.608 1021.38L863.768 1022.37ZM873.715 1019.72C873.443 1019.76 873.259 1020.02 873.304 1020.29C873.35 1020.57 873.607 1020.75 873.88 1020.71L873.715 1019.72ZM883.913 1019C884.185 1018.96 884.368 1018.7 884.321 1018.43C884.275 1018.16 884.016 1017.97 883.744 1018.02L883.913 1019ZM893.884 1016.25C893.612 1016.3 893.43 1016.56 893.478 1016.83C893.526 1017.11 893.785 1017.29 894.057 1017.24L893.884 1016.25ZM904.04 1015.46C904.312 1015.41 904.492 1015.15 904.443 1014.88C904.394 1014.61 904.134 1014.43 903.863 1014.48L904.04 1015.46ZM914.008 1012.63C913.737 1012.68 913.557 1012.94 913.607 1013.21C913.657 1013.48 913.918 1013.66 914.189 1013.61L914.008 1012.63ZM924.143 1011.76C924.414 1011.7 924.593 1011.44 924.542 1011.17C924.491 1010.9 924.229 1010.72 923.958 1010.77L924.143 1011.76ZM934.086 1008.85C933.815 1008.9 933.637 1009.16 933.689 1009.44C933.741 1009.71 934.003 1009.88 934.274 1009.83L934.086 1008.85ZM944.221 1007.91C944.492 1007.86 944.669 1007.6 944.617 1007.32C944.564 1007.05 944.301 1006.88 944.03 1006.93L944.221 1007.91ZM954.122 1004.95C953.851 1005 953.675 1005.26 953.728 1005.54C953.782 1005.81 954.045 1005.98 954.316 1005.93L954.122 1004.95ZM964.283 1003.94C964.554 1003.89 964.73 1003.62 964.675 1003.35C964.621 1003.08 964.357 1002.91 964.086 1002.96L964.283 1003.94ZM974.125 1000.93C973.855 1000.98 973.68 1001.25 973.735 1001.52C973.79 1001.79 974.055 1001.96 974.325 1001.91L974.125 1000.93ZM984.899 999.828C985.171 999.781 985.353 999.522 985.306 999.25C985.259 998.978 985 998.795 984.728 998.843L984.899 999.828ZM995.829 997.257C995.555 997.288 995.357 997.535 995.388 997.81C995.419 998.084 995.666 998.281 995.941 998.251L995.829 997.257ZM1007.06 997.339C1007.33 997.325 1007.54 997.09 1007.53 996.814C1007.52 996.538 1007.28 996.326 1007.01 996.341L1007.06 997.339ZM1018.22 996.103C1017.94 996.101 1017.71 996.323 1017.71 996.599C1017.71 996.875 1017.93 997.101 1018.21 997.103L1018.22 996.103ZM1029.35 997.56C1029.63 997.58 1029.86 997.373 1029.88 997.098C1029.9 996.822 1029.7 996.583 1029.42 996.563L1029.35 997.56ZM1040.58 997.744C1040.3 997.706 1040.05 997.896 1040.01 998.17C1039.97 998.443 1040.16 998.696 1040.44 998.734L1040.58 997.744ZM1051.42 1000.66C1051.69 1000.71 1051.95 1000.54 1052.01 1000.27C1052.07 1000 1051.9 999.735 1051.63 999.678L1051.42 1000.66ZM1062.51 1002.4C1062.25 1002.33 1061.97 1002.48 1061.89 1002.74C1061.81 1003.01 1061.97 1003.29 1062.23 1003.36L1062.51 1002.4ZM1072 1006.54C1072.26 1006.63 1072.54 1006.49 1072.63 1006.23C1072.72 1005.97 1072.59 1005.68 1072.33 1005.59L1072 1006.54ZM1081.17 1008.84C1080.92 1008.74 1080.63 1008.87 1080.53 1009.13C1080.43 1009.39 1080.55 1009.68 1080.81 1009.78L1081.17 1008.84ZM1089.47 1013.37C1089.73 1013.49 1090.02 1013.37 1090.13 1013.12C1090.25 1012.87 1090.13 1012.57 1089.88 1012.46L1089.47 1013.37ZM1098.38 1016.55C1098.14 1016.43 1097.84 1016.52 1097.71 1016.77C1097.58 1017.01 1097.68 1017.31 1097.92 1017.44L1098.38 1016.55ZM1106.06 1022.08C1106.3 1022.22 1106.6 1022.15 1106.75 1021.92C1106.9 1021.68 1106.82 1021.37 1106.59 1021.23L1106.06 1022.08ZM1114.37 1026.59C1114.15 1026.42 1113.84 1026.46 1113.67 1026.68C1113.51 1026.9 1113.55 1027.21 1113.77 1027.38L1114.37 1026.59ZM1120.89 1033.43C1121.09 1033.62 1121.41 1033.61 1121.6 1033.41C1121.79 1033.21 1121.78 1032.9 1121.58 1032.71L1120.89 1033.43ZM1128.04 1039.63C1127.86 1039.41 1127.55 1039.38 1127.34 1039.56C1127.12 1039.73 1127.09 1040.05 1127.27 1040.26L1128.04 1039.63ZM1133.2 1048.49C1133.35 1048.72 1133.66 1048.79 1133.9 1048.64C1134.13 1048.49 1134.19 1048.18 1134.05 1047.95L1133.2 1048.49ZM1139.55 1057.55C1139.42 1057.31 1139.12 1057.21 1138.88 1057.33C1138.63 1057.46 1138.53 1057.76 1138.66 1058.01L1139.55 1057.55ZM1143.16 1068.01C1143.26 1068.27 1143.55 1068.39 1143.81 1068.29C1144.07 1068.19 1144.19 1067.9 1144.09 1067.64L1143.16 1068.01ZM1147.7 1078.1C1147.62 1077.84 1147.34 1077.69 1147.08 1077.76C1146.81 1077.84 1146.66 1078.12 1146.74 1078.39L1147.7 1078.1ZM1149.42 1089.03C1149.48 1089.3 1149.74 1089.47 1150.01 1089.42C1150.28 1089.36 1150.46 1089.1 1150.4 1088.83L1149.42 1089.03ZM1152.23 1099.73C1152.19 1099.46 1151.94 1099.26 1151.67 1099.3C1151.39 1099.33 1151.2 1099.58 1151.23 1099.86L1152.23 1099.73ZM1152.22 1110.8C1152.24 1111.07 1152.47 1111.29 1152.75 1111.27C1153.03 1111.26 1153.24 1111.02 1153.22 1110.74L1152.22 1110.8ZM1153.43 1121.79C1153.44 1121.52 1153.22 1121.29 1152.94 1121.28C1152.66 1121.28 1152.44 1121.5 1152.43 1121.78L1153.43 1121.79ZM1151.79 1132.03C1151.76 1132.3 1151.96 1132.55 1152.23 1132.59C1152.5 1132.62 1152.75 1132.43 1152.79 1132.15L1151.79 1132.03ZM1151.21 1141.69C1151.27 1141.42 1151.1 1141.16 1150.83 1141.1C1150.55 1141.04 1150.29 1141.22 1150.23 1141.49L1151.21 1141.69ZM1147.99 1150.82C1147.91 1151.08 1148.07 1151.36 1148.34 1151.43C1148.6 1151.5 1148.88 1151.35 1148.95 1151.08L1147.99 1150.82ZM1146.15 1160.32C1146.23 1160.06 1146.09 1159.78 1145.83 1159.69C1145.57 1159.6 1145.29 1159.74 1145.2 1160.01L1146.15 1160.32ZM1142 1169.07C1141.91 1169.33 1142.04 1169.62 1142.3 1169.71C1142.56 1169.81 1142.84 1169.68 1142.94 1169.42L1142 1169.07ZM1139.44 1178.41C1139.54 1178.15 1139.42 1177.86 1139.16 1177.75C1138.91 1177.65 1138.62 1177.78 1138.51 1178.03L1139.44 1178.41ZM1134.84 1186.92C1134.73 1187.18 1134.85 1187.47 1135.1 1187.58C1135.36 1187.68 1135.65 1187.57 1135.76 1187.31L1134.84 1186.92ZM1131.99 1196.18C1132.1 1195.92 1131.98 1195.63 1131.73 1195.52C1131.47 1195.41 1131.18 1195.53 1131.07 1195.78L1131.99 1196.18ZM1125.68 1192.14C1125.79 1192.4 1126.08 1192.52 1126.33 1192.41C1126.59 1192.31 1126.71 1192.02 1126.6 1191.76L1125.68 1192.14ZM1128.94 1197.4C1128.84 1197.14 1128.54 1197.02 1128.29 1197.13C1128.03 1197.24 1127.91 1197.53 1128.02 1197.78L1128.94 1197.4ZM1132.82 1199.42C1133.07 1199.29 1133.18 1198.99 1133.05 1198.75C1132.93 1198.5 1132.63 1198.4 1132.39 1198.52L1132.82 1199.42ZM1138.3 1195.63C1138.05 1195.75 1137.95 1196.05 1138.07 1196.3C1138.19 1196.54 1138.49 1196.65 1138.74 1196.53L1138.3 1195.63ZM1.23953 151.255C2.76757 150.421 4.27793 149.605 5.77089 148.807L5.29952 147.925C3.80394 148.725 2.29102 149.542 0.760474 150.377L1.23953 151.255ZM14.522 144.231C17.5263 142.696 20.4557 141.238 23.3127 139.854L22.8766 138.954C20.013 140.341 17.0774 141.803 14.0671 143.341L14.522 144.231ZM32.2228 135.668C35.337 134.253 38.359 132.932 41.2927 131.7L40.9057 130.778C37.9626 132.014 34.9317 133.339 31.8091 134.758L32.2228 135.668ZM50.2384 128.117C53.5011 126.876 56.6456 125.754 59.6786 124.745L59.363 123.797C56.3158 124.81 53.158 125.936 49.8828 127.183L50.2384 128.117ZM69.0924 121.872C72.3992 120.958 75.5603 120.191 78.5866 119.558L78.3821 118.58C75.3337 119.216 72.152 119.989 68.826 120.908L69.0924 121.872ZM88.2299 117.93C91.6778 117.495 94.9316 117.253 98.0129 117.181L97.9896 116.181C94.8723 116.254 91.5846 116.499 88.1047 116.938L88.2299 117.93ZM107.818 117.552C111.241 117.906 114.432 118.487 117.434 119.25L117.68 118.28C114.631 117.506 111.392 116.916 107.92 116.557L107.818 117.552ZM126.673 122.344C129.771 123.639 132.678 125.115 135.464 126.7L135.959 125.831C133.144 124.23 130.2 122.734 127.059 121.421L126.673 122.344ZM143.8 131.89C146.578 133.734 149.229 135.568 151.981 137.403L152.536 136.57C149.842 134.775 147.093 132.876 144.353 131.057L143.8 131.89ZM160.369 142.647C163.211 144.265 166.16 145.749 169.297 147.012L169.67 146.085C166.584 144.842 163.675 143.379 160.864 141.778L160.369 142.647ZM178.749 149.926C181.834 150.591 185.112 151.029 188.636 151.184L188.68 150.185C185.212 150.033 181.989 149.602 178.96 148.948L178.749 149.926ZM198.556 150.896C201.632 150.599 204.879 150.105 208.321 149.391L208.117 148.412C204.708 149.119 201.497 149.607 198.459 149.901L198.556 150.896ZM217.945 146.954C220.947 146.066 224.083 145.027 227.365 143.824L227.021 142.885C223.757 144.081 220.641 145.113 217.661 145.995L217.945 146.954ZM236.426 140.241C239.319 139.018 242.315 137.68 245.421 136.219L244.995 135.314C241.9 136.77 238.916 138.103 236.037 139.32L236.426 140.241ZM254.49 131.763C257.245 130.354 260.08 128.857 262.999 127.267L262.521 126.389C259.609 127.975 256.782 129.468 254.035 130.872L254.49 131.763ZM271.739 122.373C274.466 120.805 277.261 119.163 280.127 117.443L279.613 116.585C276.752 118.303 273.962 119.942 271.241 121.506L271.739 122.373ZM288.678 112.209C291.348 110.545 294.076 108.817 296.862 107.024L296.321 106.183C293.538 107.973 290.815 109.699 288.149 111.361L288.678 112.209ZM305.389 101.456C307.985 99.7369 310.629 97.9647 313.323 96.1378L312.761 95.3101C310.07 97.1351 307.429 98.9052 304.837 100.622L305.389 101.456ZM321.556 90.4913C322.953 89.5224 324.364 88.5394 325.787 87.5423L325.213 86.7233C323.791 87.7195 322.382 88.7015 320.986 89.6695L321.556 90.4913ZM325.787 87.5423C327.139 86.5954 328.489 85.6569 329.838 84.7269L329.271 83.9035C327.919 84.835 326.567 85.7749 325.213 86.7233L325.787 87.5423ZM337.921 79.2472C340.65 77.4276 343.374 75.6424 346.093 73.8913L345.552 73.0506C342.828 74.8046 340.1 76.5927 337.366 78.4152L337.921 79.2472ZM354.338 68.6755C357.128 66.9425 359.912 65.2454 362.689 63.584L362.176 62.7258C359.393 64.3901 356.605 66.0901 353.81 67.8261L354.338 68.6755ZM371.09 58.6566C373.943 57.0167 376.788 55.4144 379.626 53.8495L379.143 52.9738C376.3 54.5416 373.449 56.1468 370.592 57.7897L371.09 58.6566ZM388.176 49.2366C391.092 47.6973 394 46.1976 396.9 44.7372L396.45 43.844C393.545 45.3074 390.631 46.81 387.709 48.3522L388.176 49.2366ZM405.63 40.446C408.598 39.0234 411.555 37.6421 414.503 36.3016L414.089 35.3913C411.135 36.7346 408.171 38.1188 405.198 39.5443L405.63 40.446ZM423.429 32.3541C426.437 31.061 429.435 29.8108 432.422 28.6029L432.047 27.6759C429.054 28.8865 426.049 30.1395 423.034 31.4353L423.429 32.3541ZM441.541 25.0322C444.6 23.8742 447.646 22.7609 450.679 21.6918L450.346 20.7487C447.306 21.8203 444.253 22.9362 441.187 24.097L441.541 25.0322ZM459.944 18.5501C463.068 17.5329 466.177 16.5629 469.271 15.6399L468.985 14.6816C465.883 15.6071 462.766 16.5795 459.634 17.5993L459.944 18.5501ZM478.62 12.9799C481.801 12.1193 484.964 11.3087 488.11 10.5476L487.875 9.57565C484.72 10.3389 481.548 11.1517 478.359 12.0147L478.62 12.9799ZM497.631 8.38281C500.832 7.70214 504.013 7.07331 507.173 6.49573L506.994 5.51201C503.823 6.09134 500.633 6.72204 497.423 7.40469L497.631 8.38281ZM516.821 4.88179C520.071 4.38863 523.298 3.95045 526.502 3.56657L526.383 2.57367C523.169 2.95881 519.931 3.3984 516.671 3.89311L516.821 4.88179ZM536.194 2.56404C539.458 2.28034 542.696 2.054 545.908 1.88427L545.855 0.885663C542.632 1.056 539.382 1.28313 536.107 1.56779L536.194 2.56404ZM555.684 1.5402C558.968 1.48334 562.222 1.48693 565.445 1.55015L565.465 0.550338C562.229 0.486882 558.963 0.483276 555.667 0.540352L555.684 1.5402ZM575.184 1.92717C578.454 2.11718 581.689 2.37012 584.89 2.68504L584.988 1.68984C581.774 1.3736 578.525 1.11963 575.242 0.928852L575.184 1.92717ZM594.581 3.84247C597.833 4.30053 601.046 4.82458 604.219 5.41354L604.401 4.43034C601.214 3.83869 597.987 3.31231 594.721 2.85225L594.581 3.84247ZM613.767 7.40996C616.958 8.15372 620.105 8.96563 623.206 9.84454L623.479 8.88243C620.363 7.99919 617.201 7.18335 613.994 6.43606L613.767 7.40996ZM632.514 12.7291C635.614 13.7745 638.665 14.8898 641.664 16.0739L642.031 15.1438C639.016 13.9534 635.95 12.8322 632.833 11.7815L632.514 12.7291ZM650.627 19.8872C653.601 21.2462 656.519 22.6765 659.379 24.1766L659.843 23.291C656.967 21.7824 654.033 20.3442 651.043 18.9777L650.627 19.8872ZM667.884 28.9444C670.686 30.6203 673.426 32.3676 676.103 34.185L676.665 33.3577C673.972 31.5295 671.216 29.7718 668.398 28.0862L667.884 28.9444ZM684.002 39.8922C686.585 41.8767 689.101 43.9316 691.548 46.0555L692.204 45.3003C689.741 43.1633 687.21 41.0958 684.611 39.0993L684.002 39.8922ZM698.71 52.6597C701.031 54.9337 703.281 57.276 705.459 59.685L706.2 59.0145C704.01 56.5905 701.746 54.2335 699.41 51.9453L698.71 52.6597ZM711.767 67.1077C712.78 68.3769 713.775 69.6623 714.752 70.9638L715.552 70.3638C714.569 69.0542 713.568 67.7608 712.548 66.4837L711.767 67.1077ZM714.993 70.1896C713.419 70.7159 711.859 71.2471 710.313 71.783L710.64 72.7279C712.183 72.1932 713.74 71.6632 715.31 71.138L714.993 70.1896ZM701.083 75.0965C697.973 76.2529 694.923 77.4288 691.932 78.6234L692.303 79.552C695.286 78.3605 698.329 77.1874 701.432 76.0338L701.083 75.0965ZM682.869 82.3772C679.814 83.6895 676.827 85.0219 673.908 86.3731L674.328 87.2805C677.238 85.9334 680.217 84.6048 683.264 83.296L682.869 82.3772ZM665.064 90.6279C662.083 92.1189 659.181 93.6302 656.359 95.1602L656.836 96.0393C659.648 94.5147 662.54 93.0085 665.512 91.5223L665.064 90.6279ZM647.819 99.9903C644.945 101.687 642.164 103.405 639.478 105.14L640.021 105.98C642.695 104.252 645.464 102.542 648.328 100.851L647.819 99.9903ZM631.359 110.649C628.619 112.602 625.996 114.574 623.49 116.565L624.112 117.348C626.604 115.369 629.213 113.406 631.939 111.463L631.359 110.649ZM615.983 122.89C613.471 125.141 611.106 127.409 608.888 129.693L609.605 130.39C611.807 128.123 614.155 125.871 616.65 123.635L615.983 122.89ZM602.322 137.016C600.166 139.633 598.202 142.265 596.429 144.908L597.26 145.465C599.013 142.851 600.958 140.245 603.094 137.651L602.322 137.016ZM591.424 153.378C589.881 156.394 588.589 159.415 587.55 162.436L588.496 162.761C589.518 159.788 590.792 156.809 592.314 153.833L591.424 153.378ZM585.113 172.001C584.568 175.301 584.331 178.589 584.409 181.855L585.409 181.831C585.333 178.629 585.564 175.404 586.1 172.164L585.113 172.001ZM585.605 191.661C586.31 194.829 587.323 197.964 588.647 201.055L589.566 200.662C588.266 197.625 587.272 194.55 586.581 191.444L585.605 191.661ZM593.285 209.771C594.158 211.136 595.096 212.491 596.099 213.833L596.901 213.235C595.911 211.911 594.987 210.576 594.127 209.232L593.285 209.771ZM596.099 213.833C597.163 215.257 598.224 216.647 599.282 218.004L600.071 217.389C599.017 216.038 597.961 214.653 596.901 213.235L596.099 213.833ZM605.588 225.749C607.897 228.458 610.189 231.009 612.463 233.407L613.188 232.719C610.927 230.334 608.647 227.797 606.349 225.101L605.588 225.749ZM619.692 240.573C622.277 242.973 624.837 245.176 627.371 247.188L627.993 246.404C625.481 244.41 622.94 242.224 620.372 239.84L619.692 240.573ZM635.599 253.121C638.59 255.059 641.54 256.73 644.446 258.148L644.885 257.249C642.017 255.85 639.102 254.199 636.143 252.282L635.599 253.121ZM653.913 261.935C657.305 262.991 660.627 263.696 663.876 264.074L663.991 263.081C660.807 262.71 657.545 262.018 654.21 260.98L653.913 261.935ZM674.053 264.19C677.492 263.859 680.829 263.151 684.055 262.099L683.745 261.148C680.587 262.178 677.322 262.871 673.957 263.195L674.053 264.19ZM693.383 257.954C696.298 256.297 699.101 254.347 701.785 252.136L701.149 251.364C698.507 253.541 695.751 255.458 692.888 257.085L693.383 257.954ZM709.14 245.116C711.38 242.665 713.517 240.02 715.544 237.205L714.732 236.621C712.726 239.407 710.614 242.021 708.402 244.442L709.14 245.116ZM721.073 228.655C722.75 225.771 724.33 222.761 725.809 219.643L724.906 219.214C723.438 222.309 721.87 225.294 720.209 228.152L721.073 228.655ZM729.823 210.293C731.032 207.168 732.149 203.963 733.17 200.691L732.215 200.393C731.201 203.644 730.091 206.829 728.89 209.932L729.823 210.293ZM735.891 190.905C736.693 187.637 737.402 184.321 738.016 180.973L737.032 180.792C736.422 184.122 735.717 187.418 734.92 190.667L735.891 190.905ZM739.558 170.933C739.975 167.577 740.296 164.201 740.519 160.82L739.521 160.754C739.299 164.116 738.98 167.472 738.566 170.809L739.558 170.933ZM740.889 150.667C740.913 147.27 740.834 143.879 740.649 140.509L739.651 140.564C739.834 143.913 739.912 147.283 739.889 150.66L740.889 150.667ZM739.767 130.384C739.359 126.995 738.838 123.642 738.2 120.339L737.218 120.528C737.851 123.808 738.369 127.137 738.775 130.504L739.767 130.384ZM735.892 110.433C734.983 107.131 733.946 103.897 732.777 100.748L731.839 101.096C732.998 104.216 734.026 107.423 734.928 110.699L735.892 110.433ZM728.781 91.3884C728.037 89.8613 727.257 88.361 726.44 86.89L725.565 87.3756C726.374 88.8306 727.146 90.315 727.882 91.8265L728.781 91.3884ZM726.436 86.8834C725.612 85.4509 724.768 84.0336 723.904 82.6318L723.052 83.1563C723.911 84.5496 724.75 85.9582 725.569 87.3821L726.436 86.8834ZM718.46 74.3677C717.51 73.0168 716.54 71.6821 715.552 70.3638L714.752 70.9638C715.734 72.274 716.698 73.6004 717.642 74.9429L718.46 74.3677ZM564.72 804.174C563.872 803.144 563.054 802.106 562.267 801.06L561.468 801.661C562.264 802.719 563.091 803.769 563.948 804.809L564.72 804.174ZM557.821 794.507C557.13 793.365 556.479 792.218 555.869 791.065L554.985 791.533C555.604 792.703 556.265 793.867 556.966 795.025L557.821 794.507ZM555.869 791.065C555.122 789.654 554.405 788.201 553.718 786.71L552.81 787.128C553.504 788.635 554.229 790.105 554.985 791.533L555.869 791.065ZM550.089 777.688C549.037 774.68 548.091 771.568 547.254 768.376L546.287 768.629C547.13 771.846 548.084 774.984 549.145 778.018L550.089 777.688ZM545.123 758.872C544.527 755.705 544.032 752.488 543.638 749.243L542.645 749.364C543.042 752.63 543.54 755.868 544.14 759.057L545.123 758.872ZM542.767 739.538C542.577 736.291 542.488 733.037 542.501 729.798L541.501 729.794C541.488 733.054 541.577 736.329 541.768 739.596L542.767 739.538ZM542.855 720.063C542.968 718.435 543.107 716.817 543.274 715.21L542.279 715.107C542.111 716.725 541.971 718.355 541.857 719.994L542.855 720.063ZM543.274 715.21C543.437 713.643 543.635 712.079 543.867 710.521L542.878 710.373C542.644 711.946 542.444 713.524 542.279 715.107L543.274 715.21ZM545.669 701.242C546.403 698.178 547.267 695.144 548.255 692.148L547.305 691.835C546.309 694.857 545.437 697.918 544.697 701.009L545.669 701.242ZM551.58 683.296C552.805 680.394 554.147 677.537 555.599 674.735L554.711 674.275C553.247 677.1 551.894 679.98 550.658 682.907L551.58 683.296ZM560.271 666.512C561.933 663.832 563.698 661.215 565.558 658.669L564.751 658.079C562.875 660.646 561.096 663.284 559.421 665.985L560.271 666.512ZM571.425 651.25C573.475 648.85 575.616 646.53 577.839 644.298L577.13 643.592C574.889 645.843 572.732 648.181 570.665 650.6L571.425 651.25ZM584.767 637.86C585.964 636.832 587.18 635.828 588.415 634.85L587.793 634.066C586.549 635.053 585.322 636.065 584.116 637.102L584.767 637.86ZM588.415 634.85C589.068 634.332 589.708 633.833 590.333 633.356L589.725 632.561C589.096 633.043 588.451 633.544 587.793 634.066L588.415 634.85ZM594.248 630.476C594.956 629.977 595.625 629.519 596.249 629.105L595.695 628.272C595.064 628.692 594.387 629.155 593.672 629.658L594.248 630.476ZM596.267 629.092C597.647 628.085 599.074 627.067 600.543 626.04L599.97 625.22C598.496 626.251 597.063 627.273 595.677 628.284L596.267 629.092ZM609.27 620.153C612.135 618.282 615.106 616.395 618.155 614.506L617.629 613.656C614.573 615.549 611.596 617.44 608.723 619.316L609.27 620.153ZM627.163 609.048C630.159 607.271 633.202 605.501 636.269 603.75L635.773 602.882C632.702 604.635 629.654 606.407 626.653 608.188L627.163 609.048ZM645.457 598.595C648.55 596.889 651.645 595.212 654.718 593.573L654.248 592.691C651.17 594.332 648.071 596.011 644.974 597.72L645.457 598.595ZM664.05 588.682C667.242 587.037 670.383 585.448 673.448 583.926L673.003 583.031C669.934 584.555 666.788 586.146 663.592 587.793L664.05 588.682ZM682.921 579.321C684.544 578.549 686.132 577.804 687.682 577.086L687.262 576.179C685.709 576.898 684.117 577.645 682.492 578.418L682.921 579.321ZM687.682 577.086C689.3 576.337 690.912 575.601 692.519 574.878L692.108 573.966C690.499 574.691 688.883 575.429 687.262 576.179L687.682 577.086ZM702.259 570.611C705.553 569.208 708.826 567.854 712.084 566.544L711.711 565.616C708.447 566.929 705.167 568.285 701.867 569.691L702.259 570.611ZM721.987 562.672C725.325 561.405 728.648 560.179 731.963 558.989L731.625 558.048C728.305 559.24 724.975 560.468 721.632 561.738L721.987 562.672ZM742.003 555.481C745.371 554.336 748.735 553.222 752.098 552.134L751.79 551.183C748.423 552.272 745.054 553.387 741.68 554.535L742.003 555.481ZM762.24 548.928C763.934 548.404 765.629 547.885 767.325 547.37L767.035 546.413C765.337 546.928 763.64 547.448 761.944 547.972L762.24 548.928ZM767.325 547.37C768.899 546.893 770.475 546.421 772.052 545.953L771.767 544.995C770.189 545.463 768.611 545.936 767.035 546.413L767.325 547.37ZM781.529 543.204C784.694 542.306 787.864 541.426 791.038 540.563L790.775 539.598C787.598 540.462 784.425 541.343 781.256 542.242L781.529 543.204ZM800.575 538.025C803.758 537.195 806.945 536.381 810.137 535.582L809.894 534.612C806.699 535.412 803.509 536.226 800.322 537.057L800.575 538.025ZM819.722 533.229C822.92 532.458 826.122 531.702 829.327 530.958L829.101 529.984C825.893 530.728 822.689 531.485 819.487 532.256L819.722 533.229ZM838.95 528.764C842.161 528.044 845.374 527.337 848.59 526.639L848.378 525.662C845.16 526.36 841.944 527.068 838.732 527.788L838.95 528.764ZM858.243 524.578C861.463 523.901 864.685 523.233 867.909 522.574L867.708 521.594C864.483 522.254 861.259 522.922 858.037 523.6L858.243 524.578ZM877.585 520.619C880.812 519.975 884.04 519.338 887.27 518.708L887.079 517.726C883.848 518.357 880.618 518.994 877.389 519.638L877.585 520.619ZM896.963 516.833C900.195 516.213 903.428 515.599 906.662 514.988L906.477 514.005C903.242 514.616 900.008 515.231 896.775 515.851L896.963 516.833ZM916.366 513.167C919.601 512.563 922.837 511.961 926.073 511.362L925.891 510.379C922.654 510.978 919.418 511.58 916.182 512.184L916.366 513.167ZM935.782 509.567C937.401 509.268 939.019 508.97 940.637 508.671L940.456 507.688C938.838 507.987 937.219 508.285 935.601 508.584L935.782 509.567ZM940.637 508.671L940.996 508.605L940.815 507.622L940.456 507.688L940.637 508.671ZM941.713 508.473L942.072 508.407L941.891 507.423L941.532 507.49L941.713 508.473ZM942.072 508.407C943.78 508.092 945.495 507.773 947.215 507.449L947.03 506.467C945.311 506.789 943.598 507.108 941.891 507.423L942.072 508.407ZM957.494 505.481C960.906 504.815 964.33 504.134 967.759 503.437L967.56 502.457C964.134 503.153 960.712 503.834 957.303 504.499L957.494 505.481ZM978.007 501.31C981.423 500.586 984.835 499.847 988.237 499.093L988.02 498.117C984.622 498.87 981.212 499.609 977.8 500.332L978.007 501.31ZM998.445 496.776C1001.86 495.981 1005.26 495.171 1008.63 494.346L1008.39 493.375C1005.02 494.199 1001.63 495.008 998.218 495.802L998.445 496.776ZM1018.78 491.791C1022.19 490.907 1025.57 490.008 1028.89 489.092L1028.63 488.128C1025.31 489.042 1021.94 489.941 1018.53 490.823L1018.78 491.791ZM1038.97 486.227C1040.65 485.731 1042.32 485.23 1043.98 484.725L1043.69 483.769C1042.04 484.273 1040.37 484.773 1038.68 485.268L1038.97 486.227ZM1043.98 484.725C1045.64 484.22 1047.29 483.69 1048.94 483.136L1048.62 482.188C1046.98 482.739 1045.34 483.266 1043.69 483.769L1043.98 484.725ZM1058.71 479.546C1061.93 478.264 1065.11 476.892 1068.27 475.434L1067.85 474.526C1064.71 475.977 1061.54 477.341 1058.34 478.617L1058.71 479.546ZM1077.61 470.826C1080.67 469.212 1083.7 467.517 1086.69 465.745L1086.18 464.885C1083.21 466.648 1080.19 468.335 1077.14 469.941L1077.61 470.826ZM1095.51 460.211C1098.4 458.293 1101.24 456.301 1104.03 454.241L1103.44 453.436C1100.66 455.487 1097.83 457.469 1094.95 459.377L1095.51 460.211ZM1112.25 447.851C1114.93 445.65 1117.56 443.382 1120.13 441.053L1119.46 440.313C1116.9 442.631 1114.29 444.887 1111.61 447.077L1112.25 447.851ZM1127.65 433.861C1130.1 431.393 1132.49 428.867 1134.79 426.284L1134.05 425.618C1131.75 428.187 1129.38 430.701 1126.94 433.156L1127.65 433.861ZM1141.51 418.334C1142.6 416.977 1143.66 415.606 1144.71 414.223L1143.91 413.621C1142.87 414.996 1141.81 416.359 1140.73 417.709L1141.51 418.334ZM1144.71 414.223C1145.52 413.145 1146.56 411.834 1147.78 410.266L1146.99 409.652C1145.78 411.21 1144.73 412.535 1143.91 413.621L1144.71 414.223ZM1153.78 402.185C1155.53 399.69 1157.4 396.885 1159.3 393.759L1158.45 393.238C1156.55 396.344 1154.7 399.131 1152.96 401.611L1153.78 402.185ZM1164.26 384.993C1165.02 383.543 1165.77 382.042 1166.52 380.488L1165.62 380.055C1164.88 381.598 1164.13 383.089 1163.37 384.53L1164.26 384.993ZM1166.52 380.488C1167.21 379.052 1167.88 377.608 1168.54 376.156L1167.63 375.745C1166.98 377.189 1166.31 378.626 1165.62 380.055L1166.52 380.488ZM1172.27 367.356C1173.44 364.395 1174.55 361.408 1175.6 358.397L1174.65 358.07C1173.61 361.067 1172.51 364.04 1171.34 366.987L1172.27 367.356ZM1178.53 349.305C1179.45 346.258 1180.31 343.19 1181.1 340.103L1180.14 339.853C1179.34 342.927 1178.49 345.983 1177.58 349.017L1178.53 349.305ZM1183.32 330.81C1184 327.704 1184.63 324.581 1185.2 321.446L1184.22 321.265C1183.65 324.39 1183.02 327.501 1182.34 330.596L1183.32 330.81ZM1186.77 312.025C1187.25 308.88 1187.67 305.724 1188.05 302.56L1187.06 302.441C1186.68 305.595 1186.26 308.741 1185.78 311.876L1186.77 312.025ZM1189.05 293.064C1189.34 289.896 1189.59 286.722 1189.8 283.545L1188.8 283.48C1188.59 286.648 1188.34 289.814 1188.06 292.973L1189.05 293.064ZM1190.31 274.012C1190.44 270.831 1190.53 267.65 1190.6 264.47L1189.6 264.451C1189.53 267.623 1189.44 270.797 1189.31 273.97L1190.31 274.012ZM1190.68 254.925C1190.68 251.739 1190.64 248.557 1190.58 245.381L1189.58 245.401C1189.64 248.571 1189.68 251.746 1189.68 254.926L1190.68 254.925ZM1190.3 235.841C1190.24 234.25 1190.18 232.66 1190.11 231.074L1189.11 231.119C1189.18 232.703 1189.24 234.29 1189.3 235.879L1190.3 235.841ZM1190.11 231.074C1190.03 229.383 1189.93 227.692 1189.82 226.001L1188.82 226.067C1188.94 227.751 1189.03 229.435 1189.11 231.119L1190.11 231.074ZM1188.94 215.874C1188.57 212.507 1188.13 209.146 1187.62 205.794L1186.63 205.946C1187.14 209.283 1187.58 212.63 1187.94 215.983L1188.94 215.874ZM1185.84 195.783C1185.18 192.461 1184.44 189.154 1183.61 185.864L1182.64 186.107C1183.46 189.381 1184.2 192.673 1184.86 195.98L1185.84 195.783ZM1180.91 176.064C1179.92 172.822 1178.86 169.603 1177.71 166.41L1176.77 166.748C1177.91 169.925 1178.97 173.128 1179.95 176.353L1180.91 176.064ZM1174.03 156.933C1172.72 153.812 1171.32 150.722 1169.84 147.665L1168.94 148.102C1170.42 151.142 1171.8 154.216 1173.1 157.32L1174.03 156.933ZM1165.15 138.641C1163.51 135.687 1161.78 132.769 1159.96 129.893L1159.12 130.428C1160.93 133.288 1162.65 136.189 1164.28 139.126L1165.15 138.641ZM1154.28 121.457C1152.32 118.715 1150.26 116.016 1148.12 113.364L1147.34 113.993C1149.47 116.63 1151.51 119.313 1153.47 122.039L1154.28 121.457ZM1141.49 105.645C1139.22 103.156 1136.87 100.715 1134.42 98.3258L1133.72 99.0411C1136.16 101.417 1138.5 103.843 1140.75 106.318L1141.49 105.645ZM1126.94 91.4289C1124.41 89.2239 1121.79 87.0701 1119.08 84.9707L1118.47 85.7609C1121.16 87.8488 1123.77 89.9906 1126.29 92.1832L1126.94 91.4289ZM1110.88 78.9622C1108.12 77.0574 1105.29 75.2051 1102.36 73.4081L1101.84 74.2598C1104.75 76.0476 1107.57 77.8902 1110.31 79.7848L1110.88 78.9622ZM1093.58 68.3077C1090.64 66.7037 1087.63 65.1521 1084.55 63.655L1084.11 64.5548C1087.18 66.0448 1090.18 67.589 1093.1 69.1851L1093.58 68.3077ZM1075.31 59.4397C1072.24 58.1241 1069.09 56.8596 1065.88 55.6481L1065.53 56.5837C1068.73 57.7901 1071.86 59.0492 1074.91 60.3589L1075.31 59.4397ZM1056.3 52.2639C1053.12 51.216 1049.88 50.2174 1046.57 49.2696L1046.3 50.231C1049.59 51.1751 1052.82 52.1699 1055.99 53.2135L1056.3 52.2639ZM1036.72 46.6473C1033.49 45.8509 1030.2 45.1009 1026.85 44.3987L1026.64 45.3775C1029.98 46.0773 1033.26 46.8247 1036.48 47.6182L1036.72 46.6473ZM1016.89 42.4863C1013.6 41.9096 1010.25 41.377 1006.85 40.8899L1006.71 41.8798C1010.1 42.3655 1013.44 42.8964 1016.72 43.4713L1016.89 42.4863ZM996.722 39.5934C993.422 39.2199 990.072 38.8875 986.671 38.5972L986.586 39.5935C989.977 39.8831 993.318 40.2146 996.61 40.587L996.722 39.5934ZM976.551 37.8671C973.197 37.6686 969.795 37.5096 966.347 37.391L966.313 38.3904C969.753 38.5087 973.146 38.6673 976.492 38.8653L976.551 37.8671ZM956.251 37.1616C954.546 37.1424 952.831 37.1327 951.104 37.1327V38.1327C952.827 38.1327 954.539 38.1424 956.24 38.1616L956.251 37.1616ZM951.104 37.1327C949.432 37.1327 947.766 37.1366 946.105 37.1444L946.109 38.1444C947.769 38.1366 949.434 38.1327 951.104 38.1327V37.1327ZM936.133 37.2377C932.788 37.2849 929.465 37.3478 926.164 37.4263L926.188 38.426C929.486 38.3476 932.806 38.2848 936.147 38.2376L936.133 37.2377ZM916.2 37.712C912.854 37.8246 909.532 37.9532 906.233 38.0976L906.276 39.0966C909.572 38.9524 912.891 38.8239 916.234 38.7115L916.2 37.712ZM896.265 38.5854C892.921 38.7666 889.601 38.9641 886.306 39.1777L886.371 40.1756C889.662 39.9622 892.978 39.7649 896.319 39.584L896.265 38.5854ZM876.358 39.8769C873.02 40.1298 869.708 40.3995 866.423 40.6855L866.509 41.6817C869.791 41.396 873.099 41.1267 876.433 40.874L876.358 39.8769ZM856.49 41.6076C853.153 41.9369 849.844 42.2833 846.564 42.6463L846.674 43.6403C849.95 43.2776 853.255 42.9317 856.589 42.6027L856.49 41.6076ZM836.658 43.8038C833.333 44.2129 830.039 44.6395 826.775 45.083L826.91 46.0739C830.169 45.6309 833.459 45.2049 836.78 44.7963L836.658 43.8038ZM816.89 46.4917C813.572 46.9868 810.286 47.4998 807.034 48.03L807.195 49.017C810.443 48.4875 813.724 47.9752 817.038 47.4807L816.89 46.4917ZM797.208 49.7022C793.899 50.2893 790.626 50.8947 787.389 51.5178L787.578 52.4998C790.81 51.8776 794.079 51.2731 797.383 50.6868L797.208 49.7022ZM777.614 53.4755C774.322 54.1609 771.07 54.8648 767.857 55.5867L768.077 56.5624C771.284 55.8416 774.531 55.1388 777.818 54.4545L777.614 53.4755ZM758.146 57.8528C754.875 58.6445 751.648 59.4553 748.465 60.2845L748.717 61.2522C751.894 60.4245 755.116 59.6151 758.381 58.8247L758.146 57.8528ZM738.84 62.8841C735.594 63.7925 732.397 64.7204 729.249 65.667L729.537 66.6247C732.679 65.6799 735.87 64.7538 739.109 63.847L738.84 62.8841ZM719.727 68.6339C718.136 69.1476 716.558 69.6662 714.993 70.1896L715.31 71.138C716.871 70.6157 718.446 70.0982 720.034 69.5856L719.727 68.6339ZM564.815 804.626C565.339 802.745 565.874 800.882 566.421 799.041L565.463 798.756C564.913 800.603 564.377 802.472 563.852 804.358L564.815 804.626ZM569.975 787.986C571.299 784.195 572.69 780.57 574.157 777.165L573.239 776.769C571.761 780.2 570.361 783.848 569.031 787.656L569.975 787.986ZM579.289 766.792C580.289 765.058 581.319 763.43 582.381 761.921L581.563 761.345C580.482 762.882 579.436 764.536 578.423 766.293L579.289 766.792ZM582.381 761.921C583.49 760.344 584.598 758.822 585.711 757.353L584.913 756.75C583.793 758.229 582.678 759.76 581.563 761.345L582.381 761.921ZM592.932 748.697C595.574 745.86 598.295 743.306 601.156 741.033L600.534 740.25C597.629 742.558 594.872 745.147 592.2 748.016L592.932 748.697ZM610.544 734.89C613.775 733.192 617.215 731.777 620.925 730.646L620.634 729.689C616.865 730.838 613.367 732.277 610.079 734.005L610.544 734.89ZM631.906 728.248C633.714 727.991 635.581 727.785 637.512 727.631L637.432 726.634C635.482 726.79 633.594 726.998 631.765 727.258L631.906 728.248ZM637.512 727.631C639.043 727.509 640.547 727.425 642.024 727.378L641.991 726.378C640.499 726.426 638.979 726.511 637.432 726.634L637.512 727.631ZM651.031 727.548C654.149 727.774 657.123 728.172 659.951 728.72L660.142 727.739C657.273 727.182 654.26 726.78 651.103 726.551L651.031 727.548ZM668.648 731.014C671.608 732.018 674.363 733.2 676.912 734.528L677.374 733.641C674.779 732.289 671.977 731.087 668.969 730.067L668.648 731.014ZM684.487 739.329C686.969 741.227 689.156 743.278 691.043 745.425L691.794 744.764C689.862 742.567 687.627 740.472 685.095 738.534L684.487 739.329ZM696.159 752.747C696.879 754.093 697.495 755.45 698.004 756.808L698.94 756.457C698.415 755.057 697.781 753.659 697.04 752.275L696.159 752.747ZM698.004 756.808C698.585 758.357 699.129 759.914 699.635 761.477L700.586 761.169C700.076 759.591 699.526 758.02 698.94 756.457L698.004 756.808ZM702.217 771.012C702.924 774.265 703.45 777.521 703.778 780.757L704.773 780.656C704.441 777.38 703.909 774.088 703.194 770.8L702.217 771.012ZM704.146 790.611C704.048 793.93 703.714 797.203 703.126 800.405L704.11 800.586C704.707 797.331 705.046 794.007 705.146 790.641L704.146 790.611ZM700.538 809.892C699.408 812.948 697.999 815.909 696.293 818.749L697.15 819.264C698.889 816.369 700.325 813.352 701.476 810.238L700.538 809.892ZM690.465 826.656C688.35 829.027 685.966 831.278 683.298 833.387L683.919 834.172C686.631 832.027 689.057 829.737 691.211 827.321L690.465 826.656ZM675.128 838.878C673.728 839.677 672.27 840.446 670.753 841.183L671.191 842.083C672.726 841.336 674.204 840.557 675.624 839.746L675.128 838.878ZM670.753 841.183C669.274 841.902 667.752 842.538 666.193 843.094L666.528 844.036C668.121 843.469 669.677 842.818 671.191 842.083L670.753 841.183ZM656.586 845.463C653.379 845.94 650.07 846.148 646.689 846.109L646.677 847.109C650.107 847.149 653.47 846.937 656.733 846.452L656.586 845.463ZM636.779 845.329C633.552 844.87 630.291 844.216 627.021 843.385L626.774 844.354C630.077 845.194 633.373 845.854 636.638 846.319L636.779 845.329ZM617.497 840.474C614.395 839.37 611.308 838.119 608.257 836.737L607.844 837.648C610.919 839.041 614.032 840.302 617.162 841.417L617.497 840.474ZM599.347 832.27C596.435 830.666 593.58 828.949 590.804 827.133L590.256 827.969C593.054 829.8 595.93 831.53 598.865 833.146L599.347 832.27ZM582.676 821.358C580.018 819.31 577.465 817.173 575.038 814.962L574.365 815.702C576.812 817.931 579.387 820.086 582.065 822.15L582.676 821.358ZM567.98 807.928C566.85 806.692 565.763 805.44 564.72 804.174L563.948 804.809C565.002 806.089 566.101 807.354 567.241 808.603L567.98 807.928ZM563.852 804.358C563.663 805.039 563.475 805.722 563.288 806.407L564.253 806.67C564.439 805.986 564.627 805.305 564.815 804.626L563.852 804.358ZM562.194 810.516C562.015 811.2 561.838 811.886 561.662 812.574L562.631 812.821C562.807 812.136 562.983 811.451 563.162 810.768L562.194 810.516ZM561.662 812.574C561.27 814.108 560.874 815.647 560.477 817.188L561.445 817.438C561.842 815.896 562.238 814.357 562.631 812.821L561.662 812.574ZM558.097 826.419C557.308 829.489 556.521 832.571 555.747 835.662L556.717 835.905C557.491 832.817 558.276 829.737 559.065 826.668L558.097 826.419ZM553.476 844.927C552.739 848.019 552.021 851.119 551.335 854.224L552.311 854.44C552.997 851.341 553.712 848.247 554.449 845.159L553.476 844.927ZM549.372 863.564C548.752 866.691 548.171 869.821 547.64 872.953L548.626 873.12C549.156 869.998 549.734 866.877 550.352 863.759L549.372 863.564ZM546.196 882.391C545.768 885.556 545.399 888.72 545.099 891.881L546.095 891.976C546.393 888.828 546.761 885.677 547.187 882.525L546.196 882.391ZM544.413 901.412C544.26 904.602 544.187 907.788 544.204 910.968L545.204 910.962C545.187 907.802 545.26 904.634 545.412 901.46L544.413 901.412ZM544.539 920.524C544.748 923.705 545.058 926.879 545.48 930.041L546.471 929.909C546.053 926.77 545.744 923.619 545.536 920.458L544.539 920.524ZM547.085 939.473C547.41 941.032 547.764 942.587 548.15 944.139L549.121 943.898C548.738 942.359 548.386 940.815 548.064 939.269L547.085 939.473ZM548.15 944.139C548.238 944.493 548.329 944.847 548.423 945.202L549.39 944.945C549.297 944.595 549.207 944.247 549.121 943.898L548.15 944.139ZM549.022 947.312C549.127 947.661 549.235 948.01 549.347 948.36L550.3 948.056C550.19 947.711 550.083 947.367 549.979 947.024L549.022 947.312ZM549.347 948.36C549.859 949.967 550.415 951.554 551.014 953.121L551.948 952.764C551.356 951.214 550.806 949.645 550.3 948.056L549.347 948.36ZM555.113 962.33C556.64 965.322 558.321 968.234 560.141 971.064L560.982 970.523C559.18 967.72 557.515 964.837 556.004 961.875L555.113 962.33ZM565.974 979.277C568.033 981.916 570.211 984.475 572.495 986.95L573.23 986.272C570.964 983.816 568.804 981.279 566.762 978.662L565.974 979.277ZM579.597 994.085C582.045 996.37 584.581 998.572 587.19 1000.69L587.82 999.916C585.229 997.81 582.71 995.622 580.279 993.354L579.597 994.085ZM595.196 1006.79C597.929 1008.74 600.72 1010.6 603.555 1012.38L604.087 1011.54C601.268 1009.77 598.494 1007.91 595.777 1005.97L595.196 1006.79ZM612.216 1017.5C613.687 1018.31 615.164 1019.11 616.647 1019.88L617.108 1018.99C615.633 1018.22 614.163 1017.43 612.701 1016.62L612.216 1017.5ZM616.647 1019.88C618.136 1020.65 619.664 1021.41 621.238 1022.15L621.663 1021.24C620.102 1020.51 618.586 1019.76 617.108 1018.99L616.647 1019.88ZM630.679 1026.13C633.745 1027.29 636.978 1028.38 640.407 1029.39L640.69 1028.43C637.284 1027.42 634.074 1026.34 631.032 1025.2L630.679 1026.13ZM650.326 1031.97C653.506 1032.69 656.841 1033.36 660.348 1033.95L660.517 1032.97C657.026 1032.37 653.709 1031.71 650.547 1030.99L650.326 1031.97ZM670.522 1035.44C673.765 1035.85 677.143 1036.2 680.664 1036.49L680.749 1035.5C677.239 1035.2 673.875 1034.85 670.645 1034.45L670.522 1035.44ZM690.867 1037.18C694.162 1037.36 697.573 1037.48 701.106 1037.57L701.13 1036.57C697.605 1036.48 694.204 1036.36 690.919 1036.19L690.867 1037.18ZM711.352 1037.68C714.663 1037.68 718.073 1037.64 721.587 1037.57L721.566 1036.57C718.058 1036.64 714.655 1036.68 711.351 1036.68L711.352 1037.68ZM731.804 1037.25C735.117 1037.12 738.515 1036.96 742.003 1036.76L741.948 1035.76C738.465 1035.96 735.072 1036.12 731.765 1036.25L731.804 1037.25ZM752.19 1036.12C755.508 1035.89 758.903 1035.63 762.376 1035.34L762.293 1034.34C758.824 1034.63 755.434 1034.89 752.12 1035.12L752.19 1036.12ZM772.574 1034.44C775.915 1034.12 779.324 1033.78 782.803 1033.42L782.699 1032.42C779.223 1032.79 775.817 1033.12 772.481 1033.44L772.574 1034.44ZM792.926 1032.31C796.237 1031.93 799.61 1031.53 803.045 1031.11L802.923 1030.11C799.491 1030.54 796.121 1030.94 792.812 1031.31L792.926 1032.31ZM813.225 1029.82C816.549 1029.38 819.927 1028.93 823.362 1028.45L823.226 1027.46C819.793 1027.94 816.417 1028.39 813.096 1028.82L813.225 1029.82ZM833.437 1027.03C836.779 1026.55 840.172 1026.04 843.618 1025.53L843.469 1024.54C840.025 1025.06 836.634 1025.56 833.294 1026.04L833.437 1027.03ZM853.666 1023.98C856.986 1023.46 860.353 1022.92 863.768 1022.37L863.608 1021.38C860.195 1021.94 856.83 1022.47 853.512 1022.99L853.666 1023.98ZM873.88 1020.71C877.181 1020.15 880.525 1019.59 883.913 1019L883.744 1018.02C880.358 1018.6 877.015 1019.17 873.715 1019.72L873.88 1020.71ZM894.057 1017.24C897.345 1016.66 900.673 1016.07 904.04 1015.46L903.863 1014.48C900.496 1015.08 897.17 1015.68 893.884 1016.25L894.057 1017.24ZM914.189 1013.61C917.47 1013 920.788 1012.39 924.143 1011.76L923.958 1010.77C920.604 1011.4 917.288 1012.02 914.008 1012.63L914.189 1013.61ZM934.274 1009.83C937.555 1009.2 940.871 1008.56 944.221 1007.91L944.03 1006.93C940.681 1007.58 937.366 1008.22 934.086 1008.85L934.274 1009.83ZM954.316 1005.93C957.606 1005.28 960.928 1004.61 964.283 1003.94L964.086 1002.96C960.732 1003.63 957.41 1004.3 954.122 1004.95L954.316 1005.93ZM974.325 1001.91C976.015 1001.56 977.713 1001.22 979.419 1000.87L979.218 999.886C977.512 1000.24 975.815 1000.58 974.125 1000.93L974.325 1001.91ZM979.419 1000.87C981.235 1000.49 983.063 1000.15 984.899 999.828L984.728 998.843C982.881 999.164 981.044 999.511 979.218 999.886L979.419 1000.87ZM995.941 998.251C999.626 997.837 1003.34 997.532 1007.06 997.339L1007.01 996.341C1003.26 996.534 999.534 996.841 995.829 997.257L995.941 998.251ZM1018.21 997.103C1021.93 997.139 1025.64 997.29 1029.35 997.56L1029.42 996.563C1025.7 996.291 1021.96 996.139 1018.22 996.103L1018.21 997.103ZM1040.44 998.734C1044.13 999.25 1047.79 999.889 1051.42 1000.66L1051.63 999.678C1047.98 998.906 1044.29 998.262 1040.58 997.744L1040.44 998.734ZM1062.23 1003.36C1064.02 1003.88 1065.79 1004.44 1067.55 1005.02L1067.87 1004.07C1066.1 1003.48 1064.31 1002.93 1062.51 1002.4L1062.23 1003.36ZM1067.55 1005.02C1069.03 1005.52 1070.52 1006.02 1072 1006.54L1072.33 1005.59C1070.84 1005.08 1069.35 1004.57 1067.87 1004.07L1067.55 1005.02ZM1080.81 1009.78C1083.73 1010.91 1086.63 1012.11 1089.47 1013.37L1089.88 1012.46C1087.02 1011.19 1084.11 1009.98 1081.17 1008.84L1080.81 1009.78ZM1097.92 1017.44C1100.7 1018.89 1103.42 1020.43 1106.06 1022.08L1106.59 1021.23C1103.93 1019.57 1101.19 1018.01 1098.38 1016.55L1097.92 1017.44ZM1113.77 1027.38C1116.25 1029.27 1118.63 1031.28 1120.89 1033.43L1121.58 1032.71C1119.29 1030.53 1116.88 1028.5 1114.37 1026.59L1113.77 1027.38ZM1127.27 1040.26C1128.25 1041.46 1129.2 1042.69 1130.12 1043.96L1130.93 1043.37C1130 1042.09 1129.04 1040.84 1128.04 1039.63L1127.27 1040.26ZM1130.12 1043.96C1131.17 1045.41 1132.2 1046.92 1133.2 1048.49L1134.05 1047.95C1133.03 1046.36 1131.99 1044.84 1130.93 1043.37L1130.12 1043.96ZM1138.66 1058.01C1140.26 1061.16 1141.77 1064.49 1143.16 1068.01L1144.09 1067.64C1142.69 1064.09 1141.16 1060.73 1139.55 1057.55L1138.66 1058.01ZM1146.74 1078.39C1147.75 1081.79 1148.65 1085.34 1149.42 1089.03L1150.4 1088.83C1149.63 1085.11 1148.72 1081.53 1147.7 1078.1L1146.74 1078.39ZM1151.23 1099.86C1151.69 1103.39 1152.02 1107.04 1152.22 1110.8L1153.22 1110.74C1153.02 1106.96 1152.68 1103.29 1152.23 1099.73L1151.23 1099.86ZM1152.43 1121.78C1152.41 1123.59 1152.35 1125.42 1152.26 1127.28L1153.26 1127.32C1153.35 1125.46 1153.41 1123.61 1153.43 1121.79L1152.43 1121.78ZM1152.26 1127.26C1152.14 1128.85 1151.99 1130.44 1151.79 1132.03L1152.79 1132.15C1152.98 1130.55 1153.14 1128.94 1153.26 1127.34L1152.26 1127.26ZM1150.23 1141.49C1149.59 1144.6 1148.84 1147.71 1147.99 1150.82L1148.95 1151.08C1149.81 1147.96 1150.57 1144.83 1151.21 1141.69L1150.23 1141.49ZM1145.2 1160.01C1144.2 1163.04 1143.12 1166.07 1142 1169.07L1142.94 1169.42C1144.06 1166.41 1145.14 1163.37 1146.15 1160.32L1145.2 1160.01ZM1138.51 1178.03C1137.31 1181.02 1136.07 1183.99 1134.84 1186.92L1135.76 1187.31C1137 1184.37 1138.23 1181.4 1139.44 1178.41L1138.51 1178.03ZM1131.07 1195.78C1130.44 1197.27 1129.81 1198.75 1129.19 1200.22L1130.11 1200.61C1130.73 1199.14 1131.36 1197.66 1131.99 1196.18L1131.07 1195.78ZM1124.51 1189.32L1125.68 1192.14L1126.6 1191.76L1125.43 1188.94L1124.51 1189.32ZM1128.02 1197.78L1129.19 1200.6L1130.11 1200.22L1128.94 1197.4L1128.02 1197.78ZM1129.87 1200.86L1132.82 1199.42L1132.39 1198.52L1129.43 1199.96L1129.87 1200.86ZM1138.74 1196.53L1141.69 1195.08L1141.25 1194.18L1138.3 1195.63L1138.74 1196.53Z" fill="#B6EFA1"/>
</svg>
